<svg id="Слой_1" data-name="Слой 1" xmlns="http://www.w3.org/2000/svg" viewBox="0 0 167.09 242.67"><defs><style>.cls-1{fill:#fff;stroke:#000;stroke-width:0.5px;}.cls-2{fill:#e61408;}</style></defs><title>1</title><g id="Layer_1"><path class="cls-1" d="M166.84,235.55a6.89,6.89,0,0,1-6.87,6.87H7.11a6.89,6.89,0,0,1-6.86-6.87V7.12A6.89,6.89,0,0,1,7.11.25H160a6.89,6.89,0,0,1,6.87,6.87Z"/><path class="cls-2" d="M33.18,21.91c0,9.58,12,16.55,15.54,24.14C52.26,38.48,64.31,31.57,64.37,22a7.81,7.81,0,1,0-15.6,0,7.8,7.8,0,1,0-15.59,0Z"/><path class="cls-2" d="M33.18,220.76c0-9.58,12-16.55,15.54-24.14,3.54,7.57,15.59,14.49,15.65,24.06a7.81,7.81,0,1,1-15.6,0,7.8,7.8,0,1,1-15.59,0Z"/><path class="cls-2" d="M133.91,21.91c0,9.58-12,16.55-15.54,24.14-3.54-7.57-15.59-14.48-15.65-24.06a7.8,7.8,0,1,1,15.59,0,7.81,7.81,0,1,1,15.6,0Z"/><path class="cls-2" d="M133.91,220.76c0-9.58-12-16.55-15.54-24.14-3.54,7.57-15.59,14.49-15.65,24.06a7.8,7.8,0,1,0,15.59,0,7.81,7.81,0,1,0,15.6,0Z"/><path class="cls-2" d="M64.37,113.51c0,9.58-12,16.55-15.54,24.14-3.54-7.57-15.59-14.48-15.65-24.06a7.8,7.8,0,1,1,15.59,0,7.81,7.81,0,1,1,15.6,0Z"/><path class="cls-2" d="M102.72,113.51c0,9.58,12,16.55,15.54,24.14,3.55-7.57,15.59-14.48,15.65-24.06a7.8,7.8,0,1,0-15.59,0,7.81,7.81,0,1,0-15.6,0Z"/><path class="cls-2" d="M13.78,15.32a3,3,0,0,1,.79-.94,1.54,1.54,0,0,1,.94-.31c.82,0,1.47.54,1.94,1.62a11.41,11.41,0,0,1,.7,4.45,10.57,10.57,0,0,1-.8,4.61,2.46,2.46,0,0,1-2.26,1.63c-1.09,0-1.92-.74-2.49-2.23a19.22,19.22,0,0,1-.85-6.55,22.24,22.24,0,0,1,.94-7.43c.62-1.67,1.56-2.51,2.79-2.51a3.35,3.35,0,0,1,1,.18,6.8,6.8,0,0,1,1.2.54v3.19h-.66a4.84,4.84,0,0,0-.51-1.87,1.1,1.1,0,0,0-1-.63c-.64,0-1.09.49-1.38,1.47A19.67,19.67,0,0,0,13.78,15.32ZM15,25c.37,0,.63-.35.79-1A19.19,19.19,0,0,0,16,20.24a19,19,0,0,0-.24-3.67c-.16-.71-.42-1.06-.79-1.06s-.64.35-.8,1.06a19,19,0,0,0-.24,3.67,19.19,19.19,0,0,0,.24,3.68C14.33,24.62,14.59,25,15,25Z"/><path class="cls-2" d="M152.68,227.33a3,3,0,0,1-.79.94,1.58,1.58,0,0,1-.95.32c-.82,0-1.46-.54-1.93-1.62a11.42,11.42,0,0,1-.71-4.45,10.77,10.77,0,0,1,.8-4.62,2.48,2.48,0,0,1,2.26-1.63c1.1,0,1.93.75,2.5,2.23a19.58,19.58,0,0,1,.85,6.56,22.55,22.55,0,0,1-.94,7.43c-.63,1.67-1.56,2.5-2.8,2.5a3.4,3.4,0,0,1-1-.18,6.42,6.42,0,0,1-1.19-.54v-3.18h.65a4.73,4.73,0,0,0,.51,1.86,1.11,1.11,0,0,0,1,.64c.63,0,1.09-.49,1.37-1.48A19.5,19.5,0,0,0,152.68,227.33Zm-1.19-9.65c-.37,0-.64.35-.8,1.06a29.48,29.48,0,0,0,0,7.35c.16.71.43,1.06.8,1.06s.64-.35.79-1.06a28.26,28.26,0,0,0,0-7.35C152.13,218,151.86,217.68,151.49,217.68Z"/><path class="cls-2" d="M11.49,31.61c0,2.87,3.6,5,4.66,7.24,1.06-2.27,4.67-4.34,4.69-7.22a2.34,2.34,0,1,0-4.68,0,2.34,2.34,0,1,0-4.67,0Z"/><path class="cls-2" d="M154.86,210.91c0-2.88-3.6-5-4.66-7.24-1.06,2.27-4.68,4.34-4.69,7.21a2.34,2.34,0,1,0,4.67,0,2.34,2.34,0,1,0,4.68,0Z"/></g></svg>