<svg id="Слой_1" data-name="Слой 1" xmlns="http://www.w3.org/2000/svg" viewBox="0 0 167.09 242.67"><defs><style>.cls-1{fill:#fff;stroke:#000;stroke-width:0.5px;}</style></defs><title>10</title><g id="Layer_1"><path class="cls-1" d="M166.84,235.55a6.89,6.89,0,0,1-6.87,6.87H7.11a6.89,6.89,0,0,1-6.86-6.87V7.12A6.89,6.89,0,0,1,7.11.25H160a6.89,6.89,0,0,1,6.87,6.87Z"/><path d="M55.24,19.92a7,7,0,0,1-14.09,0,7,7,0,0,1,14.09,0Z"/><path d="M64.32,32.85a7,7,0,1,1-7-6.83A6.95,6.95,0,0,1,64.32,32.85Z"/><path d="M46.27,32.9a6.62,6.62,0,0,1-1.15,3.74,7.09,7.09,0,0,1-5.89,3.09,6.83,6.83,0,1,1,7-6.83Z"/><path d="M56.46,46.16c-3.48,0-5.31-2.83-6.27-5.65a22.14,22.14,0,0,1-1-5.67H47.37S47,46.15,40.08,46.16Z"/><path d="M43.41,24.93c4,4,4,9.9,4,9.9h1.77s0-6.06,3.85-9.91"/><path d="M44.2,37.65c4-4,9.9-4,9.9-4V31.91s-6.06,0-9.91-3.84"/><path d="M52.14,37.68c-4-4-9.9-4-9.9-4l0-1.78s6.07,0,9.92-3.84"/><path d="M125.75,19.92a7.05,7.05,0,0,1-14.1,0,7.05,7.05,0,0,1,14.1,0Z"/><path d="M134.82,32.85a7,7,0,1,1-7-6.83A6.95,6.95,0,0,1,134.82,32.85Z"/><path d="M116.77,32.9a6.62,6.62,0,0,1-1.15,3.74,7.09,7.09,0,0,1-5.89,3.09,6.83,6.83,0,1,1,7-6.83Z"/><path d="M127,46.16c-3.48,0-5.31-2.83-6.27-5.65a22.14,22.14,0,0,1-1-5.67h-1.77s-.34,11.32-7.29,11.33Z"/><path d="M113.91,24.93c4,4,4,9.9,4,9.9h1.77s0-6.06,3.85-9.91"/><path d="M114.7,37.65c4-4,9.9-4,9.9-4V31.91s-6.06,0-9.91-3.84"/><path d="M122.64,37.68c-4-4-9.9-4-9.9-4l0-1.78s6.07,0,9.92-3.84"/><path d="M125.75,79.67a7.05,7.05,0,1,1-7-6.83A6.95,6.95,0,0,1,125.75,79.67Z"/><path d="M134.82,92.6a7,7,0,1,1-7-6.83A6.95,6.95,0,0,1,134.82,92.6Z"/><path d="M116.77,92.65a6.62,6.62,0,0,1-1.15,3.74,7.09,7.09,0,0,1-5.89,3.09,6.83,6.83,0,1,1,7-6.83Z"/><path d="M127,105.91c-3.48,0-5.31-2.83-6.27-5.65a22.14,22.14,0,0,1-1-5.67h-1.77s-.34,11.32-7.29,11.33Z"/><path d="M113.91,84.68c4,4,4,9.9,4,9.9h1.77s0-6.06,3.85-9.91"/><path d="M114.7,97.4c4-4,9.9-4,9.9-4V91.66s-6.06,0-9.91-3.84"/><path d="M122.64,97.43c-4-4-9.9-4-9.9-4l0-1.78s6.07,0,9.92-3.84"/><path d="M55.49,79.67a7,7,0,1,1-7-6.83A6.94,6.94,0,0,1,55.49,79.67Z"/><path d="M64.57,92.6a7,7,0,1,1-7-6.83A6.95,6.95,0,0,1,64.57,92.6Z"/><path d="M46.52,92.65a6.62,6.62,0,0,1-1.15,3.74,7.09,7.09,0,0,1-5.89,3.09,6.83,6.83,0,1,1,7-6.83Z"/><path d="M56.71,105.91c-3.48,0-5.31-2.83-6.27-5.65a22.14,22.14,0,0,1-1-5.67H47.62s-.34,11.32-7.29,11.33Z"/><path d="M43.66,84.68c4,4,4,9.9,4,9.9h1.77s0-6.06,3.85-9.91"/><path d="M44.45,97.4c4-4,9.9-4,9.9-4V91.66s-6.06,0-9.91-3.84"/><path d="M52.39,97.43c-4-4-9.9-4-9.9-4l0-1.78s6.07,0,9.92-3.84"/><path d="M55.64,163.17a7,7,0,1,0-7,6.83A6.94,6.94,0,0,0,55.64,163.17Z"/><path d="M64.72,150.24a7.05,7.05,0,1,0-7,6.83A6.95,6.95,0,0,0,64.72,150.24Z"/><path d="M46.67,150.19a6.65,6.65,0,0,0-1.15-3.75,7.1,7.1,0,0,0-5.89-3.09,6.84,6.84,0,1,0,7,6.84Z"/><path d="M40.48,136.93c7,0,7.29,11.33,7.29,11.33l1.77,0a22.1,22.1,0,0,1,1.05-5.66c1-2.83,2.79-5.66,6.27-5.66Z"/><path d="M43.81,158.15c4-4,4-9.89,4-9.89l1.77,0s0,6.07,3.85,9.91"/><path d="M44.6,145.44c4,4,9.9,4,9.9,4v1.77s-6.06,0-9.91,3.85"/><path d="M52.54,145.41c-4,4-9.9,4-9.9,4l0,1.77s6.07,0,9.92,3.85"/><path d="M125.63,163.17a7,7,0,1,0-7,6.83A6.94,6.94,0,0,0,125.63,163.17Z"/><path d="M134.7,150.24a7,7,0,1,0-7,6.83A6.94,6.94,0,0,0,134.7,150.24Z"/><path d="M116.66,150.19a6.65,6.65,0,0,0-1.15-3.75,7.1,7.1,0,0,0-5.9-3.09,6.84,6.84,0,1,0,7,6.84Z"/><path d="M110.46,136.93c7,0,7.29,11.33,7.29,11.33l1.78,0a22.1,22.1,0,0,1,1-5.66c1-2.83,2.79-5.66,6.27-5.66Z"/><path d="M113.79,158.15c4-4,4-9.89,4-9.89l1.78,0s0,6.07,3.84,9.91"/><path d="M114.59,145.44c4,4,9.9,4,9.9,4v1.77s-6.07,0-9.91,3.85"/><path d="M122.52,145.41c-4,4-9.9,4-9.9,4v1.77s6.07,0,9.91,3.85"/><path d="M55.41,223.16a7,7,0,1,0-7,6.83A6.94,6.94,0,0,0,55.41,223.16Z"/><path d="M64.48,210.23a7,7,0,1,0-7,6.83A6.94,6.94,0,0,0,64.48,210.23Z"/><path d="M46.44,210.18a6.65,6.65,0,0,0-1.15-3.75,7.1,7.1,0,0,0-5.9-3.09,6.84,6.84,0,1,0,7,6.84Z"/><path d="M40.24,196.91c7,0,7.29,11.33,7.29,11.33h1.78a22.1,22.1,0,0,1,1-5.66c1-2.83,2.79-5.66,6.27-5.66Z"/><path d="M43.58,218.14c4-3.95,4-9.9,4-9.9h1.78s0,6.07,3.84,9.91"/><path d="M44.37,205.43c4,3.95,9.9,3.95,9.9,3.95v1.78s-6.07,0-9.91,3.85"/><path d="M52.3,205.4c-3.95,3.95-9.9,3.95-9.9,3.95v1.78s6.07,0,9.91,3.85"/><path d="M125.86,223.16a7,7,0,1,0-7,6.83A6.94,6.94,0,0,0,125.86,223.16Z"/><path d="M134.93,210.23a7,7,0,1,0-7,6.83A6.94,6.94,0,0,0,134.93,210.23Z"/><path d="M116.89,210.18a6.65,6.65,0,0,0-1.15-3.75,7.1,7.1,0,0,0-5.89-3.09,6.84,6.84,0,1,0,7,6.84Z"/><path d="M110.69,196.91c7,0,7.3,11.33,7.3,11.33h1.77a22.1,22.1,0,0,1,1-5.66c1-2.83,2.79-5.66,6.27-5.66Z"/><path d="M114,218.14c4-3.95,4-9.9,4-9.9h1.77s0,6.07,3.85,9.91"/><path d="M114.82,205.43c4,3.95,9.9,3.95,9.9,3.95v1.78s-6.06,0-9.91,3.85"/><path d="M122.76,205.4c-4,3.95-9.9,3.95-9.9,3.95l0,1.78s6.07,0,9.92,3.85"/><path d="M16.16,16.21a2.57,2.57,0,0,1,1.47,1.58,8.59,8.59,0,0,1,.5,3.23,7.23,7.23,0,0,1-.84,3.83,2.71,2.71,0,0,1-2.42,1.33,2.72,2.72,0,0,1-2.43-1.33A7.23,7.23,0,0,1,11.6,21a8.79,8.79,0,0,1,.5-3.23,2.57,2.57,0,0,1,1.45-1.58,2.72,2.72,0,0,1-1.25-1.46,6.84,6.84,0,0,1-.42-2.59,6.61,6.61,0,0,1,.77-3.5,2.47,2.47,0,0,1,2.22-1.2,2.47,2.47,0,0,1,2.21,1.2,6.51,6.51,0,0,1,.77,3.5,6.84,6.84,0,0,1-.42,2.59A2.71,2.71,0,0,1,16.16,16.21ZM16,20.82a12.8,12.8,0,0,0-.25-3.06c-.17-.55-.46-.83-.87-.83s-.71.28-.88.83a12.28,12.28,0,0,0-.25,3.06,12.67,12.67,0,0,0,.25,3.1c.17.57.47.85.88.85s.69-.28.86-.85A12.53,12.53,0,0,0,16,20.82Zm-.22-8.61a11.68,11.68,0,0,0-.2-2.63q-.21-.72-.69-.72c-.33,0-.57.24-.7.72A11.85,11.85,0,0,0,14,12.21a11.47,11.47,0,0,0,.19,2.6c.13.48.37.71.7.71s.55-.23.69-.71A11.3,11.3,0,0,0,15.76,12.21Z"/><path d="M150.26,226a2.55,2.55,0,0,1-1.47-1.58,8.6,8.6,0,0,1-.51-3.23,7.21,7.21,0,0,1,.84-3.83,2.88,2.88,0,0,1,4.85,0,7.21,7.21,0,0,1,.84,3.83,8.85,8.85,0,0,1-.49,3.23,2.6,2.6,0,0,1-1.45,1.58,2.76,2.76,0,0,1,1.25,1.46,7,7,0,0,1,.41,2.58,6.57,6.57,0,0,1-.76,3.5,2.64,2.64,0,0,1-4.44,0,6.56,6.56,0,0,1-.77-3.5,6.82,6.82,0,0,1,.42-2.58A2.73,2.73,0,0,1,150.26,226Zm.18-4.61a12.13,12.13,0,0,0,.25,3q.24.84.87.84t.87-.84a12,12,0,0,0,.26-3,12.47,12.47,0,0,0-.26-3.1c-.17-.57-.46-.85-.87-.85s-.7.28-.87.85A12.61,12.61,0,0,0,150.44,221.43Zm.22,8.61a10.94,10.94,0,0,0,.2,2.62q.19.72.69.72t.69-.72a17.2,17.2,0,0,0,0-5.23c-.13-.47-.36-.7-.69-.7s-.56.23-.69.7A10.84,10.84,0,0,0,150.66,230Z"/><path d="M18.1,31.16A2.12,2.12,0,1,1,16,29.11,2.09,2.09,0,0,1,18.1,31.16Z"/><path d="M20.82,35.05a2.12,2.12,0,1,1-2.11-2A2.08,2.08,0,0,1,20.82,35.05Z"/><path d="M15.4,35.06a2,2,0,0,1-.34,1.13,2.13,2.13,0,0,1-1.77.93,2.06,2.06,0,1,1,2.11-2.06Z"/><path d="M18.47,39.05c-1,0-1.6-.85-1.89-1.7a6.41,6.41,0,0,1-.31-1.7h-.54s-.1,3.4-2.19,3.4Z"/><path d="M14.54,32.67a4.66,4.66,0,0,1,1.19,3h.54a4.71,4.71,0,0,1,1.15-3"/><path d="M14.78,36.49a4.66,4.66,0,0,1,3-1.19v-.53a4.68,4.68,0,0,1-3-1.16"/><path d="M17.17,36.5a4.66,4.66,0,0,0-3-1.19v-.53a4.68,4.68,0,0,0,3-1.16"/><path d="M148.24,210.78a2.12,2.12,0,1,1,2.11,2.05A2.08,2.08,0,0,1,148.24,210.78Z"/><path d="M145.51,206.89a2.12,2.12,0,1,1,2.12,2.06A2.09,2.09,0,0,1,145.51,206.89Z"/><path d="M150.93,206.88a2,2,0,0,1,.35-1.13,2.13,2.13,0,0,1,1.77-.93,2.06,2.06,0,1,1-2.12,2.06Z"/><path d="M147.87,202.89c1,0,1.6.85,1.88,1.7a6.68,6.68,0,0,1,.32,1.7h.53s.1-3.4,2.19-3.41Z"/><path d="M151.79,209.27a4.64,4.64,0,0,1-1.19-3h-.53a4.69,4.69,0,0,1-1.15,3"/><path d="M151.56,205.45a4.66,4.66,0,0,1-3,1.19v.53a4.68,4.68,0,0,1,3,1.16"/><path d="M149.17,205.44a4.66,4.66,0,0,0,3,1.19v.53a4.68,4.68,0,0,0-3,1.16"/></g></svg>