<svg id="Слой_1" data-name="Слой 1" xmlns="http://www.w3.org/2000/svg" viewBox="0 0 167.09 242.67"><defs><style>.cls-1{fill:#fff;stroke:#000;stroke-width:0.5px;}.cls-2{fill:#e61408;}</style></defs><title>11</title><g id="Layer_1"><path class="cls-1" d="M166.84,235.54a6.9,6.9,0,0,1-6.87,6.88H7.11a6.89,6.89,0,0,1-6.86-6.88V7.12A6.89,6.89,0,0,1,7.11.25H160a6.89,6.89,0,0,1,6.87,6.87Z"/><path class="cls-2" d="M48.58,29.71H33s2.43.5,9.26-6.05,6.34-10.08,6.34-10.08M33,29.71s3.41-.5,9.75,6.55,5.85,9.57,5.85,9.57V29.71m0,16.12s-.49-3.52,6.33-10.07,9.27-6,9.27-6H48.58m15.6,0s-3.42.5-9.75-6.55-5.85-9.58-5.85-9.58V29.71"/><path class="cls-2" d="M117.8,13.36s-.48,3.53,6.34,10.08,9.26,6,9.26,6H117.8m0,0V45.61s-.48-2.52,5.85-9.57,9.75-6.55,9.75-6.55m-15.6,0H102.2s2.44-.51,9.27,6,6.33,10.08,6.33,10.08m0-16.12V13.36s.49,2.52-5.85,9.58-9.75,6.55-9.75,6.55"/><path class="cls-2" d="M48.29,228.41s.49-3.53-6.34-10.08-9.26-6.05-9.26-6.05h15.6m0,0V196.16s.49,2.52-5.85,9.57-9.75,6.55-9.75,6.55m15.6,0h15.6s-2.44.51-9.26-6-6.34-10.08-6.34-10.08m0,16.12v16.13s-.49-2.52,5.85-9.58,9.75-6.55,9.75-6.55"/><path class="cls-2" d="M117.52,212.51h15.6s-2.44-.51-9.26,6-6.34,10.08-6.34,10.08m15.6-16.12s-3.41.5-9.75-6.55-5.85-9.58-5.85-9.58v16.13m0-16.13s.49,3.53-6.34,10.08-9.26,6-9.26,6h15.6m-15.6,0s3.41-.51,9.75,6.55,5.85,9.57,5.85,9.57V212.51"/><path class="cls-2" d="M48.57,89.47H33s2.44.5,9.26-6,6.34-10.07,6.34-10.07M33,89.47S36.38,89,42.72,96s5.85,9.57,5.85,9.57V89.47m0,16.12s-.49-3.52,6.34-10.07,9.26-6,9.26-6H48.57m15.6,0s-3.41.5-9.75-6.55-5.85-9.57-5.85-9.57V89.47"/><path class="cls-2" d="M117.8,73.12s-.49,3.53,6.34,10.08,9.26,6,9.26,6H117.8m0,0v16.12s-.49-2.52,5.85-9.57,9.75-6.55,9.75-6.55m-15.6,0H102.2s2.44-.51,9.26,6,6.34,10.08,6.34,10.08m0-16.12V73.12s.48,2.52-5.85,9.58-9.75,6.55-9.75,6.55"/><path class="cls-2" d="M48.49,168.66s.49-3.53-6.34-10.08-9.26-6-9.26-6h15.6m0,0V136.41s.49,2.52-5.85,9.58-9.75,6.55-9.75,6.55m15.6,0h15.6s-2.44.5-9.26-6-6.34-10.08-6.34-10.08m0,16.13v16.12s-.49-2.52,5.85-9.57,9.75-6.55,9.75-6.55"/><path class="cls-2" d="M117.72,152.76h15.6s-2.44-.5-9.27,6.05-6.33,10.07-6.33,10.07m15.6-16.12s-3.42.5-9.75-6.55-5.85-9.57-5.85-9.57v16.12m0-16.12s.48,3.52-6.34,10.07-9.26,6-9.26,6h15.6m-15.6,0s3.41-.5,9.75,6.55,5.85,9.57,5.85,9.57V152.76"/><path class="cls-2" d="M16.23,16.37A2.57,2.57,0,0,1,17.7,18a8.57,8.57,0,0,1,.51,3.23A7.17,7.17,0,0,1,17.37,25a2.7,2.7,0,0,1-2.43,1.33A2.69,2.69,0,0,1,12.52,25a7.17,7.17,0,0,1-.84-3.82A8.81,8.81,0,0,1,12.17,18a2.62,2.62,0,0,1,1.45-1.59,2.74,2.74,0,0,1-1.25-1.45A7.06,7.06,0,0,1,12,12.33a6.59,6.59,0,0,1,.76-3.5,2.48,2.48,0,0,1,2.22-1.21,2.51,2.51,0,0,1,2.22,1.21,6.58,6.58,0,0,1,.77,3.5,6.84,6.84,0,0,1-.42,2.59A2.71,2.71,0,0,1,16.23,16.37ZM16.05,21a12.24,12.24,0,0,0-.25-3.05q-.24-.84-.87-.84t-.87.84A12.11,12.11,0,0,0,13.8,21a12.47,12.47,0,0,0,.26,3.1c.17.57.46.86.87.86s.7-.29.87-.86A12.61,12.61,0,0,0,16.05,21Zm-.22-8.6a11,11,0,0,0-.2-2.63Q15.43,9,14.94,9t-.69.72a11.61,11.61,0,0,0-.2,2.63,11.36,11.36,0,0,0,.2,2.6c.13.47.36.71.69.71s.56-.24.69-.71A10.8,10.8,0,0,0,15.83,12.38Z"/><path class="cls-2" d="M150.33,226.21a2.59,2.59,0,0,1-1.47-1.59,8.57,8.57,0,0,1-.51-3.23,7.18,7.18,0,0,1,.85-3.82,2.88,2.88,0,0,1,4.85,0,7.19,7.19,0,0,1,.84,3.82,8.79,8.79,0,0,1-.5,3.23,2.59,2.59,0,0,1-1.45,1.59,2.7,2.7,0,0,1,1.25,1.45,6.89,6.89,0,0,1,.41,2.59,6.57,6.57,0,0,1-.76,3.5,2.63,2.63,0,0,1-4.43,0,6.47,6.47,0,0,1-.77-3.5,6.88,6.88,0,0,1,.42-2.59A2.69,2.69,0,0,1,150.33,226.21Zm.18-4.61a12.76,12.76,0,0,0,.25,3.05q.26.84.87.84c.41,0,.71-.28.88-.84a12.24,12.24,0,0,0,.25-3.05,12.61,12.61,0,0,0-.25-3.1c-.17-.57-.47-.86-.88-.86s-.69.29-.86.86A12.47,12.47,0,0,0,150.51,221.6Zm.22,8.6a11.61,11.61,0,0,0,.2,2.63q.21.72.69.72c.33,0,.57-.24.7-.72a11.79,11.79,0,0,0,.19-2.63,11.53,11.53,0,0,0-.19-2.6c-.13-.47-.37-.71-.7-.71s-.55.24-.69.71A11.36,11.36,0,0,0,150.73,230.2Z"/><path class="cls-2" d="M16.3,34.06h-5s.79.16,3-2,2.05-3.26,2.05-3.26m-5,5.22s1.1-.17,3.15,2.11,1.89,3.1,1.89,3.1V34.06m0,5.21s-.16-1.14,2.05-3.26,3-1.95,3-1.95h-5m5,0s-1.1.16-3.15-2.12-1.89-3.1-1.89-3.1v5.22"/><path class="cls-2" d="M150.73,208.14h5s-.79-.16-3,2-2.05,3.26-2.05,3.26m5-5.21s-1.1.16-3.15-2.12-1.89-3.09-1.89-3.09v5.21m0-5.21s.16,1.14-2,3.26-3,1.95-3,1.95h5m-5,0s1.1-.16,3.15,2.12,1.89,3.09,1.89,3.09v-5.21"/></g></svg>