<svg id="Слой_1" data-name="Слой 1" xmlns="http://www.w3.org/2000/svg" viewBox="0 0 167.09 242.67"><defs><style>.cls-1{fill:#fff;stroke:#000;stroke-width:0.5px;}</style></defs><title>12</title><g id="Layer_1"><path class="cls-1" d="M166.84,235.55a6.89,6.89,0,0,1-6.87,6.87H7.11a6.89,6.89,0,0,1-6.86-6.87V7.12A6.89,6.89,0,0,1,7.11.25H160a6.89,6.89,0,0,1,6.87,6.87Z"/><path d="M57,46.11c-3.48,0-5.31-3.71-6.27-7.41a37.4,37.4,0,0,1-1-7.43l-1.78,0S47.56,46.1,40.6,46.11Z"/><path d="M62.88,31.27C62.85,24,52,18.77,48.82,13c-3.18,5.73-14,11-14.06,18.23,0,3.42,3.15,6.19,7,6.19s7-2.77,7-6.19c0,3.42,3.15,6.19,7,6.19S62.88,34.69,62.88,31.27Z"/><path d="M126.69,46.11c-3.47,0-5.3-3.71-6.27-7.41a38.28,38.28,0,0,1-1-7.43l-1.77,0s-.33,14.85-7.29,14.86Z"/><path d="M132.58,31.27c0-7.24-10.87-12.5-14.06-18.23-3.18,5.73-14,11-14,18.23,0,3.42,3.15,6.19,7,6.19s7-2.77,7-6.19c0,3.42,3.15,6.19,7,6.19S132.58,34.69,132.58,31.27Z"/><path d="M57,106c-3.48,0-5.31-3.71-6.27-7.41a37.4,37.4,0,0,1-1-7.43l-1.78,0S47.56,106,40.6,106Z"/><path d="M62.88,91.15c0-7.24-10.88-12.5-14.06-18.23-3.18,5.73-14,11-14.06,18.23,0,3.42,3.15,6.19,7,6.19s7-2.77,7-6.19c0,3.42,3.15,6.19,7,6.19S62.88,94.57,62.88,91.15Z"/><path d="M126.23,106c-3.48,0-5.31-3.71-6.27-7.41a37.86,37.86,0,0,1-1.06-7.43l-1.77,0S116.8,106,109.84,106Z"/><path d="M132.11,91.15c0-7.24-10.87-12.5-14.05-18.23-3.18,5.73-14,11-14.06,18.23,0,3.42,3.15,6.19,7,6.19s7-2.77,7-6.19c0,3.42,3.15,6.19,7,6.19S132.11,94.57,132.11,91.15Z"/><path d="M40.13,136.68c7,0,7.29,14.85,7.29,14.85l1.78,0a37.26,37.26,0,0,1,1-7.42c1-3.71,2.79-7.42,6.27-7.42Z"/><path d="M62.41,151.52c0,7.24-10.87,12.49-14.06,18.22-3.18-5.73-14-11-14.06-18.22,0-3.42,3.15-6.19,7-6.19s7,2.77,7,6.19c0-3.42,3.15-6.19,7-6.19S62.41,148.1,62.41,151.52Z"/><path d="M109.84,136.68c7,0,7.29,14.85,7.29,14.85l1.77,0a36.85,36.85,0,0,1,1.06-7.42c1-3.71,2.79-7.42,6.27-7.42Z"/><path d="M132.11,151.52c0,7.24-10.87,12.49-14.05,18.22-3.19-5.73-14-11-14.06-18.22,0-3.42,3.15-6.19,7-6.19s7,2.77,7,6.19c0-3.42,3.14-6.19,7-6.19S132.11,148.1,132.11,151.52Z"/><path d="M40.6,196.79c7,0,7.29,14.86,7.29,14.86l1.78,0a37.4,37.4,0,0,1,1-7.43c1-3.7,2.79-7.42,6.27-7.41Z"/><path d="M62.88,211.63c0,7.24-10.88,12.5-14.06,18.23-3.18-5.73-14-11-14.06-18.23,0-3.42,3.15-6.19,7-6.19s7,2.77,7,6.19c0-3.42,3.15-6.19,7-6.19S62.88,208.21,62.88,211.63Z"/><path d="M110.31,196.79c7,0,7.29,14.86,7.29,14.86l1.77,0a37.4,37.4,0,0,1,1-7.43c1-3.7,2.79-7.42,6.27-7.41Z"/><path d="M132.58,211.63c0,7.24-10.87,12.5-14.06,18.23-3.18-5.73-14-11-14-18.23,0-3.42,3.14-6.19,7-6.19s7,2.77,7,6.19c0-3.42,3.15-6.19,7-6.19S132.58,208.21,132.58,211.63Z"/><path d="M16.35,16.16a2.61,2.61,0,0,1,1.48,1.59,8.79,8.79,0,0,1,.5,3.23,7.19,7.19,0,0,1-.84,3.82,2.7,2.7,0,0,1-2.43,1.33,2.69,2.69,0,0,1-2.42-1.33A7.19,7.19,0,0,1,11.8,21a8.59,8.59,0,0,1,.5-3.23,2.57,2.57,0,0,1,1.45-1.59,2.66,2.66,0,0,1-1.25-1.45,6.84,6.84,0,0,1-.42-2.59,6.57,6.57,0,0,1,.76-3.5,2.48,2.48,0,0,1,2.22-1.21,2.49,2.49,0,0,1,2.22,1.21,6.56,6.56,0,0,1,.77,3.5,6.84,6.84,0,0,1-.42,2.59A2.71,2.71,0,0,1,16.35,16.16Zm-.18,4.61a12.19,12.19,0,0,0-.25-3.05q-.24-.84-.87-.84t-.87.84a12.05,12.05,0,0,0-.26,3.05,12.47,12.47,0,0,0,.26,3.1c.17.57.46.86.87.86s.7-.29.87-.86A12.61,12.61,0,0,0,16.17,20.77ZM16,12.17a11,11,0,0,0-.2-2.63q-.2-.72-.69-.72t-.69.72a11.61,11.61,0,0,0-.2,2.63,11.36,11.36,0,0,0,.2,2.6c.13.47.36.71.69.71s.56-.24.69-.71A10.8,10.8,0,0,0,16,12.17Z"/><path d="M150.45,226a2.62,2.62,0,0,1-1.47-1.59,8.79,8.79,0,0,1-.5-3.23,7.19,7.19,0,0,1,.84-3.82,2.88,2.88,0,0,1,4.85,0,7.19,7.19,0,0,1,.84,3.82,8.79,8.79,0,0,1-.5,3.23,2.59,2.59,0,0,1-1.45,1.59,2.7,2.7,0,0,1,1.25,1.45,6.84,6.84,0,0,1,.42,2.59,6.58,6.58,0,0,1-.77,3.5,2.63,2.63,0,0,1-4.43,0,6.58,6.58,0,0,1-.77-3.5,6.84,6.84,0,0,1,.42-2.59A2.73,2.73,0,0,1,150.45,226Zm.18-4.62a12.8,12.8,0,0,0,.25,3.06q.26.84.87.84c.42,0,.71-.28.88-.84a12.28,12.28,0,0,0,.25-3.06,12.57,12.57,0,0,0-.25-3.09c-.17-.57-.46-.86-.88-.86s-.69.29-.86.86A12.43,12.43,0,0,0,150.63,221.38Zm.22,8.61a11,11,0,0,0,.21,2.63c.13.48.36.72.68.72s.57-.24.7-.72a11.85,11.85,0,0,0,.19-2.63,11.53,11.53,0,0,0-.19-2.6c-.13-.47-.37-.71-.7-.71s-.55.24-.68.71A10.65,10.65,0,0,0,150.85,230Z"/><path d="M19.06,39.28c-1.09,0-1.67-1.16-2-2.33a11.94,11.94,0,0,1-.33-2.34H16.2s-.1,4.68-2.29,4.68Z"/><path d="M20.92,34.61c0-2.28-3.43-3.94-4.43-5.74-1,1.8-4.41,3.46-4.42,5.74a2.08,2.08,0,0,0,2.21,2,2.09,2.09,0,0,0,2.21-2,2.09,2.09,0,0,0,2.22,2A2.09,2.09,0,0,0,20.92,34.61Z"/><path d="M148.05,203c1.1,0,1.67,1.17,2,2.33a11.53,11.53,0,0,1,.34,2.34h.55s.11-4.68,2.3-4.68Z"/><path d="M146.2,207.62c0,2.28,3.42,3.94,4.42,5.74,1-1.8,4.42-3.46,4.43-5.74a2.23,2.23,0,0,0-4.43,0,2.23,2.23,0,0,0-4.42,0Z"/></g></svg>