<svg id="Слой_1" data-name="Слой 1" xmlns="http://www.w3.org/2000/svg" viewBox="0 0 167.09 242.67"><defs><style>.cls-1{fill:#fff;stroke:#000;stroke-width:0.5px;}.cls-2{fill:#e61408;}</style></defs><title>13</title><g id="Layer_1"><path class="cls-1" d="M166.84,235.55a6.89,6.89,0,0,1-6.87,6.87H7.11a6.89,6.89,0,0,1-6.86-6.87V7.12A6.89,6.89,0,0,1,7.11.25H160a6.89,6.89,0,0,1,6.87,6.87Z"/><path class="cls-2" d="M33.18,21.91c0,9.58,12,16.55,15.54,24.14C52.27,38.48,64.31,31.57,64.37,22a7.8,7.8,0,1,0-15.59,0,7.81,7.81,0,1,0-15.6,0Z"/><path class="cls-2" d="M33.18,81.7c0,9.58,12,16.55,15.54,24.14,3.55-7.57,15.59-14.48,15.65-24.06a7.8,7.8,0,1,0-15.59,0A8,8,0,0,0,41,73.53,8,8,0,0,0,33.18,81.7Z"/><path class="cls-2" d="M33.18,220.76c0-9.58,12-16.55,15.54-24.14,3.55,7.57,15.59,14.49,15.65,24.06a7.8,7.8,0,1,1-15.59,0,7.81,7.81,0,1,1-15.6,0Z"/><path class="cls-2" d="M33.18,161c0-9.58,12-16.56,15.54-24.14,3.55,7.56,15.59,14.48,15.65,24.06a7.8,7.8,0,1,1-15.59,0,7.81,7.81,0,1,1-15.6,0Z"/><path class="cls-2" d="M133.91,21.91c0,9.58-12,16.55-15.54,24.14-3.54-7.57-15.59-14.48-15.65-24.06a7.81,7.81,0,1,1,15.6,0,7.8,7.8,0,1,1,15.59,0Z"/><path class="cls-2" d="M133.91,81.7c0,9.58-12,16.55-15.54,24.14-3.54-7.57-15.59-14.48-15.65-24.06a7.81,7.81,0,1,1,15.6,0,7.8,7.8,0,1,1,15.59,0Z"/><path class="cls-2" d="M133.91,220.76c0-9.58-12-16.55-15.54-24.14-3.54,7.57-15.59,14.49-15.65,24.06a7.81,7.81,0,1,0,15.6,0,7.8,7.8,0,1,0,15.59,0Z"/><path class="cls-2" d="M133.91,161c0-9.58-12-16.56-15.54-24.14-3.54,7.56-15.59,14.48-15.65,24.06a7.81,7.81,0,1,0,15.6,0,7.8,7.8,0,1,0,15.59,0Z"/><path class="cls-2" d="M69.82,113.51c0,9.58,12,16.55,15.53,24.14,3.56-7.57,15.6-14.48,15.66-24.06a7.8,7.8,0,1,0-15.59,0,7.81,7.81,0,1,0-15.6,0Z"/><path class="cls-2" d="M16.12,18.69a3,3,0,0,1-.8,1,1.53,1.53,0,0,1-.94.32c-.82,0-1.46-.53-1.93-1.61a11.41,11.41,0,0,1-.71-4.46,10.76,10.76,0,0,1,.79-4.62,2.44,2.44,0,0,1,2.25-1.62c1.11,0,1.94.75,2.51,2.24a19.22,19.22,0,0,1,.86,6.55,22.13,22.13,0,0,1-.95,7.42c-.63,1.68-1.57,2.51-2.81,2.51a3.4,3.4,0,0,1-1-.18,6.21,6.21,0,0,1-1.2-.54V22.47h.65a4.89,4.89,0,0,0,.52,1.87,1.11,1.11,0,0,0,1,.63q1,0,1.38-1.47A19.17,19.17,0,0,0,16.12,18.69ZM14.91,9.07c-.38,0-.64.35-.8,1.06a19,19,0,0,0-.24,3.67,19.12,19.12,0,0,0,.24,3.68c.16.7.42,1.06.8,1.06s.65-.36.81-1.06A19.12,19.12,0,0,0,16,13.8a19,19,0,0,0-.24-3.67C15.56,9.42,15.29,9.07,14.91,9.07Z"/><path class="cls-2" d="M150.51,224a3,3,0,0,1,.8-1,1.59,1.59,0,0,1,.94-.32c.82,0,1.46.54,1.93,1.62a11.35,11.35,0,0,1,.71,4.45,10.76,10.76,0,0,1-.79,4.62,2.44,2.44,0,0,1-2.25,1.62c-1.11,0-1.94-.74-2.51-2.23a19.26,19.26,0,0,1-.86-6.55,22.2,22.2,0,0,1,1-7.43c.63-1.67,1.57-2.51,2.81-2.51a3.4,3.4,0,0,1,1,.18,7.62,7.62,0,0,1,1.2.54v3.19h-.65a4.89,4.89,0,0,0-.52-1.86,1.11,1.11,0,0,0-1-.64c-.64,0-1.1.49-1.39,1.48A19.75,19.75,0,0,0,150.51,224Zm1.21,9.63c.38,0,.64-.36.8-1.06a28.26,28.26,0,0,0,0-7.35c-.16-.71-.42-1.06-.8-1.06s-.65.35-.81,1.06a28.26,28.26,0,0,0,0,7.35C151.07,233.23,151.34,233.59,151.72,233.59Z"/><path class="cls-2" d="M11.57,31.61c0,2.87,3.61,5,4.66,7.24,1.07-2.27,4.68-4.34,4.7-7.22a2.34,2.34,0,1,0-4.68,0,2.34,2.34,0,1,0-4.68,0Z"/><path class="cls-2" d="M155,210.91c0-2.88-3.6-5-4.66-7.24-1.06,2.27-4.68,4.34-4.7,7.21a2.34,2.34,0,1,0,4.68,0,2.34,2.34,0,1,0,4.68,0Z"/></g></svg>