<svg id="Слой_1" data-name="Слой 1" xmlns="http://www.w3.org/2000/svg" viewBox="0 0 167.09 242.67"><defs><style>.cls-1{fill:#fff;stroke:#000;stroke-width:0.5px;}</style></defs><title>14</title><g id="Layer_1"><path class="cls-1" d="M166.84,235.55a6.89,6.89,0,0,1-6.87,6.87H7.11a6.89,6.89,0,0,1-6.86-6.87V7.12A6.89,6.89,0,0,1,7.11.25H160a6.89,6.89,0,0,1,6.87,6.87Z"/><path d="M126,19.92a7.05,7.05,0,0,1-14.1,0,7.05,7.05,0,0,1,14.1,0Z"/><path d="M135.07,32.85A7,7,0,1,1,128,26,6.95,6.95,0,0,1,135.07,32.85Z"/><path d="M117,32.9a6.62,6.62,0,0,1-1.15,3.74A7.09,7.09,0,0,1,110,39.73a6.83,6.83,0,1,1,7-6.83Z"/><path d="M127.21,46.16c-3.48,0-5.31-2.83-6.27-5.65a22.14,22.14,0,0,1-1-5.67h-1.77s-.34,11.32-7.29,11.33Z"/><path d="M114.16,24.93c4,4,4,9.9,4,9.9h1.77s0-6.06,3.85-9.91"/><path d="M115,37.65c4-4,9.9-4,9.9-4V31.91s-6.06,0-9.91-3.84"/><path d="M122.89,37.68c-4-4-9.9-4-9.9-4V31.94s6.06,0,9.91-3.84"/><path d="M55.24,19.92a7,7,0,0,1-14.09,0,7,7,0,0,1,14.09,0Z"/><path d="M64.32,32.85a7,7,0,1,1-7-6.83A6.95,6.95,0,0,1,64.32,32.85Z"/><path d="M46.27,32.9a6.62,6.62,0,0,1-1.15,3.74,7.09,7.09,0,0,1-5.89,3.09,6.83,6.83,0,1,1,7-6.83Z"/><path d="M56.46,46.16c-3.48,0-5.31-2.83-6.27-5.65a22.14,22.14,0,0,1-1-5.67H47.37S47,46.15,40.08,46.16Z"/><path d="M43.41,24.93c4,4,4,9.9,4,9.9h1.77s0-6.06,3.85-9.91"/><path d="M44.2,37.65c4-4,9.9-4,9.9-4V31.91s-6.06,0-9.91-3.84"/><path d="M52.14,37.68c-4-4-9.9-4-9.9-4V31.94s6.06,0,9.91-3.84"/><path d="M55.74,79.67a7,7,0,1,1-7-6.83A6.94,6.94,0,0,1,55.74,79.67Z"/><path d="M64.82,92.6a7,7,0,1,1-7-6.83A6.95,6.95,0,0,1,64.82,92.6Z"/><path d="M46.77,92.65a6.62,6.62,0,0,1-1.15,3.74,7.09,7.09,0,0,1-5.89,3.09,6.83,6.83,0,1,1,7-6.83Z"/><path d="M57,105.91c-3.48,0-5.31-2.83-6.27-5.65a22.14,22.14,0,0,1-1-5.67H47.87s-.34,11.32-7.29,11.33Z"/><path d="M43.91,84.68c4,4,4,9.9,4,9.9h1.77s0-6.06,3.85-9.91"/><path d="M44.7,97.4c4-4,9.9-4,9.9-4V91.66s-6.06,0-9.91-3.84"/><path d="M52.64,97.43c-4-4-9.9-4-9.9-4V91.69s6.06,0,9.91-3.84"/><path d="M125.75,79.67a7.05,7.05,0,1,1-7-6.83A6.95,6.95,0,0,1,125.75,79.67Z"/><path d="M134.82,92.6a7,7,0,1,1-7-6.83A6.95,6.95,0,0,1,134.82,92.6Z"/><path d="M116.77,92.65a6.62,6.62,0,0,1-1.15,3.74,7.09,7.09,0,0,1-5.89,3.09,6.83,6.83,0,1,1,7-6.83Z"/><path d="M127,105.91c-3.48,0-5.31-2.83-6.27-5.65a22.14,22.14,0,0,1-1-5.67h-1.77s-.34,11.32-7.29,11.33Z"/><path d="M113.91,84.68c4,4,4,9.9,4,9.9h1.77s0-6.06,3.85-9.91"/><path d="M114.7,97.4c4-4,9.9-4,9.9-4V91.66s-6.06,0-9.91-3.84"/><path d="M122.64,97.43c-4-4-9.9-4-9.9-4V91.69s6.06,0,9.91-3.84"/><path d="M93.25,111.67a7.05,7.05,0,1,1-7-6.83A6.95,6.95,0,0,1,93.25,111.67Z"/><path d="M102.32,124.6a7,7,0,1,1-7-6.83A6.95,6.95,0,0,1,102.32,124.6Z"/><path d="M84.27,124.65a6.62,6.62,0,0,1-1.15,3.74,7.09,7.09,0,0,1-5.89,3.09,6.83,6.83,0,1,1,7-6.83Z"/><path d="M94.46,137.91c-3.48,0-5.31-2.82-6.27-5.65a22.14,22.14,0,0,1-1-5.67H85.37S85,137.9,78.08,137.91Z"/><path d="M81.41,116.68c4,4,4,9.9,4,9.9h1.77s0-6.06,3.85-9.91"/><path d="M82.2,129.4c4-4,9.9-4,9.9-4v-1.78s-6.06,0-9.91-3.84"/><path d="M90.14,129.43c-4-4-9.9-4-9.9-4v-1.78s6.06,0,9.91-3.84"/><path d="M55.56,163.17a7,7,0,1,0-7,6.83A6.94,6.94,0,0,0,55.56,163.17Z"/><path d="M64.64,150.24a7.05,7.05,0,1,0-7,6.83A6.95,6.95,0,0,0,64.64,150.24Z"/><path d="M46.59,150.19a6.65,6.65,0,0,0-1.15-3.75,7.1,7.1,0,0,0-5.89-3.09,6.84,6.84,0,1,0,7,6.84Z"/><path d="M40.4,136.93c7,0,7.29,11.33,7.29,11.33l1.77,0a22.1,22.1,0,0,1,1-5.66c1-2.83,2.79-5.66,6.27-5.66Z"/><path d="M43.73,158.15c4-4,4-9.89,4-9.89l1.77,0s0,6.07,3.85,9.91"/><path d="M44.52,145.44c4,4,9.9,4,9.9,4v1.77s-6.06,0-9.91,3.85"/><path d="M52.46,145.41c-4,4-9.9,4-9.9,4l0,1.77s6.07,0,9.92,3.85"/><path d="M125.78,163.17a7,7,0,1,0-7,6.83A6.94,6.94,0,0,0,125.78,163.17Z"/><path d="M134.85,150.24a7,7,0,1,0-7,6.83A6.94,6.94,0,0,0,134.85,150.24Z"/><path d="M116.81,150.19a6.65,6.65,0,0,0-1.15-3.75,7.1,7.1,0,0,0-5.89-3.09,6.84,6.84,0,1,0,7,6.84Z"/><path d="M110.61,136.93c7,0,7.3,11.33,7.3,11.33l1.77,0a22.1,22.1,0,0,1,1-5.66c1-2.83,2.79-5.66,6.27-5.66Z"/><path d="M114,158.15c4-4,4-9.89,4-9.89l1.77,0s0,6.07,3.85,9.91"/><path d="M114.74,145.44c4,4,9.9,4,9.9,4v1.77s-6.07,0-9.91,3.85"/><path d="M122.68,145.41c-4,4-9.9,4-9.9,4l0,1.77s6.07,0,9.92,3.85"/><path d="M55.33,223.16a7,7,0,1,0-7,6.83A6.94,6.94,0,0,0,55.33,223.16Z"/><path d="M64.4,210.23a7,7,0,1,0-7,6.83A6.94,6.94,0,0,0,64.4,210.23Z"/><path d="M46.36,210.18a6.65,6.65,0,0,0-1.15-3.75,7.1,7.1,0,0,0-5.9-3.09,6.84,6.84,0,1,0,7,6.84Z"/><path d="M40.16,196.91c7,0,7.29,11.33,7.29,11.33h1.78a22.1,22.1,0,0,1,1.05-5.66c1-2.83,2.79-5.66,6.27-5.66Z"/><path d="M43.5,218.14c4-3.95,4-9.9,4-9.9h1.78s0,6.07,3.84,9.91"/><path d="M44.29,205.43c4,3.95,9.9,3.95,9.9,3.95v1.78s-6.07,0-9.91,3.85"/><path d="M52.22,205.4c-3.95,3.95-9.9,3.95-9.9,3.95v1.78s6.07,0,9.91,3.85"/><path d="M126.94,219a7,7,0,1,0-7,6.83A6.93,6.93,0,0,0,126.94,219Z"/><path d="M136,206a7,7,0,1,0-7.05,6.83A6.95,6.95,0,0,0,136,206Z"/><path d="M118,206a6.69,6.69,0,0,0-1.15-3.74,7.1,7.1,0,0,0-5.9-3.09,6.83,6.83,0,1,0,7,6.83Z"/><path d="M111.78,192.73c7,0,7.29,11.33,7.29,11.33l1.77,0a22.1,22.1,0,0,1,1-5.66c1-2.83,2.79-5.66,6.27-5.65Z"/><path d="M115.11,214c4-4,4-9.9,4-9.9l1.77,0s0,6.07,3.85,9.92"/><path d="M115.9,201.24c4,4,9.9,4,9.9,4l0,1.77s-6.07,0-9.92,3.85"/><path d="M123.84,201.21c-4,4-9.9,4-9.9,4l0,1.77s6.07,0,9.92,3.85"/><path d="M16,18.49a2.92,2.92,0,0,1-.8,1,1.57,1.57,0,0,1-.94.32c-.81,0-1.46-.54-1.93-1.61a11.46,11.46,0,0,1-.7-4.46,10.93,10.93,0,0,1,.78-4.62,2.47,2.47,0,0,1,2.26-1.62c1.1,0,1.94.74,2.51,2.23A19.3,19.3,0,0,1,18,16.24a22.24,22.24,0,0,1-.94,7.43c-.63,1.67-1.57,2.51-2.82,2.51a3.4,3.4,0,0,1-1-.18,6.8,6.8,0,0,1-1.2-.54V22.27h.66a4.83,4.83,0,0,0,.52,1.87,1.11,1.11,0,0,0,1,.63c.63,0,1.09-.49,1.38-1.48A19.75,19.75,0,0,0,16,18.49Zm-1.2-9.63c-.38,0-.65.36-.81,1.06a19.19,19.19,0,0,0-.24,3.68A19,19,0,0,0,14,17.27c.16.71.43,1.06.81,1.06s.64-.35.8-1.06a19,19,0,0,0,.24-3.67,19.19,19.19,0,0,0-.24-3.68C15.41,9.22,15.15,8.86,14.77,8.86Z"/><path d="M150.37,223.76a2.92,2.92,0,0,1,.8-1,1.51,1.51,0,0,1,.94-.32c.81,0,1.46.54,1.93,1.61a11.43,11.43,0,0,1,.7,4.46,10.93,10.93,0,0,1-.78,4.62,2.47,2.47,0,0,1-2.26,1.62c-1.1,0-1.94-.75-2.51-2.24a19.26,19.26,0,0,1-.85-6.55,22.18,22.18,0,0,1,.94-7.42c.63-1.67,1.57-2.51,2.81-2.51a3.46,3.46,0,0,1,1,.18,6.8,6.8,0,0,1,1.2.54V220h-.66a5,5,0,0,0-.52-1.87,1.11,1.11,0,0,0-1-.63c-.63,0-1.09.49-1.38,1.48A19.13,19.13,0,0,0,150.37,223.76Zm1.2,9.62c.38,0,.65-.35.81-1.06a28.26,28.26,0,0,0,0-7.35c-.16-.7-.43-1.06-.81-1.06s-.65.36-.81,1.06a28.26,28.26,0,0,0,0,7.35C150.92,233,151.19,233.38,151.57,233.38Z"/><path d="M18.06,31.16a2.12,2.12,0,1,1-2.12-2.05A2.09,2.09,0,0,1,18.06,31.16Z"/><path d="M20.79,35.05a2.12,2.12,0,1,1-2.12-2A2.09,2.09,0,0,1,20.79,35.05Z"/><path d="M15.36,35.06A2,2,0,0,1,15,36.19a2.13,2.13,0,0,1-1.77.93,2.06,2.06,0,1,1,2.11-2.06Z"/><path d="M18.43,39.05c-1.05,0-1.6-.85-1.89-1.7a6.41,6.41,0,0,1-.31-1.7h-.54s-.1,3.4-2.19,3.4Z"/><path d="M14.5,32.67a4.66,4.66,0,0,1,1.19,3h.54a4.71,4.71,0,0,1,1.15-3"/><path d="M14.74,36.49a4.66,4.66,0,0,1,3-1.19v-.53a4.68,4.68,0,0,1-3-1.16"/><path d="M17.13,36.5a4.66,4.66,0,0,0-3-1.19v-.53a4.68,4.68,0,0,0,3-1.16"/><path d="M148.2,210.78a2.12,2.12,0,1,1,2.12,2.05A2.09,2.09,0,0,1,148.2,210.78Z"/><path d="M145.47,206.89a2.12,2.12,0,1,1,2.12,2.06A2.09,2.09,0,0,1,145.47,206.89Z"/><path d="M150.89,206.88a2,2,0,0,1,.35-1.13,2.13,2.13,0,0,1,1.77-.93,2.06,2.06,0,1,1-2.12,2.06Z"/><path d="M147.83,202.89c1,0,1.6.85,1.89,1.7a6.93,6.93,0,0,1,.31,1.7h.54s.1-3.4,2.19-3.41Z"/><path d="M151.75,209.27a4.66,4.66,0,0,1-1.18-3H150a4.69,4.69,0,0,1-1.15,3"/><path d="M151.52,205.45a4.66,4.66,0,0,1-3,1.19v.53a4.68,4.68,0,0,1,3,1.16"/><path d="M149.13,205.44a4.66,4.66,0,0,0,3,1.19v.53a4.68,4.68,0,0,0-3,1.16"/></g></svg>