<svg id="Слой_1" data-name="Слой 1" xmlns="http://www.w3.org/2000/svg" viewBox="0 0 167.09 242.67"><defs><style>.cls-1{fill:#fff;stroke:#000;stroke-width:0.5px;}.cls-2{fill:#e61408;}</style></defs><title>15</title><g id="Layer_1"><path class="cls-1" d="M166.84,235.54a6.9,6.9,0,0,1-6.87,6.88H7.11a6.89,6.89,0,0,1-6.86-6.88V7.12A6.89,6.89,0,0,1,7.11.25H160a6.89,6.89,0,0,1,6.87,6.87Z"/><path class="cls-2" d="M48.54,29.71H32.94s2.44.5,9.26-6.05,6.34-10.08,6.34-10.08M32.94,29.71s3.41-.5,9.75,6.55,5.85,9.57,5.85,9.57V29.71m0,16.12s-.49-3.52,6.34-10.07,9.26-6,9.26-6H48.54m15.6,0s-3.41.5-9.75-6.55-5.85-9.58-5.85-9.58V29.71"/><path class="cls-2" d="M117.77,13.36s-.49,3.53,6.33,10.08,9.27,6,9.27,6h-15.6m0,0V45.61s-.49-2.52,5.85-9.57,9.75-6.55,9.75-6.55m-15.6,0h-15.6s2.43-.51,9.26,6,6.34,10.08,6.34,10.08m0-16.12V13.36s.48,2.52-5.85,9.58-9.75,6.55-9.75,6.55"/><path class="cls-2" d="M48.25,228.41s.49-3.53-6.33-10.08-9.27-6.05-9.27-6.05h15.6m0,0V196.16s.49,2.52-5.85,9.57-9.75,6.55-9.75,6.55m15.6,0h15.6s-2.43.51-9.26-6-6.34-10.08-6.34-10.08m0,16.12v16.13s-.48-2.52,5.85-9.58,9.75-6.55,9.75-6.55"/><path class="cls-2" d="M117.48,212.51h15.6s-2.44-.51-9.26,6-6.34,10.08-6.34,10.08m15.6-16.12s-3.41.5-9.75-6.55-5.85-9.58-5.85-9.58v16.13m0-16.13s.49,3.53-6.34,10.08-9.26,6-9.26,6h15.6m-15.6,0s3.41-.51,9.75,6.55,5.85,9.57,5.85,9.57V212.51"/><path class="cls-2" d="M48.53,89.47H32.93s2.44.5,9.27-6,6.33-10.07,6.33-10.07M32.93,89.47S36.35,89,42.68,96s5.85,9.57,5.85,9.57V89.47m0,16.12s-.48-3.52,6.34-10.07,9.26-6,9.26-6H48.53m15.6,0s-3.41.5-9.75-6.55-5.85-9.57-5.85-9.57V89.47"/><path class="cls-2" d="M117.76,73.12s-.49,3.53,6.34,10.08,9.26,6,9.26,6h-15.6m0,0v16.12s-.49-2.52,5.85-9.57,9.75-6.55,9.75-6.55m-15.6,0h-15.6s2.44-.51,9.26,6,6.34,10.08,6.34,10.08m0-16.12V73.12s.49,2.52-5.85,9.58-9.75,6.55-9.75,6.55"/><path class="cls-2" d="M48.45,168.66s.49-3.53-6.34-10.08-9.26-6-9.26-6h15.6m0,0V136.41s.49,2.52-5.85,9.58-9.75,6.55-9.75,6.55m15.6,0h15.6s-2.44.5-9.26-6-6.34-10.08-6.34-10.08m0,16.13v16.12s-.49-2.52,5.85-9.57,9.75-6.55,9.75-6.55"/><path class="cls-2" d="M117.68,152.76h15.6s-2.44-.5-9.26,6.05-6.34,10.07-6.34,10.07m15.6-16.12s-3.41.5-9.75-6.55-5.85-9.57-5.85-9.57v16.12m0-16.12s.49,3.52-6.34,10.07-9.26,6-9.26,6h15.6m-15.6,0s3.41-.5,9.75,6.55,5.85,9.57,5.85,9.57V152.76"/><path class="cls-2" d="M85.28,121.33H69.68s2.44.5,9.26-6,6.34-10.08,6.34-10.08m-15.6,16.13s3.41-.51,9.75,6.55,5.85,9.57,5.85,9.57V121.33m0,16.12s-.49-3.53,6.34-10.08,9.26-6,9.26-6H85.28m15.6,0s-3.41.5-9.75-6.56-5.85-9.57-5.85-9.57v16.13"/><path class="cls-2" d="M15.89,18.66a3.29,3.29,0,0,1-.8,1,1.59,1.59,0,0,1-.94.32c-.82,0-1.46-.54-1.93-1.62a11.35,11.35,0,0,1-.71-4.45,10.76,10.76,0,0,1,.79-4.62,2.44,2.44,0,0,1,2.25-1.62c1.11,0,1.94.74,2.51,2.23a19.22,19.22,0,0,1,.86,6.55,22.2,22.2,0,0,1-1,7.43c-.63,1.67-1.57,2.5-2.81,2.5a3.4,3.4,0,0,1-1-.18,7.5,7.5,0,0,1-1.2-.53V22.44h.65a4.89,4.89,0,0,0,.52,1.86,1.11,1.11,0,0,0,1,.64c.64,0,1.1-.5,1.38-1.48A19.14,19.14,0,0,0,15.89,18.66ZM14.68,9c-.37,0-.64.35-.8,1.06a19.12,19.12,0,0,0-.24,3.68,19.06,19.06,0,0,0,.24,3.67c.16.71.43,1.06.8,1.06s.65-.35.81-1.06a19.06,19.06,0,0,0,.24-3.67,19.12,19.12,0,0,0-.24-3.68C15.33,9.38,15.06,9,14.68,9Z"/><path class="cls-2" d="M150.29,223.92a3.12,3.12,0,0,1,.79-1,1.6,1.6,0,0,1,.95-.32q1.22,0,1.92,1.62a11.35,11.35,0,0,1,.71,4.45,10.84,10.84,0,0,1-.79,4.63,2.44,2.44,0,0,1-2.25,1.62c-1.11,0-1.94-.75-2.51-2.24a19.22,19.22,0,0,1-.86-6.55,22.24,22.24,0,0,1,.95-7.43c.63-1.67,1.57-2.5,2.81-2.5a3.4,3.4,0,0,1,1,.18,6.21,6.21,0,0,1,1.2.54v3.18h-.65a4.89,4.89,0,0,0-.52-1.86,1.1,1.1,0,0,0-1-.64c-.64,0-1.1.5-1.38,1.48A18.77,18.77,0,0,0,150.29,223.92Zm1.2,9.63c.38,0,.64-.35.8-1.06a27.14,27.14,0,0,0,0-7.35c-.16-.71-.42-1.06-.8-1.06s-.65.35-.81,1.06a28.26,28.26,0,0,0,0,7.35C150.84,233.2,151.11,233.55,151.49,233.55Z"/><path class="cls-2" d="M16.1,34.06h-5s.79.16,3-2,2-3.26,2-3.26m-5,5.22s1.11-.17,3.15,2.11,1.89,3.1,1.89,3.1V34.06m0,5.21s-.15-1.14,2-3.26,3-1.95,3-1.95h-5m5,0S20,34.22,18,31.94s-1.9-3.1-1.9-3.1v5.22"/><path class="cls-2" d="M150.53,208.14h5.05s-.79-.16-3,2-2.05,3.26-2.05,3.26m5.05-5.21s-1.11.16-3.15-2.12-1.9-3.09-1.9-3.09v5.21m0-5.21s.16,1.14-2,3.26-3,1.95-3,1.95h5m-5,0s1.11-.16,3.15,2.12,1.89,3.09,1.89,3.09v-5.21"/></g></svg>