<svg id="Слой_1" data-name="Слой 1" xmlns="http://www.w3.org/2000/svg" viewBox="0 0 167.09 242.67"><defs><style>.cls-1{fill:#fff;stroke:#000;stroke-width:0.5px;}</style></defs><title>16</title><g id="Layer_1"><path class="cls-1" d="M166.84,235.55a6.89,6.89,0,0,1-6.87,6.87H7.11a6.89,6.89,0,0,1-6.86-6.87V7.12A6.89,6.89,0,0,1,7.11.25H160a6.89,6.89,0,0,1,6.87,6.87Z"/><path d="M56.87,46.22c-3.48,0-5.31-3.71-6.27-7.42a37.26,37.26,0,0,1-1.05-7.42l-1.77,0s-.34,14.85-7.3,14.86Z"/><path d="M62.76,31.38c0-7.25-10.87-12.5-14.06-18.23-3.18,5.73-14,11-14.05,18.23,0,3.42,3.14,6.19,7,6.19s7-2.77,7-6.19c0,3.42,3.15,6.19,7,6.19S62.76,34.8,62.76,31.38Z"/><path d="M126.58,46.22c-3.48,0-5.31-3.71-6.27-7.42a37.71,37.71,0,0,1-1.06-7.42l-1.77,0s-.33,14.85-7.29,14.86Z"/><path d="M132.46,31.38c0-7.25-10.87-12.5-14.05-18.23-3.18,5.73-14,11-14.06,18.23,0,3.42,3.15,6.19,7,6.19s7-2.77,7-6.19c0,3.42,3.15,6.19,7,6.19S132.46,34.8,132.46,31.38Z"/><path d="M56.87,106.1c-3.48,0-5.31-3.71-6.27-7.42a37.26,37.26,0,0,1-1.05-7.42l-1.77,0s-.34,14.85-7.3,14.86Z"/><path d="M62.76,91.26C62.73,84,51.89,78.76,48.7,73c-3.18,5.73-14,11-14.05,18.23,0,3.42,3.14,6.19,7,6.19s7-2.77,7-6.19c0,3.42,3.15,6.19,7,6.19S62.76,94.68,62.76,91.26Z"/><path d="M126.11,106.1c-3.48,0-5.31-3.71-6.27-7.42a37.26,37.26,0,0,1-1-7.42l-1.78,0s-.33,14.85-7.29,14.86Z"/><path d="M132,91.26C132,84,121.12,78.76,117.94,73c-3.18,5.73-14,11-14.06,18.23,0,3.42,3.15,6.19,7,6.19s7-2.77,7-6.19c0,3.42,3.15,6.19,7,6.19S132,94.68,132,91.26Z"/><path d="M93.6,137.57c-3.48,0-5.31-3.71-6.27-7.42a37.71,37.71,0,0,1-1.06-7.42l-1.77,0s-.33,14.85-7.29,14.86Z"/><path d="M99.48,122.73c0-7.25-10.87-12.5-14-18.23-3.19,5.73-14,11-14.06,18.23,0,3.42,3.15,6.19,7,6.19s7-2.77,7-6.19c0,3.42,3.14,6.19,7,6.19S99.48,126.15,99.48,122.73Z"/><path d="M40,136.79c6.95,0,7.29,14.86,7.29,14.86l1.77,0a37.26,37.26,0,0,1,1.05-7.42c1-3.71,2.79-7.42,6.27-7.42Z"/><path d="M62.29,151.63c0,7.25-10.87,12.5-14.06,18.23-3.18-5.73-14-11-14-18.23,0-3.42,3.14-6.19,7-6.19s7,2.77,7,6.19c0-3.42,3.15-6.19,7-6.19S62.29,148.21,62.29,151.63Z"/><path d="M109.72,136.79c7,0,7.29,14.86,7.29,14.86l1.78,0a37.26,37.26,0,0,1,1-7.42c1-3.71,2.79-7.42,6.27-7.42Z"/><path d="M132,151.63c0,7.25-10.87,12.5-14.05,18.23-3.18-5.73-14-11-14.06-18.23,0-3.42,3.15-6.19,7-6.19s7,2.77,7,6.19c0-3.42,3.15-6.19,7-6.19S132,148.21,132,151.63Z"/><path d="M40.48,196.91c7,0,7.3,14.85,7.3,14.85l1.77,0a37.26,37.26,0,0,1,1.05-7.42c1-3.71,2.79-7.42,6.27-7.41Z"/><path d="M62.76,211.75c0,7.24-10.87,12.49-14.06,18.22-3.18-5.73-14-11-14.05-18.22,0-3.42,3.14-6.19,7-6.19s7,2.77,7,6.19c0-3.42,3.15-6.19,7-6.19S62.76,208.33,62.76,211.75Z"/><path d="M110.19,196.91c7,0,7.29,14.85,7.29,14.85l1.77,0a37.71,37.71,0,0,1,1.06-7.42c1-3.71,2.79-7.42,6.26-7.41Z"/><path d="M132.46,211.75c0,7.24-10.87,12.49-14.06,18.22-3.18-5.73-14-11-14.05-18.22,0-3.42,3.15-6.19,7-6.19s7,2.77,7,6.19c0-3.42,3.15-6.19,7-6.19S132.46,208.33,132.46,211.75Z"/><path d="M16.06,18.45a3.14,3.14,0,0,1-.8,1,1.57,1.57,0,0,1-.94.32c-.81,0-1.46-.54-1.93-1.62a11.39,11.39,0,0,1-.7-4.46A10.93,10.93,0,0,1,12.47,9a2.46,2.46,0,0,1,2.25-1.62c1.11,0,2,.75,2.52,2.24a19.26,19.26,0,0,1,.85,6.55,22.28,22.28,0,0,1-.94,7.43c-.63,1.67-1.57,2.5-2.82,2.5a3.4,3.4,0,0,1-1-.18,6.8,6.8,0,0,1-1.2-.54V22.23h.66a4.72,4.72,0,0,0,.52,1.86,1.1,1.1,0,0,0,1,.64c.64,0,1.1-.5,1.39-1.48A19.75,19.75,0,0,0,16.06,18.45Zm-1.2-9.63c-.38,0-.65.35-.81,1.06a19.06,19.06,0,0,0-.24,3.67,19.12,19.12,0,0,0,.24,3.68c.16.71.43,1.06.81,1.06s.64-.35.8-1.06a19.12,19.12,0,0,0,.24-3.68,19.06,19.06,0,0,0-.24-3.67C15.5,9.17,15.23,8.82,14.86,8.82Z"/><path d="M150.46,223.71a3.14,3.14,0,0,1,.8-1,1.57,1.57,0,0,1,.94-.32c.81,0,1.45.54,1.93,1.62a11.37,11.37,0,0,1,.7,4.45,10.93,10.93,0,0,1-.78,4.62,2.48,2.48,0,0,1-2.26,1.63c-1.1,0-1.94-.75-2.51-2.24a19.3,19.3,0,0,1-.85-6.55,22.24,22.24,0,0,1,.94-7.43c.63-1.67,1.57-2.5,2.81-2.5a3.41,3.41,0,0,1,1,.18,6.14,6.14,0,0,1,1.2.54v3.18h-.66a4.89,4.89,0,0,0-.52-1.86,1.1,1.1,0,0,0-1-.64c-.63,0-1.09.49-1.38,1.48A19.25,19.25,0,0,0,150.46,223.71Zm1.2,9.63c.38,0,.65-.35.81-1.06a28.26,28.26,0,0,0,0-7.35c-.16-.71-.43-1.06-.81-1.06s-.65.35-.81,1.06a28.26,28.26,0,0,0,0,7.35C151,233,151.28,233.34,151.66,233.34Z"/><path d="M18.92,39.28c-1.1,0-1.67-1.16-2-2.33a11.11,11.11,0,0,1-.33-2.34h-.56s-.11,4.68-2.3,4.68Z"/><path d="M20.77,34.61c0-2.28-3.42-3.94-4.42-5.74-1,1.8-4.42,3.46-4.43,5.74a2.09,2.09,0,0,0,2.22,2,2.09,2.09,0,0,0,2.21-2,2.09,2.09,0,0,0,2.21,2A2.09,2.09,0,0,0,20.77,34.61Z"/><path d="M147.91,203c1.09,0,1.67,1.17,2,2.33a11.94,11.94,0,0,1,.33,2.34h.56s.11-4.68,2.29-4.68Z"/><path d="M146.05,207.62c0,2.28,3.43,3.94,4.43,5.74,1-1.8,4.41-3.46,4.42-5.74a2.23,2.23,0,0,0-4.42,0,2.23,2.23,0,0,0-4.43,0Z"/></g></svg>