<svg id="Слой_1" data-name="Слой 1" xmlns="http://www.w3.org/2000/svg" viewBox="0 0 167.08 242.67"><defs><style>.cls-1{fill:#fff;stroke:#000;stroke-width:0.5px;}.cls-2{fill:#e61408;}</style></defs><title>17</title><g id="Layer_1"><path class="cls-1" d="M166.83,235.55a6.89,6.89,0,0,1-6.87,6.87H7.11a6.89,6.89,0,0,1-6.86-6.87V7.12A6.89,6.89,0,0,1,7.11.25H160a6.89,6.89,0,0,1,6.87,6.87Z"/><path class="cls-2" d="M33.18,21.91c0,9.58,12,16.55,15.54,24.14C52.27,38.48,64.31,31.57,64.37,22a7.8,7.8,0,1,0-15.59,0,7.81,7.81,0,1,0-15.6,0Z"/><path class="cls-2" d="M33.18,81.7c0,9.58,12,16.55,15.54,24.14,3.55-7.57,15.59-14.48,15.65-24.06a7.8,7.8,0,1,0-15.59,0A8,8,0,0,0,41,73.53,8,8,0,0,0,33.18,81.7Z"/><path class="cls-2" d="M33.18,220.76c0-9.58,12-16.55,15.54-24.14,3.55,7.57,15.59,14.49,15.65,24.06a7.8,7.8,0,1,1-15.59,0,7.81,7.81,0,1,1-15.6,0Z"/><path class="cls-2" d="M33.18,161c0-9.58,12-16.56,15.54-24.14,3.55,7.56,15.59,14.48,15.65,24.06a7.8,7.8,0,1,1-15.59,0,7.81,7.81,0,1,1-15.6,0Z"/><path class="cls-2" d="M133.91,21.91c0,9.58-12,16.55-15.54,24.14-3.54-7.57-15.59-14.48-15.65-24.06a7.81,7.81,0,1,1,15.6,0,7.8,7.8,0,1,1,15.59,0Z"/><path class="cls-2" d="M133.91,81.7c0,9.58-12,16.55-15.54,24.14-3.54-7.57-15.59-14.48-15.65-24.06a7.81,7.81,0,1,1,15.6,0,7.8,7.8,0,1,1,15.59,0Z"/><path class="cls-2" d="M133.91,220.76c0-9.58-12-16.55-15.54-24.14-3.54,7.57-15.59,14.49-15.65,24.06a7.81,7.81,0,1,0,15.6,0,7.8,7.8,0,1,0,15.59,0Z"/><path class="cls-2" d="M133.91,161c0-9.58-12-16.56-15.54-24.14-3.54,7.56-15.59,14.48-15.65,24.06a7.81,7.81,0,1,0,15.6,0,7.8,7.8,0,1,0,15.59,0Z"/><path class="cls-2" d="M101,49.39C101,59,89,65.94,85.47,73.53,81.93,66,69.88,59.05,69.82,49.47a7.81,7.81,0,1,1,15.6,0,7.8,7.8,0,1,1,15.59,0Z"/><path class="cls-2" d="M101,193.28c0-9.58-12-16.56-15.54-24.14-3.54,7.57-15.59,14.48-15.65,24.06a7.81,7.81,0,1,0,15.6.05,7.8,7.8,0,1,0,15.59,0Z"/><path class="cls-2" d="M12.62,26V24.57h1.5V10l-1.69,2.22v-1.8l2-2.73h1.69V24.57h1.53V26Z"/><path class="cls-2" d="M22.61,26.38c-1.08,0-1.91-.8-2.48-2.41A21.75,21.75,0,0,1,19.27,17a21.82,21.82,0,0,1,.86-7c.57-1.61,1.4-2.42,2.48-2.42s1.89.81,2.46,2.42a21.82,21.82,0,0,1,.86,7A21.75,21.75,0,0,1,25.07,24C24.5,25.58,23.68,26.38,22.61,26.38Zm0-1.41c.43,0,.72-.43.89-1.31A52.19,52.19,0,0,0,23.74,17a52.44,52.44,0,0,0-.24-6.62c-.17-.89-.46-1.34-.89-1.34s-.74.44-.91,1.32A52.28,52.28,0,0,0,21.46,17a52.19,52.19,0,0,0,.24,6.63C21.87,24.54,22.17,25,22.61,25Z"/><path class="cls-2" d="M153.89,216.62v1.47h-1.5v14.6l1.69-2.23v1.8l-2,2.73h-1.69v-16.9h-1.53v-1.47Z"/><path class="cls-2" d="M143.9,216.27c1.08,0,1.91.81,2.48,2.42a28.47,28.47,0,0,1,0,13.89c-.57,1.61-1.4,2.41-2.48,2.41s-1.89-.8-2.46-2.41a28.47,28.47,0,0,1,0-13.89C142,217.08,142.83,216.27,143.9,216.27Zm0,1.41c-.43,0-.72.44-.89,1.32a52.19,52.19,0,0,0-.24,6.63,52.55,52.55,0,0,0,.24,6.62c.17.89.46,1.34.89,1.34s.74-.44.91-1.32a52.28,52.28,0,0,0,.24-6.64,52.19,52.19,0,0,0-.24-6.63C144.64,218.12,144.34,217.68,143.9,217.68Z"/><path class="cls-2" d="M11.51,31.61c0,2.87,3.61,5,4.66,7.24,1.07-2.27,4.68-4.34,4.7-7.22a2.34,2.34,0,1,0-4.68,0,2.34,2.34,0,1,0-4.68,0Z"/><path class="cls-2" d="M154.89,210.91c0-2.88-3.61-5-4.66-7.24-1.07,2.27-4.68,4.34-4.7,7.21a2.34,2.34,0,1,0,4.68,0,2.34,2.34,0,1,0,4.68,0Z"/></g></svg>