<svg id="Слой_1" data-name="Слой 1" xmlns="http://www.w3.org/2000/svg" viewBox="0 0 167.09 242.67"><defs><style>.cls-1{fill:#fff;stroke:#000;stroke-width:0.5px;}</style></defs><title>18</title><g id="Layer_1"><path class="cls-1" d="M166.84,235.55a6.89,6.89,0,0,1-6.87,6.87H7.11a6.89,6.89,0,0,1-6.86-6.87V7.12A6.89,6.89,0,0,1,7.11.25H160a6.89,6.89,0,0,1,6.87,6.87Z"/><path d="M57.06,46.21c-3.48,0-5.31-3.71-6.27-7.43a37.4,37.4,0,0,1-1-7.43l-1.78,0s-.33,14.86-7.3,14.87Z"/><path d="M126.74,46.2c-7,0-7.3-14.87-7.3-14.87l-1.78,0a37.4,37.4,0,0,1-1,7.43c-1,3.72-2.8,7.43-6.28,7.43Z"/><path d="M57,46.11c-3.49,0-5.33-3.71-6.28-7.43a37,37,0,0,1-1.06-7.43l-1.78,0s-.33,14.87-7.29,14.88Z"/><path d="M126.71,46.11c-7,0-7.3-14.88-7.3-14.88l-1.78,0a37.82,37.82,0,0,1-1,7.43c-1,3.72-2.8,7.43-6.28,7.43Z"/><path d="M55.49,19.84a7,7,0,0,1-14.09,0,7,7,0,0,1,14.09,0Z"/><path d="M64.57,32.77a7.05,7.05,0,1,1-7-6.84A6.95,6.95,0,0,1,64.57,32.77Z"/><path d="M46.52,32.82a6.64,6.64,0,0,1-1.15,3.74,7.09,7.09,0,0,1-5.89,3.09,6.84,6.84,0,1,1,7-6.83Z"/><path d="M56.71,46.08c-3.48,0-5.31-2.83-6.27-5.66a22.1,22.1,0,0,1-1-5.66H47.62s-.34,11.32-7.29,11.33Z"/><path d="M43.66,24.85c4,4,4,9.9,4,9.9h1.77s0-6.07,3.85-9.91"/><path d="M44.45,37.56c4-4,9.9-4,9.9-4l0-1.78s-6.07,0-9.92-3.84"/><path d="M52.39,37.59c-4-4-9.9-4-9.9-4l0-1.78s6.07,0,9.92-3.84"/><path d="M126,19.84a7,7,0,0,1-14.09,0,7,7,0,0,1,14.09,0Z"/><path d="M135.07,32.77a7,7,0,1,1-7-6.84A6.95,6.95,0,0,1,135.07,32.77Z"/><path d="M117,32.82a6.64,6.64,0,0,1-1.15,3.74A7.09,7.09,0,0,1,110,39.65a6.84,6.84,0,1,1,7-6.83Z"/><path d="M127.21,46.08c-3.48,0-5.31-2.83-6.27-5.66a22.1,22.1,0,0,1-1-5.66h-1.77s-.34,11.32-7.29,11.33Z"/><path d="M114.16,24.85c4,4,4,9.9,4,9.9h1.77s0-6.07,3.85-9.91"/><path d="M115,37.56c4-4,9.9-4,9.9-4V31.83s-6.06,0-9.91-3.84"/><path d="M122.89,37.59c-4-4-9.9-4-9.9-4l0-1.78s6.07,0,9.92-3.84"/><path d="M55.74,79.59a7,7,0,1,1-7-6.84A6.94,6.94,0,0,1,55.74,79.59Z"/><path d="M64.82,92.52a7.05,7.05,0,1,1-7-6.84A6.95,6.95,0,0,1,64.82,92.52Z"/><path d="M46.77,92.57a6.64,6.64,0,0,1-1.15,3.74,7.09,7.09,0,0,1-5.89,3.09,6.84,6.84,0,1,1,7-6.83Z"/><path d="M57,105.83c-3.48,0-5.31-2.83-6.27-5.66a22.1,22.1,0,0,1-1-5.66H47.87s-.34,11.32-7.29,11.33Z"/><path d="M43.91,84.6c4,4,4,9.9,4,9.9h1.77s0-6.07,3.85-9.91"/><path d="M44.7,97.31c4-4,9.9-4,9.9-4l0-1.78s-6.07,0-9.92-3.84"/><path d="M52.64,97.34c-4-4-9.9-4-9.9-4l0-1.78s6.07,0,9.92-3.84"/><path d="M125.74,79.59a7,7,0,1,1-7-6.84A6.94,6.94,0,0,1,125.74,79.59Z"/><path d="M134.82,92.52a7,7,0,1,1-7-6.84A6.95,6.95,0,0,1,134.82,92.52Z"/><path d="M116.77,92.57a6.64,6.64,0,0,1-1.15,3.74,7.09,7.09,0,0,1-5.89,3.09,6.84,6.84,0,1,1,7-6.83Z"/><path d="M127,105.83c-3.48,0-5.31-2.83-6.27-5.66a22.1,22.1,0,0,1-1-5.66h-1.77s-.34,11.32-7.29,11.33Z"/><path d="M113.91,84.6c4,4,4,9.9,4,9.9h1.77s0-6.07,3.85-9.91"/><path d="M114.7,97.31c4-4,9.9-4,9.9-4V91.58s-6.06,0-9.91-3.84"/><path d="M122.64,97.34c-4-4-9.9-4-9.9-4l0-1.78s6.07,0,9.92-3.84"/><path d="M92.49,63.59a7,7,0,1,1-7-6.84A6.94,6.94,0,0,1,92.49,63.59Z"/><path d="M101.57,76.52a7,7,0,1,1-7-6.84A6.95,6.95,0,0,1,101.57,76.52Z"/><path d="M83.52,76.57a6.64,6.64,0,0,1-1.15,3.74,7.09,7.09,0,0,1-5.89,3.09,6.84,6.84,0,1,1,7-6.83Z"/><path d="M93.71,89.83c-3.48,0-5.31-2.83-6.27-5.66a22.1,22.1,0,0,1-1-5.66H84.62s-.34,11.32-7.29,11.33Z"/><path d="M80.66,68.6c4,4,4,9.9,4,9.9h1.77s0-6.07,3.85-9.91"/><path d="M81.45,81.31c4-4,9.9-4,9.9-4l0-1.78s-6.07,0-9.92-3.84"/><path d="M89.39,81.34c-4-4-9.9-4-9.9-4l0-1.78s6.07,0,9.92-3.84"/><path d="M55.48,163.08a7,7,0,1,0-7,6.84A6.94,6.94,0,0,0,55.48,163.08Z"/><path d="M64.56,150.15A7.05,7.05,0,1,0,57.51,157,6.95,6.95,0,0,0,64.56,150.15Z"/><path d="M46.51,150.1a6.64,6.64,0,0,0-1.15-3.74,7.1,7.1,0,0,0-5.89-3.09,6.84,6.84,0,1,0,7,6.83Z"/><path d="M40.31,136.84c7,0,7.3,11.33,7.3,11.33h1.77a22.1,22.1,0,0,1,1-5.66c1-2.83,2.79-5.66,6.27-5.66Z"/><path d="M43.65,158.07c4-4,4-9.9,4-9.9h1.77s0,6.07,3.85,9.91"/><path d="M44.44,145.35c4,4,9.9,4,9.9,4v1.78s-6.06,0-9.91,3.84"/><path d="M52.38,145.33c-4,3.95-9.9,3.95-9.9,3.95l0,1.78s6.07,0,9.92,3.85"/><path d="M92.45,179.36a7,7,0,1,0-7,6.83A6.93,6.93,0,0,0,92.45,179.36Z"/><path d="M101.53,166.43a7.05,7.05,0,1,0-7,6.83A6.95,6.95,0,0,0,101.53,166.43Z"/><path d="M83.48,166.38a6.62,6.62,0,0,0-1.15-3.74,7.1,7.1,0,0,0-5.89-3.09,6.83,6.83,0,1,0,7,6.83Z"/><path d="M77.29,153.12c6.95,0,7.28,11.33,7.28,11.33l1.78,0a22.1,22.1,0,0,1,1.05-5.66c1-2.83,2.79-5.66,6.27-5.65Z"/><path d="M80.62,174.35c3.95-4,3.95-9.9,3.95-9.9l1.78,0s0,6.07,3.85,9.92"/><path d="M81.41,161.63c4,4,9.9,4,9.9,4v1.77s-6.06,0-9.91,3.85"/><path d="M89.35,161.6c-4,4-9.9,4-9.9,4l0,1.77s6.07,0,9.92,3.85"/><path d="M125.7,163.08a7,7,0,1,0-7,6.84A6.94,6.94,0,0,0,125.7,163.08Z"/><path d="M134.77,150.15a7,7,0,1,0-7,6.84A6.94,6.94,0,0,0,134.77,150.15Z"/><path d="M116.73,150.1a6.64,6.64,0,0,0-1.15-3.74,7.1,7.1,0,0,0-5.89-3.09,6.84,6.84,0,1,0,7,6.83Z"/><path d="M110.53,136.84c7,0,7.29,11.33,7.29,11.33h1.78a22.1,22.1,0,0,1,1.05-5.66c1-2.83,2.79-5.66,6.27-5.66Z"/><path d="M113.87,158.07c3.95-4,3.95-9.9,3.95-9.9h1.78s0,6.07,3.85,9.91"/><path d="M114.66,145.36c4,3.95,9.9,3.95,9.9,3.95v1.78s-6.07,0-9.91,3.84"/><path d="M122.6,145.33c-4,3.95-9.9,3.95-9.9,3.95l0,1.78s6.07,0,9.92,3.85"/><path d="M125.93,223.07a7,7,0,1,0-7,6.84A6.94,6.94,0,0,0,125.93,223.07Z"/><path d="M135,210.14a7.05,7.05,0,1,0-7,6.84A6.95,6.95,0,0,0,135,210.14Z"/><path d="M117,210.09a6.62,6.62,0,0,0-1.16-3.74,7.07,7.07,0,0,0-5.89-3.09,6.84,6.84,0,1,0,7,6.83Z"/><path d="M110.77,196.83c7,0,7.29,11.33,7.29,11.33h1.77a22.1,22.1,0,0,1,1-5.66c1-2.83,2.79-5.66,6.27-5.66Z"/><path d="M114.1,218.06c4-4,4-9.9,4-9.9h1.77s0,6.06,3.85,9.91"/><path d="M114.89,205.34c4,4,9.9,4,9.9,4l0,1.78s-6.07,0-9.92,3.84"/><path d="M122.83,205.31c-4,4-9.9,4-9.9,4l0,1.78s6.07,0,9.92,3.84"/><path d="M55.48,223.07a7,7,0,1,0-7,6.84A6.94,6.94,0,0,0,55.48,223.07Z"/><path d="M64.56,210.14A7.05,7.05,0,1,0,57.51,217,6.95,6.95,0,0,0,64.56,210.14Z"/><path d="M46.51,210.09a6.62,6.62,0,0,0-1.15-3.74,7.1,7.1,0,0,0-5.89-3.09,6.84,6.84,0,1,0,7,6.83Z"/><path d="M40.31,196.83c7,0,7.3,11.33,7.3,11.33h1.77a22.1,22.1,0,0,1,1-5.66c1-2.83,2.79-5.66,6.27-5.66Z"/><path d="M43.65,218.06c4-4,4-9.9,4-9.9h1.77s0,6.06,3.85,9.91"/><path d="M44.44,205.34c4,4,9.9,4,9.9,4v1.78s-6.06,0-9.91,3.84"/><path d="M52.38,205.32c-4,4-9.9,4-9.9,4l0,1.78s6.07,0,9.92,3.84"/><path d="M12.74,26V24.53h1.5V9.93l-1.68,2.23V10.35l2-2.73h1.69V24.53h1.54V26Z"/><path d="M22.73,26.34c-1.08,0-1.9-.8-2.48-2.41A21.8,21.8,0,0,1,19.4,17,21.87,21.87,0,0,1,20.25,10c.58-1.61,1.4-2.42,2.48-2.42s1.89.81,2.47,2.42a21.87,21.87,0,0,1,.85,7,21.8,21.8,0,0,1-.85,6.94C24.62,25.54,23.8,26.34,22.73,26.34Zm0-1.4c.43,0,.73-.44.89-1.32A51.4,51.4,0,0,0,23.87,17a51.65,51.65,0,0,0-.25-6.62C23.46,9.48,23.16,9,22.73,9s-.74.44-.9,1.32A51.49,51.49,0,0,0,21.58,17a51.4,51.4,0,0,0,.25,6.63Q22.07,24.94,22.73,24.94Z"/><path d="M154,216.58v1.47h-1.5v14.6l1.68-2.23v1.8l-2,2.73h-1.69v-16.9H149v-1.47Z"/><path d="M144,216.24c1.08,0,1.9.8,2.47,2.41a28.47,28.47,0,0,1,0,13.89c-.57,1.61-1.39,2.41-2.47,2.41s-1.89-.8-2.47-2.41a28.8,28.8,0,0,1,0-13.89C142.14,217,143,216.24,144,216.24Zm0,1.4c-.43,0-.73.44-.89,1.32a51.4,51.4,0,0,0-.25,6.63,51.76,51.76,0,0,0,.25,6.62c.16.89.46,1.34.89,1.34s.74-.44.9-1.32a52.28,52.28,0,0,0,.24-6.64,52.19,52.19,0,0,0-.24-6.63Q144.69,217.64,144,217.64Z"/><path d="M18.27,31.33a2.12,2.12,0,1,1-2.12-2A2.09,2.09,0,0,1,18.27,31.33Z"/><path d="M21,35.22a2.12,2.12,0,1,1-2.12-2.06A2.09,2.09,0,0,1,21,35.22Z"/><path d="M15.58,35.23a2,2,0,0,1-.35,1.12,2.13,2.13,0,0,1-1.77.93,2.05,2.05,0,1,1,2.12-2.05Z"/><path d="M18.64,39.22c-1.05,0-1.6-.85-1.89-1.7a6.46,6.46,0,0,1-.31-1.71H15.9s-.1,3.4-2.19,3.4Z"/><path d="M14.71,32.84a4.64,4.64,0,0,1,1.19,3h.54a4.67,4.67,0,0,1,1.15-3"/><path d="M15,36.66a4.66,4.66,0,0,1,3-1.19v-.54a4.71,4.71,0,0,1-3-1.15"/><path d="M17.34,36.67a4.66,4.66,0,0,0-3-1.19v-.54a4.71,4.71,0,0,0,3-1.15"/><path d="M148.41,210.94a2.12,2.12,0,1,1,2.12,2.06A2.09,2.09,0,0,1,148.41,210.94Z"/><path d="M145.68,207.06a2.12,2.12,0,1,1,2.12,2.05A2.09,2.09,0,0,1,145.68,207.06Z"/><path d="M151.1,207a2,2,0,0,1,.35-1.12,2.13,2.13,0,0,1,1.77-.93,2.06,2.06,0,1,1-2.12,2Z"/><path d="M148,203.06c1.05,0,1.6.85,1.89,1.7a6.41,6.41,0,0,1,.31,1.7h.54s.1-3.4,2.19-3.4Z"/><path d="M152,209.44a4.68,4.68,0,0,1-1.18-3h-.54a4.71,4.71,0,0,1-1.15,3"/><path d="M151.73,205.62a4.66,4.66,0,0,1-3,1.19v.53a4.71,4.71,0,0,1,3,1.15"/><path d="M149.34,205.61a4.66,4.66,0,0,0,3,1.19v.53a4.68,4.68,0,0,0-3,1.16"/></g></svg>