<svg id="Слой_1" data-name="Слой 1" xmlns="http://www.w3.org/2000/svg" viewBox="0 0 167.08 242.67"><defs><style>.cls-1{fill:#fff;stroke:#000;stroke-width:0.5px;}.cls-2{fill:#e61408;}</style></defs><title>19</title><g id="Layer_1"><path class="cls-1" d="M166.83,235.54a6.9,6.9,0,0,1-6.87,6.88H7.11a6.89,6.89,0,0,1-6.86-6.88V7.12A6.89,6.89,0,0,1,7.11.25H160a6.89,6.89,0,0,1,6.87,6.87Z"/><path class="cls-2" d="M48.78,29.93H33.18s2.44.51,9.27-6,6.33-10.08,6.33-10.08M33.18,29.93s3.42-.5,9.75,6.55,5.85,9.58,5.85,9.58V29.93m0,16.13S48.29,42.53,55.12,36s9.26-6,9.26-6H48.78m15.6,0s-3.41.51-9.75-6.55-5.85-9.57-5.85-9.57V29.93"/><path class="cls-2" d="M118,13.58s-.49,3.53,6.34,10.08,9.26,6.05,9.26,6.05H118m0,0V45.83s-.49-2.51,5.85-9.57,9.75-6.55,9.75-6.55m-15.6,0h-15.6s2.44-.5,9.26,6S118,45.83,118,45.83m0-16.12V13.58s.49,2.52-5.85,9.58-9.75,6.55-9.75,6.55"/><path class="cls-2" d="M48.5,228.63s.49-3.52-6.34-10.08-9.26-6-9.26-6H48.5m0,0V196.38S49,198.9,42.65,206s-9.75,6.55-9.75,6.55m15.6,0H64.1s-2.44.5-9.26-6-6.34-10.08-6.34-10.08m0,16.13v16.12s-.49-2.52,5.85-9.57,9.75-6.55,9.75-6.55"/><path class="cls-2" d="M117.73,212.73h15.59s-2.43-.5-9.26,6.05-6.33,10.08-6.33,10.08m15.59-16.13s-3.41.51-9.75-6.55-5.84-9.57-5.84-9.57v16.12m0-16.12s.48,3.52-6.34,10.07-9.26,6-9.26,6h15.6m-15.6,0s3.41-.5,9.75,6.55,5.85,9.58,5.85,9.58V212.73"/><path class="cls-2" d="M48.78,89.69H33.18s2.44.51,9.26-6,6.34-10.08,6.34-10.08M33.18,89.69s3.41-.5,9.75,6.55,5.85,9.58,5.85,9.58V89.69m0,16.13s-.49-3.53,6.34-10.08,9.26-6,9.26-6H48.78m15.6,0s-3.42.51-9.75-6.55-5.85-9.57-5.85-9.57V89.69"/><path class="cls-2" d="M118,73.34s-.49,3.53,6.33,10.08,9.27,6,9.27,6H118m0,0v16.12s-.49-2.51,5.85-9.57,9.75-6.55,9.75-6.55m-15.6,0h-15.6s2.43-.5,9.26,6S118,105.59,118,105.59m0-16.12V73.34s.48,2.52-5.86,9.58-9.74,6.55-9.74,6.55"/><path class="cls-2" d="M48.7,168.88s.48-3.52-6.34-10.07-9.26-6.05-9.26-6.05H48.7m0,0V136.63s.48,2.52-5.85,9.58-9.75,6.55-9.75,6.55m15.6,0H64.3s-2.44.5-9.27-6-6.33-10.08-6.33-10.08m0,16.13v16.12s-.49-2.51,5.85-9.57,9.75-6.55,9.75-6.55"/><path class="cls-2" d="M117.92,153h15.6s-2.43-.5-9.26,6.05-6.34,10.08-6.34,10.08M133.52,153s-3.41.51-9.75-6.55-5.85-9.57-5.85-9.57V153m0-16.12s.49,3.53-6.33,10.08-9.27,6-9.27,6h15.6m-15.6,0s3.42-.5,9.75,6.56,5.85,9.57,5.85,9.57V153"/><path class="cls-2" d="M85.4,57.27H69.8s2.44.5,9.26-6.05S85.4,41.14,85.4,41.14M69.8,57.27s3.41-.51,9.75,6.55,5.85,9.57,5.85,9.57V57.27m0,16.12s-.49-3.52,6.34-10.08,9.26-6,9.26-6H85.4m15.6,0s-3.41.5-9.75-6.55-5.85-9.58-5.85-9.58V57.27"/><path class="cls-2" d="M85.12,201.3s.48-3.53-6.34-10.08-9.26-6.05-9.26-6.05h15.6m0,0V169.05s.48,2.52-5.85,9.57-9.75,6.55-9.75,6.55m15.6,0h15.6s-2.44.51-9.27-6-6.33-10.08-6.33-10.08m0,16.12V201.3s-.49-2.52,5.85-9.58,9.75-6.55,9.75-6.55"/><path class="cls-2" d="M12.49,26V24.53H14V9.93L12.3,12.16v-1.8l2-2.74H16V24.53h1.53V26Z"/><path class="cls-2" d="M22.48,26.34c-1.08,0-1.91-.8-2.48-2.41A21.71,21.71,0,0,1,19.14,17,21.82,21.82,0,0,1,20,10c.57-1.61,1.4-2.42,2.48-2.42s1.89.81,2.46,2.42a21.82,21.82,0,0,1,.86,7,21.71,21.71,0,0,1-.86,6.94C24.37,25.54,23.55,26.34,22.48,26.34Zm0-1.4c.43,0,.73-.44.89-1.32A52.19,52.19,0,0,0,23.61,17a52.44,52.44,0,0,0-.24-6.62C23.21,9.48,22.91,9,22.48,9s-.74.44-.9,1.32A49.59,49.59,0,0,0,21.33,17a49.5,49.5,0,0,0,.25,6.63Q21.82,24.94,22.48,24.94Z"/><path class="cls-2" d="M153.76,216.58v1.47h-1.5v14.6l1.69-2.23v1.8l-2,2.74h-1.69V218.05H148.7v-1.47Z"/><path class="cls-2" d="M143.78,216.24c1.08,0,1.9.8,2.47,2.41a28.47,28.47,0,0,1,0,13.89c-.57,1.61-1.39,2.42-2.47,2.42s-1.9-.81-2.47-2.42a28.47,28.47,0,0,1,0-13.89C141.88,217,142.71,216.24,143.78,216.24Zm0,1.4c-.43,0-.73.44-.89,1.32a49.5,49.5,0,0,0-.25,6.63,49.73,49.73,0,0,0,.25,6.62c.16.89.46,1.34.89,1.34s.74-.44.9-1.32a52.28,52.28,0,0,0,.24-6.64,52.19,52.19,0,0,0-.24-6.63Q144.44,217.64,143.78,217.64Z"/><path class="cls-2" d="M16.15,34.06h-5s.78.16,3-2,2-3.26,2-3.26m-5,5.22s1.1-.17,3.15,2.11,1.89,3.1,1.89,3.1V34.06m0,5.21S16,38.13,18.2,36s3-1.95,3-1.95h-5m5,0s-1.1.16-3.15-2.12-1.89-3.1-1.89-3.1v5.22"/><path class="cls-2" d="M150.58,208.14h5s-.79-.16-3,2-2,3.26-2,3.26m5-5.21s-1.11.16-3.15-2.12-1.89-3.09-1.89-3.09v5.21m0-5.21s.15,1.14-2.05,3.26-3,1.95-3,1.95h5.05m-5.05,0s1.11-.16,3.15,2.12,1.9,3.09,1.9,3.09v-5.21"/></g></svg>