<svg id="Слой_1" data-name="Слой 1" xmlns="http://www.w3.org/2000/svg" viewBox="0 0 167.09 242.67"><defs><style>.cls-1{fill:#fff;stroke:#000;stroke-width:0.5px;}</style></defs><title>2</title><g id="Layer_1"><path class="cls-1" d="M166.84,235.55a6.89,6.89,0,0,1-6.87,6.87H7.11a6.89,6.89,0,0,1-6.86-6.87V7.12A6.89,6.89,0,0,1,7.11.25H160a6.89,6.89,0,0,1,6.87,6.87Z"/><path d="M55.49,19.84a7,7,0,0,1-14.09,0,7,7,0,0,1,14.09,0Z"/><path d="M64.57,32.77a7,7,0,1,1-7-6.84A6.95,6.95,0,0,1,64.57,32.77Z"/><path d="M46.52,32.82a6.64,6.64,0,0,1-1.15,3.74,7.09,7.09,0,0,1-5.89,3.09,6.84,6.84,0,1,1,7-6.83Z"/><path d="M56.71,46.08c-3.48,0-5.31-2.83-6.27-5.66a22.1,22.1,0,0,1-1-5.66H47.62s-.34,11.32-7.29,11.33Z"/><path d="M43.66,24.85c4,4,4,9.9,4,9.9h1.77s0-6.07,3.85-9.91"/><path d="M44.45,37.56c4-4,9.9-4,9.9-4V31.83s-6.06,0-9.91-3.84"/><path d="M52.39,37.59c-4-4-9.9-4-9.9-4l0-1.78s6.07,0,9.92-3.84"/><path d="M126,19.84a7.05,7.05,0,0,1-14.1,0,7.05,7.05,0,0,1,14.1,0Z"/><path d="M135.07,32.77a7,7,0,1,1-7-6.84A6.95,6.95,0,0,1,135.07,32.77Z"/><path d="M117,32.82a6.64,6.64,0,0,1-1.15,3.74A7.09,7.09,0,0,1,110,39.65a6.84,6.84,0,1,1,7-6.83Z"/><path d="M127.21,46.08c-3.48,0-5.31-2.83-6.27-5.66a22.1,22.1,0,0,1-1-5.66h-1.77s-.34,11.32-7.29,11.33Z"/><path d="M114.16,24.85c4,4,4,9.9,4,9.9h1.77s0-6.07,3.85-9.91"/><path d="M115,37.56c4-4,9.9-4,9.9-4V31.83s-6.06,0-9.91-3.84"/><path d="M122.89,37.59c-4-4-9.9-4-9.9-4l0-1.78s6.07,0,9.92-3.84"/><path d="M55.49,111.59a7,7,0,1,1-7-6.84A6.94,6.94,0,0,1,55.49,111.59Z"/><path d="M64.57,124.52a7,7,0,1,1-7-6.84A6.95,6.95,0,0,1,64.57,124.52Z"/><path d="M46.52,124.57a6.62,6.62,0,0,1-1.15,3.74,7.09,7.09,0,0,1-5.89,3.09,6.84,6.84,0,1,1,7-6.83Z"/><path d="M56.71,137.83c-3.48,0-5.31-2.83-6.27-5.66a22.1,22.1,0,0,1-1-5.66H47.62s-.34,11.32-7.29,11.33Z"/><path d="M43.66,116.6c4,4,4,9.9,4,9.9h1.77s0-6.07,3.85-9.91"/><path d="M44.45,129.32c4-4,9.9-4,9.9-4v-1.78s-6.06,0-9.91-3.84"/><path d="M52.39,129.34c-4-4-9.9-4-9.9-4l0-1.78s6.07,0,9.92-3.84"/><path d="M124.25,111.59a7.05,7.05,0,1,1-7-6.84A6.95,6.95,0,0,1,124.25,111.59Z"/><path d="M133.32,124.52a7,7,0,1,1-7-6.84A6.95,6.95,0,0,1,133.32,124.52Z"/><path d="M115.27,124.57a6.62,6.62,0,0,1-1.15,3.74,7.09,7.09,0,0,1-5.89,3.09,6.84,6.84,0,1,1,7-6.83Z"/><path d="M125.46,137.83c-3.48,0-5.31-2.83-6.27-5.66a22.1,22.1,0,0,1-1-5.66h-1.77s-.34,11.32-7.29,11.33Z"/><path d="M112.41,116.6c4,4,4,9.9,4,9.9h1.77s0-6.07,3.85-9.91"/><path d="M113.2,129.32c4-4,9.9-4,9.9-4v-1.78s-6.06,0-9.91-3.84"/><path d="M121.14,129.34c-4-4-9.9-4-9.9-4l0-1.78s6.07,0,9.92-3.84"/><path d="M55.59,223.07a7,7,0,1,0-7.05,6.84A6.95,6.95,0,0,0,55.59,223.07Z"/><path d="M64.66,210.14a7,7,0,1,0-7,6.84A6.94,6.94,0,0,0,64.66,210.14Z"/><path d="M46.62,210.09a6.69,6.69,0,0,0-1.15-3.74,7.1,7.1,0,0,0-5.9-3.09,6.84,6.84,0,1,0,7,6.83Z"/><path d="M40.42,196.83c7,0,7.29,11.33,7.29,11.33h1.78a22.1,22.1,0,0,1,1-5.66c1-2.83,2.79-5.66,6.27-5.66Z"/><path d="M43.75,218.06c4-4,4-9.9,4-9.9h1.78s0,6.06,3.84,9.91"/><path d="M44.54,205.34c4,4,9.9,4,9.9,4l0,1.78s-6.07,0-9.92,3.84"/><path d="M52.48,205.32c-4,4-9.9,4-9.9,4v1.78s6.07,0,9.91,3.84"/><path d="M126,223.07a7,7,0,1,0-7.05,6.84A6.94,6.94,0,0,0,126,223.07Z"/><path d="M135.11,210.14a7,7,0,1,0-7,6.84A6.94,6.94,0,0,0,135.11,210.14Z"/><path d="M117.07,210.09a6.62,6.62,0,0,0-1.15-3.74,7.1,7.1,0,0,0-5.9-3.09,6.84,6.84,0,1,0,7,6.83Z"/><path d="M110.87,196.83c7,0,7.29,11.33,7.29,11.33h1.78a22.1,22.1,0,0,1,1-5.66c1-2.83,2.79-5.66,6.27-5.66Z"/><path d="M114.2,218.06c4-4,4-9.9,4-9.9h1.78s0,6.06,3.84,9.91"/><path d="M115,205.34c4,4,9.9,4,9.9,4v1.78s-6.07,0-9.91,3.84"/><path d="M122.93,205.32c-4,4-9.9,4-9.9,4v1.78s6.07,0,9.91,3.84"/><path d="M13.84,15.29a3,3,0,0,1,.79-.95,1.54,1.54,0,0,1,.94-.31c.82,0,1.47.54,1.94,1.62a11.41,11.41,0,0,1,.7,4.45,10.65,10.65,0,0,1-.8,4.62,2.47,2.47,0,0,1-2.26,1.62c-1.09,0-1.92-.74-2.49-2.23a19.22,19.22,0,0,1-.85-6.55,22.24,22.24,0,0,1,.94-7.43c.62-1.67,1.56-2.51,2.79-2.51a3.4,3.4,0,0,1,1,.18,6.42,6.42,0,0,1,1.19.54v3.19h-.65a4.84,4.84,0,0,0-.51-1.87,1.1,1.1,0,0,0-1-.63c-.64,0-1.09.49-1.38,1.47A19.27,19.27,0,0,0,13.84,15.29ZM15,24.94c.38,0,.64-.36.8-1.06a19.12,19.12,0,0,0,.24-3.68,19,19,0,0,0-.24-3.67c-.16-.71-.42-1.06-.8-1.06s-.63.35-.79,1.06A19,19,0,0,0,14,20.2a19.12,19.12,0,0,0,.24,3.68C14.39,24.58,14.65,24.94,15,24.94Z"/><path d="M152.74,227.29a3.19,3.19,0,0,1-.79.94,1.6,1.6,0,0,1-.95.32c-.82,0-1.46-.54-1.93-1.62a11.24,11.24,0,0,1-.71-4.45,10.8,10.8,0,0,1,.8-4.62,2.47,2.47,0,0,1,2.26-1.62c1.09,0,1.93.74,2.49,2.23a19.18,19.18,0,0,1,.86,6.55,22.55,22.55,0,0,1-.94,7.43c-.63,1.67-1.56,2.5-2.8,2.5a3.4,3.4,0,0,1-1-.18,5.75,5.75,0,0,1-1.19-.53v-3.19h.65a4.73,4.73,0,0,0,.51,1.86,1.11,1.11,0,0,0,1,.64c.63,0,1.08-.49,1.37-1.47A19.65,19.65,0,0,0,152.74,227.29Zm-1.19-9.65c-.38,0-.64.36-.8,1.06a29.48,29.48,0,0,0,0,7.35c.16.71.42,1.06.8,1.06s.63-.35.79-1.06a28.26,28.26,0,0,0,0-7.35C152.18,218,151.92,217.64,151.55,217.64Z"/><path d="M18.18,31.33a2.12,2.12,0,1,1-2.12-2A2.09,2.09,0,0,1,18.18,31.33Z"/><path d="M20.9,35.22a2.12,2.12,0,1,1-2.11-2.06A2.09,2.09,0,0,1,20.9,35.22Z"/><path d="M15.48,35.23a2,2,0,0,1-.34,1.12,2.14,2.14,0,0,1-1.78.93,2.05,2.05,0,1,1,2.12-2.05Z"/><path d="M18.54,39.22c-1,0-1.59-.85-1.88-1.7a6.72,6.72,0,0,1-.32-1.71h-.53s-.1,3.4-2.19,3.4Z"/><path d="M14.62,32.84a4.64,4.64,0,0,1,1.19,3h.53a4.64,4.64,0,0,1,1.16-3"/><path d="M14.86,36.66a4.64,4.64,0,0,1,3-1.19v-.54a4.69,4.69,0,0,1-3-1.15"/><path d="M17.24,36.67a4.64,4.64,0,0,0-3-1.19v-.54a4.67,4.67,0,0,0,3-1.15"/><path d="M148.32,210.94a2.12,2.12,0,1,1,2.11,2.06A2.08,2.08,0,0,1,148.32,210.94Z"/><path d="M145.59,207.06a2.12,2.12,0,1,1,2.12,2.05A2.09,2.09,0,0,1,145.59,207.06Z"/><path d="M151,207a2,2,0,0,1,.35-1.12,2.12,2.12,0,0,1,1.77-.93,2.06,2.06,0,1,1-2.12,2Z"/><path d="M148,203.06c1,0,1.59.85,1.88,1.7a6.68,6.68,0,0,1,.32,1.7h.53s.1-3.4,2.19-3.4Z"/><path d="M151.87,209.44a4.66,4.66,0,0,1-1.19-3h-.53a4.68,4.68,0,0,1-1.16,3"/><path d="M151.63,205.62a4.64,4.64,0,0,1-3,1.19v.53a4.69,4.69,0,0,1,3,1.15"/><path d="M149.25,205.61a4.64,4.64,0,0,0,3,1.19v.53a4.66,4.66,0,0,0-3,1.16"/></g></svg>