<svg id="Слой_1" data-name="Слой 1" xmlns="http://www.w3.org/2000/svg" viewBox="0 0 167.09 242.67"><defs><style>.cls-1{fill:#fff;stroke:#000;stroke-width:0.5px;}</style></defs><title>20</title><g id="Layer_1"><path class="cls-1" d="M166.84,235.55a6.89,6.89,0,0,1-6.87,6.87H7.11a6.89,6.89,0,0,1-6.86-6.87V7.12A6.89,6.89,0,0,1,7.11.25H160a6.89,6.89,0,0,1,6.87,6.87Z"/><path d="M57,106c-3.48,0-5.31-3.7-6.27-7.41a37.4,37.4,0,0,1-1-7.43l-1.78,0S47.57,106,40.61,106Z"/><path d="M62.88,91.15c0-7.24-10.87-12.5-14.05-18.23-3.19,5.73-14,11-14.06,18.23,0,3.42,3.15,6.19,7,6.19s7-2.77,7-6.19c0,3.42,3.14,6.19,7,6.19S62.88,94.57,62.88,91.15Z"/><path d="M126.23,106c-3.48,0-5.31-3.7-6.27-7.41a37.4,37.4,0,0,1-1-7.43l-1.77,0S116.81,106,109.85,106Z"/><path d="M132.12,91.15c0-7.24-10.87-12.5-14.06-18.23-3.18,5.73-14,11-14,18.23,0,3.42,3.14,6.19,7,6.19s7-2.77,7-6.19c0,3.42,3.15,6.19,7,6.19S132.12,94.57,132.12,91.15Z"/><path d="M93.72,73.48c-3.48,0-5.31-3.71-6.27-7.42a37.26,37.26,0,0,1-1-7.42l-1.77,0s-.34,14.85-7.3,14.86Z"/><path d="M99.61,58.64c0-7.25-10.88-12.5-14.06-18.23-3.18,5.73-14,11-14,18.23,0,3.42,3.14,6.19,7,6.19s7-2.77,7-6.19c0,3.42,3.15,6.19,7,6.19S99.61,62.06,99.61,58.64Z"/><path d="M40.14,136.79c7,0,7.29,14.86,7.29,14.86l1.78,0a37.26,37.26,0,0,1,1-7.42c1-3.71,2.79-7.42,6.27-7.42Z"/><path d="M62.42,151.63c0,7.25-10.88,12.5-14.06,18.23-3.18-5.73-14-11-14.06-18.23,0-3.42,3.15-6.19,7-6.19s7,2.77,7,6.19c0-3.42,3.15-6.19,7-6.19S62.42,148.21,62.42,151.63Z"/><path d="M109.85,136.79c7,0,7.29,14.86,7.29,14.86l1.77,0a37.26,37.26,0,0,1,1-7.42c1-3.71,2.79-7.42,6.27-7.42Z"/><path d="M132.12,151.63c0,7.25-10.87,12.5-14.06,18.23-3.18-5.73-14-11-14-18.23,0-3.42,3.14-6.19,7-6.19s7,2.77,7,6.19c0-3.42,3.15-6.19,7-6.19S132.12,148.21,132.12,151.63Z"/><path d="M40.61,196.91c7,0,7.29,14.85,7.29,14.85l1.78,0a37.26,37.26,0,0,1,1-7.42c1-3.71,2.79-7.42,6.27-7.41Z"/><path d="M62.88,211.75C62.85,219,52,224.24,48.83,230c-3.19-5.73-14-11-14.06-18.22,0-3.42,3.15-6.19,7-6.19s7,2.77,7,6.19c0-3.42,3.14-6.19,7-6.19S62.88,208.33,62.88,211.75Z"/><path d="M110.31,196.91c7,0,7.29,14.85,7.29,14.85l1.78,0a37.26,37.26,0,0,1,1.05-7.42c1-3.71,2.79-7.42,6.27-7.41Z"/><path d="M132.59,211.75c0,7.24-10.87,12.49-14.06,18.22-3.18-5.73-14-11-14-18.22,0-3.42,3.14-6.19,7-6.19s7,2.77,7,6.19c0-3.42,3.15-6.19,7-6.19S132.59,208.33,132.59,211.75Z"/><path d="M77.33,169.19c7,0,7.29,14.85,7.29,14.85H86.4a37.31,37.31,0,0,1,1-7.43c1-3.71,2.79-7.42,6.27-7.41Z"/><path d="M99.61,184c0,7.24-10.88,12.49-14.06,18.23-3.18-5.74-14-11-14.06-18.23,0-3.42,3.15-6.19,7-6.19s7,2.77,7,6.19c0-3.42,3.15-6.19,7-6.19S99.61,180.61,99.61,184Z"/><path d="M57,46.11c-3.48,0-5.31-3.71-6.27-7.41a37.4,37.4,0,0,1-1-7.43l-1.78,0s-.33,14.85-7.29,14.86Z"/><path d="M62.88,31.27C62.85,24,52,18.77,48.83,13c-3.19,5.73-14,11-14.06,18.23,0,3.42,3.15,6.19,7,6.19s7-2.77,7-6.19c0,3.42,3.14,6.19,7,6.19S62.88,34.69,62.88,31.27Z"/><path d="M126.7,46.11c-3.48,0-5.31-3.71-6.27-7.41a37.4,37.4,0,0,1-1.05-7.43l-1.77,0s-.34,14.85-7.3,14.86Z"/><path d="M132.59,31.27c0-7.24-10.87-12.5-14.06-18.23-3.18,5.73-14,11-14,18.23,0,3.42,3.14,6.19,7,6.19s7-2.77,7-6.19c0,3.42,3.15,6.19,7,6.19S132.59,34.69,132.59,31.27Z"/><path d="M12.72,25.79V24.32h1.5V9.72L12.53,12v-1.8l2-2.74h1.69V24.32h1.53v1.47Z"/><path d="M22.71,26.13c-1.08,0-1.91-.8-2.48-2.41a21.8,21.8,0,0,1-.85-6.94,21.87,21.87,0,0,1,.85-7c.57-1.61,1.4-2.42,2.48-2.42s1.89.81,2.46,2.42a21.82,21.82,0,0,1,.86,7,21.75,21.75,0,0,1-.86,6.94C24.6,25.33,23.78,26.13,22.71,26.13Zm0-1.4c.43,0,.73-.44.89-1.32a52.19,52.19,0,0,0,.24-6.63,52.44,52.44,0,0,0-.24-6.62c-.16-.89-.46-1.34-.89-1.34s-.74.44-.9,1.32a49.59,49.59,0,0,0-.25,6.64,49.5,49.5,0,0,0,.25,6.63Q22,24.73,22.71,24.73Z"/><path d="M154,216.37v1.47h-1.5v14.6l1.69-2.23V232l-2,2.74h-1.69V217.84h-1.53v-1.47Z"/><path d="M144,216c1.08,0,1.9.8,2.47,2.41a28.47,28.47,0,0,1,0,13.89c-.57,1.61-1.39,2.42-2.47,2.42s-1.9-.81-2.47-2.42a28.47,28.47,0,0,1,0-13.89C142.11,216.83,142.94,216,144,216Zm0,1.4c-.44,0-.73.44-.89,1.32a49.5,49.5,0,0,0-.25,6.63,49.73,49.73,0,0,0,.25,6.62c.16.89.45,1.34.89,1.34s.74-.44.9-1.32a52.28,52.28,0,0,0,.24-6.64,52.19,52.19,0,0,0-.24-6.63Q144.67,217.43,144,217.43Z"/><path d="M19,39.28c-1.1,0-1.67-1.16-2-2.33a11.94,11.94,0,0,1-.33-2.34h-.56s-.1,4.68-2.29,4.68Z"/><path d="M20.87,34.61c0-2.28-3.42-3.93-4.42-5.74-1,1.81-4.42,3.46-4.43,5.74a2.09,2.09,0,0,0,2.21,2,2.09,2.09,0,0,0,2.22-2,2.09,2.09,0,0,0,2.21,2A2.09,2.09,0,0,0,20.87,34.61Z"/><path d="M148,203c1.1,0,1.68,1.17,2,2.33a11.94,11.94,0,0,1,.33,2.34h.56s.1-4.68,2.29-4.68Z"/><path d="M146.15,207.62c0,2.28,3.42,3.94,4.43,5.74,1-1.8,4.41-3.46,4.42-5.74a2.23,2.23,0,0,0-4.42,0,2.23,2.23,0,0,0-4.43,0Z"/></g></svg>