<svg id="Слой_1" data-name="Слой 1" xmlns="http://www.w3.org/2000/svg" viewBox="0 0 167.09 242.67"><defs><style>.cls-1,.cls-2,.cls-3{fill:#fff;}.cls-1,.cls-2{stroke:#000;}.cls-1{stroke-width:0.5px;}.cls-2{stroke-linejoin:round;stroke-width:1.5px;}.cls-4{fill:#1c1585;}.cls-5{fill:#f8c20f;}.cls-6{fill:#e61408;}</style></defs><title>21</title><g id="Layer_1"><path class="cls-1" d="M166.84,235.55a6.89,6.89,0,0,1-6.87,6.87H7.11a6.89,6.89,0,0,1-6.86-6.87V7.12A6.89,6.89,0,0,1,7.11.25H160a6.89,6.89,0,0,1,6.87,6.87Z"/><path class="cls-2" d="M159.07,238.11H8.23V5.12H159.07Z"/><path d="M47.71,183.63,42.08,180,119.4,59.58,125,63.19Z"/><path class="cls-3" d="M79.09,129.78a2,2,0,1,1-2.85.6A2.07,2.07,0,0,1,79.09,129.78Z"/><path d="M78.34,131a.64.64,0,0,1,.19.89.64.64,0,1,1-.19-.89Z"/><path class="cls-3" d="M81.91,125.22a2,2,0,1,1-2.84.6A2.06,2.06,0,0,1,81.91,125.22Z"/><path d="M81.17,126.38a.66.66,0,0,1,.18.9.64.64,0,0,1-.89.21.65.65,0,0,1-.19-.9A.66.66,0,0,1,81.17,126.38Z"/><path class="cls-3" d="M85,120.15a2,2,0,1,1-2.84.59A2,2,0,0,1,85,120.15Z"/><path d="M84.26,121.31a.64.64,0,0,1,.18.9.64.64,0,1,1-1.07-.69A.64.64,0,0,1,84.26,121.31Z"/><path class="cls-3" d="M88.16,115.14a2,2,0,1,1-2.85.59A2.06,2.06,0,0,1,88.16,115.14Z"/><path d="M87.42,116.3a.65.65,0,0,1,.18.9.64.64,0,0,1-.89.21.65.65,0,0,1-.19-.9A.66.66,0,0,1,87.42,116.3Z"/><path class="cls-3" d="M91.39,110.21a2,2,0,1,1-2.2,3.43,2,2,0,1,1,2.2-3.43Z"/><path d="M90.65,111.37a.66.66,0,0,1-.71,1.11.66.66,0,0,1,.71-1.11Z"/><path class="cls-3" d="M94.5,105.14a2,2,0,1,1-2.85.6A2.06,2.06,0,0,1,94.5,105.14Z"/><path d="M93.75,106.31a.65.65,0,0,1-.71,1.1.65.65,0,0,1,.71-1.1Z"/><path class="cls-3" d="M97.83,100.1a2,2,0,1,1-2.85.6A2.07,2.07,0,0,1,97.83,100.1Z"/><path d="M97.08,101.27a.65.65,0,0,1-.71,1.1.65.65,0,0,1,.71-1.1Z"/><path class="cls-3" d="M100.93,95.21a2,2,0,1,1-2.2,3.43,2,2,0,1,1,2.2-3.43Z"/><path d="M100.19,96.37a.66.66,0,1,1-.9.21A.65.65,0,0,1,100.19,96.37Z"/><path class="cls-3" d="M104.41,89.89a2,2,0,1,1-2.85.6A2.06,2.06,0,0,1,104.41,89.89Z"/><path d="M103.66,91.06a.65.65,0,0,1-.71,1.1.63.63,0,0,1-.18-.89A.64.64,0,0,1,103.66,91.06Z"/><path class="cls-3" d="M107.4,85.28a2,2,0,1,1-2.85.59A2.06,2.06,0,0,1,107.4,85.28Z"/><path d="M106.65,86.44a.65.65,0,0,1,.19.9.66.66,0,0,1-.9.21.66.66,0,0,1-.18-.9A.64.64,0,0,1,106.65,86.44Z"/><path class="cls-3" d="M110.88,79.76a2,2,0,1,1-2.85.59A2.06,2.06,0,0,1,110.88,79.76Z"/><path d="M110.13,80.92a.66.66,0,1,1-.89.21A.64.64,0,0,1,110.13,80.92Z"/><path class="cls-3" d="M114.09,74.81a2,2,0,1,1-2.2,3.43,2,2,0,1,1,2.2-3.43Z"/><path d="M113.35,76a.66.66,0,1,1-.9.21A.65.65,0,0,1,113.35,76Z"/><path class="cls-3" d="M117.43,70a2,2,0,1,1-2.84.59A2,2,0,0,1,117.43,70Z"/><path d="M116.69,71.15a.65.65,0,1,1-.9.21A.65.65,0,0,1,116.69,71.15Z"/><path class="cls-3" d="M120.65,65a2,2,0,1,1-2.85.6A2.07,2.07,0,0,1,120.65,65Z"/><path d="M119.9,66.2a.65.65,0,0,1-.71,1.1.65.65,0,0,1,.71-1.1Z"/><path class="cls-3" d="M50.46,174.91a2,2,0,1,1-2.85.6A2.07,2.07,0,0,1,50.46,174.91Z"/><path d="M49.71,176.08a.64.64,0,0,1,.19.89.64.64,0,1,1-.19-.89Z"/><path class="cls-3" d="M53.54,169.71a2,2,0,1,1-2.85.6A2.06,2.06,0,0,1,53.54,169.71Z"/><path d="M52.8,170.87a.65.65,0,0,1,.18.9.64.64,0,1,1-1.07-.69A.65.65,0,0,1,52.8,170.87Z"/><path class="cls-3" d="M63.15,155.14a2,2,0,1,1-2.85.59A2.06,2.06,0,0,1,63.15,155.14Z"/><path d="M62.41,156.3a.65.65,0,0,1,.18.9.64.64,0,0,1-.89.21.65.65,0,0,1-.19-.9A.66.66,0,0,1,62.41,156.3Z"/><path class="cls-3" d="M56.57,164.91a2,2,0,1,1-2.85.6A2.07,2.07,0,0,1,56.57,164.91Z"/><path d="M55.82,166.08A.64.64,0,0,1,56,167a.64.64,0,1,1-1.08-.69A.65.65,0,0,1,55.82,166.08Z"/><path class="cls-3" d="M59.78,160.13a2,2,0,1,1-2.2,3.43,2,2,0,1,1,2.2-3.43Z"/><path d="M59,161.29a.66.66,0,1,1-.9.21A.65.65,0,0,1,59,161.29Z"/><path class="cls-3" d="M69.35,145.07a2,2,0,1,1-2.85.6A2.06,2.06,0,0,1,69.35,145.07Z"/><path d="M68.61,146.24a.65.65,0,0,1-.71,1.1.64.64,0,0,1-.19-.89A.65.65,0,0,1,68.61,146.24Z"/><path class="cls-3" d="M66.17,149.85a2,2,0,1,1-2.85.6A2.06,2.06,0,0,1,66.17,149.85Z"/><path d="M65.42,151a.65.65,0,1,1-.89.21A.65.65,0,0,1,65.42,151Z"/><path class="cls-3" d="M72.23,139.86a2,2,0,1,1-2.85.6A2.07,2.07,0,0,1,72.23,139.86Z"/><path d="M71.48,141a.65.65,0,0,1-.71,1.1.65.65,0,0,1,.71-1.1Z"/><path class="cls-3" d="M75.67,134.86a2,2,0,1,1-2.85.59A2.05,2.05,0,0,1,75.67,134.86Z"/><path d="M74.92,136a.64.64,0,0,1,.18.9.64.64,0,1,1-1.07-.69A.64.64,0,0,1,74.92,136Z"/><path class="cls-4" d="M87.7,5.85l1.88-.12,1.53.34,5,3,5.48,2.94,3.32,1.63-1.8,8.47-6.33-2-6.51-1.61-6.37-.76-7.9.41L69.13,20,65,21.86l-3.23,2.31-1.47-.78-3-5.11L54.54,16l3.2-2.41,7.85-6.53,7.06.4"/><path class="cls-4" d="M101.46,47.45l6.91,2.17,3.76,1.85,3.25,3.15L116.71,57l-8.24,7.71-2.6,15.05L105,81.63l-9.57,15.2L92.24,99l-1.84-.31L89.76,54"/><path class="cls-4" d="M72.26,95.26l5.5,4.24,4.92,2.56-.05-2.58-.42-4.64"/><path class="cls-4" d="M83.38,95.66,61,95.62,61,68.5l22.4,0Z"/><path class="cls-4" d="M41.5,52.92l3.6-1,4.55-1.77,2.55-.76,1.29,2,1.7.26,1.63-1.53L57,49l4,1-.77,2.46,1,2.61,1.5,1.28,2.61-.18,1.28-1.47.28-2.62,2,.27L69.42,54l4.85,4.37,1.88,4.1,2.73,8.46-16.3-.34L42.76,54.27l-1.38-.73"/><path class="cls-4" d="M75.82,124.5l-15.08,0,0-18.71,15.08,0Z"/><path class="cls-4" d="M74.49,130,67,141.4l-.47.45-4.4,6.75-3.66-.46-3.22-2.76,5.68-21.72,13.91.14"/><path class="cls-4" d="M11.37,141.71H9.87V139h1.5Z"/><path class="cls-4" d="M8.79,143.11l2.77,5,.78-.16-1.28-6.5-2.1,0"/><path class="cls-4" d="M10.46,118.06H8.94L8.9,142h1.51Z"/><path class="cls-4" d="M19.11,118.6l-10.29,0,0-28.25,10.29,0Z"/><path class="cls-4" d="M29.2,90.7l-12.7,0,0-14,12.71,0Z"/><path class="cls-4" d="M16.06,76.72,12,83.05,9.25,88.79l.13,2.52,8.45.42L17.1,76.52"/><path class="cls-5" d="M112,60.24l3.49-2.77,1.75-.62,1.56,1.73-1.11,4.1-.46.7-1.65,2.75-8.68,13.66-.7-1.59.74-8.37,1-4.18"/><path class="cls-6" d="M53.74,103.55,56,100.13l3.56-2.84,7.86,8.59L60.32,126,55.1,145.42l-2.71-.8-9.77-4.57-2.84-5.7,1.08-4,3-8.17,4.54-9.85"/><path class="cls-6" d="M39.39,163.49l10.23,5.23-1.14,1.79-2.06,3.42-4,6.34-3.51-2.8-4.54-4L29.27,169l4.37-1,3.9-2.6"/><path class="cls-6" d="M56.37,61.5,60,66.17,66.4,77.75l4,10.06,2,7.66-.77,1.11L62,92,52.86,81.1,44.55,87,42.6,85.2"/><path class="cls-6" d="M36.12,87.55l6,6.33L35.6,104.34l-6.43.14-5.1-3,6.15-13,3.67-1.65"/><path class="cls-6" d="M41.42,54l7.83,3.49-16,21.46-4.95.35-7.81-2.48L25,71.3l4.5-6.6,3.62-4"/><path class="cls-6" d="M68.93,52.25l2.25-1.93,5.25,3.9,7.77.56,8.08-3.16L97.78,46,102,47l-2.58,5-4,3.58L86.6,59.27l-4.93.46L76,58.8l-4.24-2.46-2.41-2.57"/><path class="cls-5" d="M40,134.86l1.57,1.84,2.69,1.92,3.08.93,1.53,2.77,1.91,2.05,4.06.73,2.69,2.66,4.58,1.07-2.19,3.86-4.8,7.64-1.54,2-2.6,4-1.27,2.29-3.18-1.38-8.18-4.52-2.77-2.22-.64-1,3.58-19.56"/><path class="cls-5" d="M81.11,83.2l1.5,18.55,3.28,1.74,4.71-2.64-.17-4.39V83.08l1.17-18L93.86,57l-3.43,1.09-6.79,1.68-7.26-.92-1.76-.07,3,7,1.79,7.59"/><path class="cls-5" d="M33.55,75.6l-.53.29-3.65,3.75-3.75,3.29L21.92,87l.61,1,7.7,2.72,2.54-2.9,2.77-.53L38,89.47l6.73,6.74.45-.53L45,89l-2.26-3.4,1.15-1.92,7.66-12.06L56.6,61.51l-3.61-3L49,57.3l-3.89,5.54L40.5,68.66"/><path class="cls-5" d="M12.72,103.89l2-5.13,2.89-5.82,4.43-6L32.22,88.4l-1.68,2.06-2.54,4-2.22,4.76-1.93,5.74H12.44"/><path class="cls-5" d="M10.51,135.77l8.86-.07,1.51-20.14,3.21-11.42-11.37,0-2,6.64-.68,7.83,0,10.68"/><path class="cls-5" d="M13.79,151.64l5,6.82,6.45,6.82L29,168.17l-.47-1.43-.93-2-2.46-5L21.2,148l-1.48-6.55-.8-6.29-8.7.4,1.51,10"/><path class="cls-5" d="M40.19,96.3,39,96.19,36.45,96l1.25,3.62-4.32.06,1.78,3.93-4,.92,2.37,2,4.43.71,3,.72,3.12-4.54L47,100.16l-2-3.55-2.73-2.76-2-1.51L40.62,95"/><path class="cls-5" d="M74.89,129.35l2.48-3.69,1.56-2.77,5.12-7.72L75.42,112"/><path d="M54,15.54c0,.66,0,.71.5,1.07a15.84,15.84,0,0,1,1.42,1.15,11.31,11.31,0,0,1,2,2.17c1.25,1.92,2.71,3.86,3,6.17a41.59,41.59,0,0,0,1.61,6.42A3.68,3.68,0,0,1,62.63,34c-.09.67-.36.87-.82,1.38a7.35,7.35,0,0,1-1.14,1.28c-.43.29-1.14.47-1.62.72-1.78.91-1.29,3.15-.89,4.67A8.86,8.86,0,0,0,55,43.2c-.87.52-.92,1.81-1.42,2.6a20.91,20.91,0,0,1-1.79,2.9c-.66.74-2.21,1-3.13,1.34a57.3,57.3,0,0,1-6,2.35,24.29,24.29,0,0,0-3.57,1.23,3.76,3.76,0,0,0-2.26,2.19,6,6,0,0,1-1.69,2.72,36,36,0,0,0-2.69,2.4,25.67,25.67,0,0,0-4.14,4.92,53.25,53.25,0,0,1-3.73,5.43c-.73.91-1.45,1.85-2.25,2.7a7.16,7.16,0,0,1-2.55,2.07,19.94,19.94,0,0,1-3.38.29c-1,.11-1.77,1.64-2.24,2.38-1.13,1.8-2,3.69-3.05,5.55s-2.53,3.88-2.53,6.19c0,1.94,0,3.89,0,5.84l-.05,29.88,0,13.51c0,1.8-.47,4.43.8,5.9a51.25,51.25,0,0,1,3.6,5.63,93.46,93.46,0,0,0,18.05,19.72c2,1.67,3.92,3.4,5.93,5.05a38.17,38.17,0,0,0,5.55,4.28,3.25,3.25,0,0,1,.24-.76l-1-.74a5.21,5.21,0,0,1-1.54-1.63,3.35,3.35,0,0,1,0-1.78c.12-.68.24-1.36.35-2a48.33,48.33,0,0,1,1.75-7.8,10.79,10.79,0,0,1,2.5,1.19c.84.45,1.88,1,1.74,2.11a52.32,52.32,0,0,0-.76,6c1.11-1,1.86-2.63,2.63-3.86s1.61-2.56,2.42-3.83c.91-1.43,1.8-2.88,2.73-4.3.75-1.15,2-2.6,2.25-4a8.15,8.15,0,0,1-3.31-.93c-1-.39-1.87-.84-2.79-1.31a38.22,38.22,0,0,1-5.56-3.45c-1.87-1.42-3.85-2.79-5.58-4.37-.95-.86-.88-1.73-.69-2.9s.34-2.05.56-3.07a10.72,10.72,0,0,0,.4-2.25c1.23.36,1.67-.11,1.75-1.24,1.32.27,2.37,1.5,3.75,1.75-.13.69-.76,1.18-1.13,1.75-.1.14-.44.57-.37.75s.66.3.79.35A13.65,13.65,0,0,1,45.69,145c.91.55,1.26-.21,1.3-1,1.46.83,2.73,2,4.24,2.75-.62.64-1.26,1.15-1.26,2.07,0,.49,1.71.45,2,.68.56.4,1.34,1.25,2.08,1.26s.41-.52.41-1.09a4.72,4.72,0,0,1,.25-1.16,17,17,0,0,0,5,2.26c-.54.83-1.22,1.8-.5,2.75a13.66,13.66,0,0,0,2.1-3.12c.75-1.19,1.51-2.38,2.24-3.58a74.08,74.08,0,0,0,4.18-6.79,7.32,7.32,0,0,0-1.84,2.38c-.65,1-1.29,2-2,3a8.15,8.15,0,0,1-1.79,2.47c-.79.51-2.28.19-3.12-.11s-2.35-.93-2.8-1.79,0-2.4.13-3.25c.42-2.06.94-4.14,1.44-6.19,1-4.2,2.26-8.45,3.64-12.55,1.43-4.26,2.82-8.54,4.49-12.72a38.89,38.89,0,0,0,1.62-3.77,14.23,14.23,0,0,1,2.77,1.6c.88.55,1.74,1.16,2.6,1.75s1.86,1.27,1.86,2.47,0,2.47,0,3.7a20.69,20.69,0,0,1-.12,3c-.16,1.07-.08,2.12-.15,3.19,0,.52-.19,1-.24,1.5s0,1.18,0,1.75c-.1,1.09-.17,2.23-.34,3.31a3.09,3.09,0,0,0-.13.94,5,5,0,0,0,1.16-1.56,4,4,0,0,0,.33-2.18,45.3,45.3,0,0,1,.24-4.81c.17-1.43-.07-2.89.12-4.32a34.43,34.43,0,0,0,.18-4.87c1.94.25,1.24,5.26,1.24,6.53,0,2.26-.26,4.46-.26,6.72A11.14,11.14,0,0,0,78.5,124l1.91-2.84c1.26-1.88,2.46-3.81,3.72-5.68q3.84-5.76,7.56-11.58c4.67-7.33,9.15-14.78,13.83-22.11.42-.65,2-2.53,1.67-3.18-.61-1.15-.22-2.37-.12-3.58a8.68,8.68,0,0,1,.21-1.69,4.49,4.49,0,0,1,.24-.79c.07-.13,0-.4.17-.4s.4-.06.45.07c.39,1,1.34,1.86,1.47,2.94,1.53-1.31-.14-2.71-.83-4a6.64,6.64,0,0,1-.41-5,10.38,10.38,0,0,1,1.65,2.8c.46,1.06,1.31,2.28,1.34,3.46a5.35,5.35,0,0,0,1.5-2.25c-.73-.11-2.5-1.57-1.67-2.35.62-.59.81-.77,1.68-.45a15.46,15.46,0,0,1,1.5.8,7.91,7.91,0,0,1,1.3-2.13c.52-.74.93-1.57,1.43-2.32s1-1.57,1.46-2.38a5.61,5.61,0,0,0,.54-1.1,1.63,1.63,0,0,0,0-1.49c-.62-1.74-2.42-3.19-3.65-4.47-.57-.6-1-1.29-1.63-1.88a9,9,0,0,1-1.71-2,8.21,8.21,0,0,1,2,.3,7.77,7.77,0,0,0,2.25.46,14.31,14.31,0,0,0-.94-1.1,5.1,5.1,0,0,0-.76-1L113.18,48c-.23-.16-1.38.25-1.66.3a2.58,2.58,0,0,1-1.37.09c-.53-.23-.57-1-.72-1.46a10.93,10.93,0,0,0-1.27-2.81,2.59,2.59,0,0,1,1.7.49,4.56,4.56,0,0,0,2,1c-.66-1-.94-2.27-1.94-3a14.24,14.24,0,0,1-3-2.75c.84.46,1.5,1.29,2.44,1.58a11.09,11.09,0,0,0,3.31.18c-.1-.72-1.08-1-1.63-1.21a3.87,3.87,0,0,1-1.62-1.29,2.86,2.86,0,0,0,2.5-.25,5.32,5.32,0,0,0-.94-.63c-.47-.35-.91-.74-1.36-1.12a2.23,2.23,0,0,0-2.45-.51c.11-.59.88-1.5,1.55-1.35s2,.56,2.21-.39a6,6,0,0,1-1.88-1.1,3.34,3.34,0,0,0-2.3-.44c-.69.06-1.45-.58-2-.92a4.93,4.93,0,0,0-2-.56,6.7,6.7,0,0,0,1-3,6.4,6.4,0,0,0-1.12-3.09c-.49-.94.53-2.2,1-3.07a13.63,13.63,0,0,0,.74-3c.25-1.1.51-2.2.82-3.29a7.69,7.69,0,0,0,.39-1.46c.1-.93.14-1-.49-1.69a5,5,0,0,0-1.46-.61,15.77,15.77,0,0,1-1.55-.75c-1.08-.53-2.12-1.09-3.15-1.69C97,9.17,95.12,8.06,93.26,7a7,7,0,0,0-2.73-1.3,15.72,15.72,0,0,0-3.36,0,24.76,24.76,0,0,1-3,.13,24.73,24.73,0,0,0-3.31.41c-2.08.34-4.17.43-6.26.73a41.65,41.65,0,0,1-6.12.08c-1,0-1.9-.24-2.87-.25-.77,0-1.77,1.22-2.31,1.69-2.91,2.54-5.85,5.32-9.36,7m50,.34c-2.11-.33-4.14-1.63-6.06-2.51a47.75,47.75,0,0,1-5.68-3.16c-.89-.57-1.72-1.42-2.65-1.89s-2,0-3.1.31A56.08,56.08,0,0,1,80,9.86c-1.1.14-2.2.27-3.3.43s-2.15,0-3.21.11a19.06,19.06,0,0,1-3.54.11c-1,0-2.07-.43-3,.05a12.33,12.33,0,0,0-2.38,2.14,27,27,0,0,1-2.51,2c-.94.7-1.87,1.49-2.87,2.12a3.83,3.83,0,0,1-1.38.54c-.75.16-1-.07-1.74-.41-.48-.24-1-.49-.75-1s.78-.74,1.12-1c.88-.56,1.69-1.17,2.53-1.79a42.46,42.46,0,0,0,5.22-4.34c.77-.78,1.34-1.5,2.55-1.3a20.48,20.48,0,0,0,3.12.31h3.38c1.16,0,2.25-.19,3.41-.24a50.43,50.43,0,0,0,6.11-.85c1.1-.19,2.2-.32,3.3-.47a16.3,16.3,0,0,1,3.19-.41,5.21,5.21,0,0,1,3,1.26c1,.67,2,1.29,3,1.94C97,10.21,99,11,100.84,12c1,.55,2,1,2.92,1.54s.55,1.63.2,2.33M88.72,9.6a19.62,19.62,0,0,1,2.82,1.77,2.67,2.67,0,0,1,1,1.24,4.45,4.45,0,0,1-.26,1.63,12.9,12.9,0,0,1-1.12,3.27c-.46.82-2.2.25-2.9.13a40.84,40.84,0,0,0-12.82.12,29.17,29.17,0,0,0-12,4.63,3.85,3.85,0,0,1-1.52.77c-.72.13-.94-.19-1.39-.72A8,8,0,0,1,59,19.74c-.11-.55-.2-.91.32-1.29s.94-.67,1.41-1c.93-.67,1.85-1.37,2.75-2.09,1.52-1.22,3.09-3.84,5.28-3.46a21.61,21.61,0,0,0,3.6.17c1.08,0,2.06-.16,3.13-.23a39.34,39.34,0,0,0,6.4-.65c2-.47,4.25-1.5,6.35-1.57l.5,0M94,13.11a20.25,20.25,0,0,1-1.25,5c-.61-.67,0-2,.18-2.7.1-.39.16-.79.27-1.18.17-.61.07-1.21.8-1.12m1.25.75a17,17,0,0,1-1,4.5c-.53-.58-.09-1.61.07-2.25s.2-1.79.93-2.25m1.25,1a9.9,9.9,0,0,1-1,4c-.39-.52,0-1.44.19-2s.29-1.59.82-2m1.5.51a6,6,0,0,1-.25,1.25A.89.89,0,0,1,98,15.37m1.25.75v.75a.54.54,0,0,1,0-.75m1.5.5a7.52,7.52,0,0,1-1,3.75c-.32-.5,0-1.35.17-1.88a3.52,3.52,0,0,1,.84-1.87m-3.25.49A5.29,5.29,0,0,1,97,19.36c-.49-.51,0-1.86.51-2.25m4.5.51a7.75,7.75,0,0,1-.76,3.25,3.8,3.8,0,0,1,.76-3.25m-3.25.25a10.34,10.34,0,0,1-.26,2c-.44-.47-.16-1.58.26-2M88.4,48.6a7.49,7.49,0,0,1,1.65-1.77c.57-.53,1.07-1.16,1.61-1.73A20.68,20.68,0,0,0,89.2,47a19.73,19.73,0,0,1-2.88,1.83,12.33,12.33,0,0,1-6.26,1.47c-2,0-4.32-.35-5.65-2.09s-3.07-3.52-4.55-5.33A19.91,19.91,0,0,1,67,37.08a26.25,26.25,0,0,1-.91-3,13.77,13.77,0,0,0-.81-3.12c-1-2-2.24-4-2.34-6.34,0-.28.61-1.05.81-1.26a7.53,7.53,0,0,1,1.49-1,26.12,26.12,0,0,1,3-1.54A31.63,31.63,0,0,1,81,18.34c1.79,0,4.7-.47,6.21.72a7.71,7.71,0,0,1,2.73,6.09,22.4,22.4,0,0,0,.45,3.14c.21,1.12,1,1.66,1.47,2.62a6.27,6.27,0,0,1,.75,3.25,4.65,4.65,0,0,0,.8,3c.18.32.67.93.66,1.29,0,.64,0,1.26-.11,1.89-.11,1.08.54,2.26.36,3.32S93,45.68,92.23,46.44a9.21,9.21,0,0,1-2.58,1.71,4.25,4.25,0,0,1-1.25.45m5-19.49c0-.22,0-1.3.41-1.25.92.12.92.09,1.28.95a3.43,3.43,0,0,1-.31,1.46c-.36.55-1.1.27-1.62.21s-.92,0-1.3-.47A5.34,5.34,0,0,1,91,28.4a10.53,10.53,0,0,1-.34-3.07,11.2,11.2,0,0,0-.62-3.23,14.44,14.44,0,0,0-.6-1.59c-.1-.22-.66-1.16-.52-1.41.38-.64,2.42.21,2.79.48a5.08,5.08,0,0,1,1.88,2.78,12.34,12.34,0,0,1,0,3.59c-.08,1-1.51,2.41-.18,3.16m.76-9c.88.58,1.17,1.9,1.42,2.85a11.92,11.92,0,0,1,.32,3.15H94.85c-.28,0-.16-.33-.16-.58,0-.7,0-1.4,0-2.1,0-.9-1-2.57-.47-3.32m1.5.5c1.3,1.07,1.43,3.7,1.49,5.25.5-1,.26-2.44.26-3.5a2.46,2.46,0,0,1,.71,2.15,2.73,2.73,0,0,1-.45,1.3.57.57,0,0,1-1,0c-.44-.72-.31-1.85-.48-2.67s-.83-1.78-.55-2.5M76.45,23.83c.88.18,2.24-.55,3.06-.89a13.74,13.74,0,0,1,3.12-.65,6.59,6.59,0,0,1,3.3.16c.92.31,1.6,1.08,2.52,1.4A4,4,0,0,0,86,21.79a6.9,6.9,0,0,0-3.52-.27c-1.12.17-2.24.3-3.35.56-.74.18-2.52.9-2.69,1.75M100,22.62a12.32,12.32,0,0,1,.24,2.5c.52-.79.34-1.7.76-2.5.61.43.28,1.39.09,2-.35,1.07-1.05,1.14-2.05.77-.53-.19-.45-.52-.52-1.05,0-.22-.16-1.07,0-1.19.44-.4.53.35.57.58a7.67,7.67,0,0,1,.17,1.17c.33-.68.11-1.77.76-2.25m-21,5.46a6.47,6.47,0,0,0,1.75.41,8,8,0,0,0,2,.33A8.28,8.28,0,0,0,85,28.45a15.85,15.85,0,0,1,1.94-.85,17.21,17.21,0,0,1-.25,2.25c.93-.21,1.58-2.75,1.12-3.45-.32-.48-1.18-.73-1.66-1a16.83,16.83,0,0,0-1.9-.95,4.35,4.35,0,0,0-3.93.05,2.05,2.05,0,0,0-.9,1.71,19,19,0,0,1-.48,1.87M63.69,26.81c1-.21,1.66-1.42,2.79-1.57a12.34,12.34,0,0,1,1.71-.15c.45,0,1.14.07,1.25-.52-1.58-.25-5.68-.07-5.75,2.24m22-.72a13.31,13.31,0,0,0-2.7-.66,10.47,10.47,0,0,0-2.8.4c0-1.17,1.43-1.58,2.4-1.4,1.25.23,2.42.47,3.1,1.66m-15.75-.77a9.88,9.88,0,0,1,1,2.75c-.58-.84-1.63-1.76-2.73-1.41s-2.53.93-2.52,2.4c.74-.47,1.08-1.1,1.94-1.42.64-.23,1.91-.71,2.06.43a10.69,10.69,0,0,0-1.5.07c-.62.1-.8.36-1.26.8a3.76,3.76,0,0,0-1.07,1.29c-.22.54-.13,1,.57.83-.47.83.5,1.61,1.25,1.75-.32-.51-.65-1-1-1.5.89,0,1.88-.28,2.75-.23a.92.92,0,0,1,.94.59c.14.24-.08.46.31.4.14,0,.4-.4.5-.5A26.82,26.82,0,0,1,71.67,36c0,1.5.69,2.88,2.32,3a2.78,2.78,0,0,0,2-.64c.65-.45,1.38-.21,2-.62.17-.11.7-.3.7-.53,0-.52,0-1.05,0-1.57a.9.9,0,0,0-1.34-.84c.23.27.59.46.74.8a5.79,5.79,0,0,1,.25,1.45c-.59-.12-1.72-.71-2.29-.32S74.74,38.17,74,38.32c-1.78.37-1.74-2.93-1.84-4-.16-1.69,0-3.4-.16-5.09-.14-1.17-.41-3.91-2.08-3.91m12.75.52c-.06.5-.57.67-1,.75-.15-.67.54-.7,1-.75m-20.5.21c.35.65.5,1.39.84,2A8.14,8.14,0,0,1,64,30.65c.2,1.22,1,3.68-.54,4.41,0-.83,0-1.64-.1-2.47a13.79,13.79,0,0,0-.65-2.07c-.28-1.07-1.28-3.46-.49-4.47m37.74,5.32a9,9,0,0,0-.08-2.54,6.06,6.06,0,0,1-.66-2.46,2.66,2.66,0,0,1,2,2.5c.07.93,0,2.49-1.22,2.5m2-.75a9.13,9.13,0,0,0-.13-2,6.1,6.1,0,0,1-.62-2.22c1.06,0,1.64.86,1.8,1.82.15.8-.06,2.21-1,2.43m-18-3.78a1.39,1.39,0,0,1-1.42,1.29c-.78.05-1.56,0-1.58-1a4.19,4.19,0,0,0,1.4.16c.55-.1,1.06-.32,1.6-.41m1.25,0c.26.48-.07.83-.5,1a1.23,1.23,0,0,1,.5-1m11.49,4.27c0-.5,0-1,0-1.5a3.08,3.08,0,0,1-1,1,10,10,0,0,1,.16-1.8,4,4,0,0,0-.41-1.7c1.82-.95,3.26,3.62,1.24,4m1.51-4c.76,1,1.66,4.15-.26,4.5.11-.83.36-1.62.46-2.46.07-.64-.65-1.44-.2-2M68.44,28.56c0,.52-.29.71-.75.75-.11-.55.2-.85.75-.75m12.25.53c.1.47.21.89.74,1a1.82,1.82,0,0,0-.74-1m-11.25.48c-.28.81-2.27,1.72-2.51.49a3.88,3.88,0,0,0,1.31.05c.41-.17.8-.36,1.2-.54m34.49,3.31c0,.34-.28.52-.5.75a.91.91,0,0,1,.75.75h-1c.26.27.86.76.18.76H98.13c-2.23,0-4.7-.85-4.7-3.51a5.4,5.4,0,0,1,2.36.92,3.91,3.91,0,0,0,2.81.73c1.83-.22,3.51-.82,5.33-.38m5.5,1.76c-.78,0-1.46-.51-2.25-.26.3-.91,1.9-.39,2.25.26m-44-.33a19.66,19.66,0,0,1,.65,2.62,4.75,4.75,0,0,1-.79,2.37,6.49,6.49,0,0,1-4.13,2.75c1.8,1,3.5-1.71,5-2.24,0,1.64-1.26,2.28-2.49,3a4.49,4.49,0,0,1-2,.19,3.24,3.24,0,0,1-1.95-.67c-.51-.6.18-1.43.71-1.74a6.09,6.09,0,0,1,2.09-.43,4,4,0,0,0,2.91-2.65c-.51.31-.88.73-1.37,1a4.28,4.28,0,0,1-1.81.41,12.2,12.2,0,0,0-1.82.19c-.6.15-1.15.49-1.75.59a2.22,2.22,0,0,1,.8-1.89c.26-.2.67-.64,1-.71s.85-.16,1.27-.27a4.66,4.66,0,0,0,2.33-1.12c.47-.49.61-1.64,1.37-1.5m39.74,4.57a15.19,15.19,0,0,0-2-.76,27.15,27.15,0,0,1,3.1,3.24c.86,1,2.73.83,3.39,2-1.62-.36-3.21-.43-4.38-1.76a12.65,12.65,0,0,0-1.94-1.93,4.18,4.18,0,0,0-2.11-.67c-1.7-.28-3.36,0-5-.54a3.69,3.69,0,0,1-2.54-3.63,8.55,8.55,0,0,1,2.78,1.08,7.78,7.78,0,0,0,3.21.68,17.93,17.93,0,0,1,3.18.38c.81.16,2.21,1,2.32,1.88m-.5-2c-.74.15-1.81-.51-2.49-.76.71-.67,2.08.07,2.49.76m5,1.26a9.61,9.61,0,0,0-1.5-.26,12.68,12.68,0,0,0-1.5.25c.62-1.17,2.65-1.63,3,0m-1.5.74a2.23,2.23,0,0,1,.75,1.25c-.4-.22-1.06-.74-.75-1.25m1.23,10.76c-1.1-.4-1.59-1.4-2.17-2.34a4.91,4.91,0,0,0-2.68-2.21,11.49,11.49,0,0,0-3.64-.47,12.9,12.9,0,0,1-3.5-.76,5.53,5.53,0,0,1,1.25,1.26A3.66,3.66,0,0,1,95.46,43a3.72,3.72,0,0,1-.53-1.79,20.88,20.88,0,0,0,.24-2.09A2.27,2.27,0,0,1,97,40a9.12,9.12,0,0,0,1.76,1.75,11.1,11.1,0,0,0,4.74,1.61c.7.14,1.43,0,2.13.18,1.06.26,1.42.86,2.1,1.68a5.87,5.87,0,0,1,.81,2,18.12,18.12,0,0,1,.83,2.45M73.67,41.57a2.89,2.89,0,0,0-1-.25c.12.9.62,1.11,1.43.93l2-.47a20.43,20.43,0,0,1,4.56-.94,5.3,5.3,0,0,0-.3-1c-.18-.49-.11-.47-.6-.42a10.34,10.34,0,0,0-1,.3,4.34,4.34,0,0,1-1.18-.09,5.84,5.84,0,0,0-2.14.4c-.85.24-1.7.46-1.73,1.52m29.75-.19c-.44-.11-3.86-.7-3.25-1.51.3-.4,1.43,0,1.75.09.62.22,1.41.7,1.5,1.42M78.67,40.33a5.24,5.24,0,0,1-2.16.66,20.45,20.45,0,0,1-2.59.58c.33-1,1.15-1,2-1.16a5.19,5.19,0,0,1,1.4-.23,5.46,5.46,0,0,0,1.32.15m-11,.23c.58.88,1.16,1.76,1.72,2.65a16.91,16.91,0,0,1,1.1,2.55,4.79,4.79,0,0,1,.4,3,2.73,2.73,0,0,1-1.74,1.79c.17-.6.51-1.15.63-1.75a12.14,12.14,0,0,0,.13-2.25A13.26,13.26,0,0,1,69.22,48c-.31.47-.56,1.37-1,1.69-1.17.94-2.44.67-3.85.63.56-.7,1.47-.66,2.18-1.11s1.77-.92,2.08-1.89A23.3,23.3,0,0,1,65,49.11c-1.23.33-3.08,1-3.32,2.44.66-.33,1.29-.77,2-1.06s.4-.06.82.19a2.8,2.8,0,0,0,1,.38,10.07,10.07,0,0,1-1.91,1c-1,.6-.82,1.1-.57,2.11.11.45.23.54.63.78s.55.1,1-.12c.25-.11,1-.3,1.09-.57a3.14,3.14,0,0,0,.24-1.17c.93.69.27,2.31-.75,2.48s-2.87.66-3.49-.52c-.45-.86-1.45-2.47-.83-3.5a15.84,15.84,0,0,1,2.32-3c-1.22.19-2.45.85-3.7.69a3.67,3.67,0,0,1-2-.6c-.55-.41-.81-1.09-1.6-1.1.82-1.19,4.13.15,5.29.33,1.81.27,4-.06,5-1.81-1.72.81-3.33,1.63-5.29,1.12a14.85,14.85,0,0,0-2.86-.6c-1,0-2.07,0-3.1,0,1.09-1.87,4-.55,5.62-.47,1,0,2,.36,2.91-.09a10.48,10.48,0,0,0,2.72-1.92c-1,.2-1.88.95-2.95,1.11a10,10,0,0,1-3.12-.32,16.15,16.15,0,0,0-3.18-.29c-.35,0-1.24.33-1.5.23-.6-.24.21-1.06.5-1.25,1.82-1.16,4.49-.08,6.43.16,1.25.15,2.1-.67,3.08-1.32.73-.49,1.34-1.69,2.25-1.82m37,1.57a1.41,1.41,0,0,1-1,.25.77.77,0,0,1,1-.25m-25.5.2a7.21,7.21,0,0,1-2.25,1,6.22,6.22,0,0,1-2.5-.26c.49,1,1.86.87,2.75.69.45-.1,2.74-.58,2-1.43M67.91,43.56a3.07,3.07,0,0,0,.25,1.5c.34-.37.24-1,.25-1.5a4.17,4.17,0,0,0-.5,0m35,.06c-.15.62.3.53.75.62a5,5,0,0,1,1.37.45c.79.39,1.36,1,2.13,1.44.09-2.38-2.52-2.5-4.25-2.51m-26.5,3.46c0-.23-.06-.66.12-.81l1.23-1c.68-.56,1.14,0,1.9-.15-.69-.89-2-.3-2.82-.07s-.68.3-1,1a.74.74,0,0,0,.56,1m20.25-1.47a5.82,5.82,0,0,1-1.57,2.57,16.44,16.44,0,0,1-2.61,2.53A15.34,15.34,0,0,1,86.7,53.3c-1,.24-2,.47-3.08.63a15.86,15.86,0,0,1-3.23-.08,13.55,13.55,0,0,1-6.33-2.12,6.94,6.94,0,0,1-2.15-1.92,2.43,2.43,0,0,1-.51-1.19c0-.45.59-.44,1-.55a5.56,5.56,0,0,1-1.24-2c.88.12,1.82,1.4,2.41,2A7.31,7.31,0,0,0,75.81,50a13.9,13.9,0,0,0,6.39,1,17.55,17.55,0,0,0,11.85-5.43c.9-.92,1.63-.61,2.61.08m-8.75-.51c0,.3-.08.6.25.75a1.43,1.43,0,0,0-.25-.75m16.5.78c-.52.43-2.23,0-2.86-.05-.89,0-1.75-.45-2.64-.46.54-.53,1.86,0,2.54,0a6.62,6.62,0,0,1,3,.51m-17.5,0a2.59,2.59,0,0,0-.25,1,.62.62,0,0,0,.25-1m7.5,1.26a1.6,1.6,0,0,0,1.5-1.25,1.4,1.4,0,0,0-1.5,1.25m-8.5-1a4.83,4.83,0,0,0-.26,1.5,1.16,1.16,0,0,0,.26-1.5m15,1.28c-.69,4.19-4.66,8-8.52,9.36-1.11.4-2.16.85-3.23,1.32a23.32,23.32,0,0,1-3.13.72,25.33,25.33,0,0,1-3.36.56,14.49,14.49,0,0,1-2.93-.24,13,13,0,0,1-6.44-2.17c-1.3-.9-4.73-3.09-3.4-5,.77-1.08,2.16.31,2.85.84.91.69,1.89,1.28,2.87,1.88a10.61,10.61,0,0,0,3.06.73,15.2,15.2,0,0,0,3.09.2,16,16,0,0,0,2.94-.06c.9-.18,1.8-.36,2.68-.59a18.37,18.37,0,0,0,5-2.2A16.13,16.13,0,0,0,96.59,49a15.26,15.26,0,0,1,2-2.21c.49-.43,1.82.26,2.36.54m-17.25-.28a2.26,2.26,0,0,0-.26,1.25,1,1,0,0,0,.26-1.25m1,0c0,.25,0,.5,0,.75a1.41,1.41,0,0,0,.51-.75,4.17,4.17,0,0,0-.5,0m21.24.79c-.53.39-1.44-.08-2-.25.5-.48,1.54-.09,2,.25m-52.25-.34A1.42,1.42,0,0,1,54,48.62c-.08.45-.11.39.32.51a1.68,1.68,0,0,0,.67,0c.73-.08.7,0,1,.57A1.24,1.24,0,0,1,55.73,51c-.63.42-.71.37-1.46.21-.44-.09-.84-.29-.9-.8-.11-.81-.58-2.31.28-2.89m28.5.05a3.21,3.21,0,0,0-.25,1.25c.53-.25.64-.73.75-1.25a2.78,2.78,0,0,0-.5,0m10,1.77a1.43,1.43,0,0,0,1.25-1.25,1.28,1.28,0,0,0-1.25,1.25m23.74,7.29c-1.82.6-3.38,2.37-4.6,3.77-.68.78-1.33,1.6-2.05,2.33s-1.79,1.15-1.62,2.13a4.16,4.16,0,0,1-1.24-.75c-.12.73.13,1.58.05,2.35s-.06,1.6-.06,2.4c-.7-.44-.27-1.42-.75-2a24.8,24.8,0,0,0,0,3.34c0,1.11-.24,2.2-.24,3.31s0,2.34,0,3.51-.25,2.38-.25,3.59c-.44-.54-.25-1.53-.25-2.18s.25-1.53.25-2.32c0-1.67-.24-3.33-.24-5-.78,1-.5,2.63-.5,3.81,0,1.42-.26,2.78-.26,4.19-.55-.61-.23-2-.29-2.78a26.82,26.82,0,0,0-.45-3.22,4.43,4.43,0,0,0-.25,2.08c0,1,0,2.07,0,3.1a30.85,30.85,0,0,1-.74,5.31c-.62-.68,0-2.3,0-3.14a18.21,18.21,0,0,0-.23-3.61,4.55,4.55,0,0,0-.53,2.47c-.07.9-.23,1.72-.24,2.64,0,1.64-.49,3.25-.49,4.89-.61-.67-.28-2.64-.25-3.5,0-1.34,0-2.65,0-4-.84,1.06-.43,2.7-.53,3.94-.12,1.44-.48,2.87-.48,4.31a2.91,2.91,0,0,1-.37-1.46,19.33,19.33,0,0,0-.38-2,7.73,7.73,0,0,0-.41,2.54,22.41,22.41,0,0,0-.1,3A3.85,3.85,0,0,1,97.85,88c-.07-.33.15-.58-.26-.58s-.27.69-.29,1.09c0,.6-.21,1.19-.23,1.8a12.33,12.33,0,0,1-.24,2.35c-.38-.46-.28-1.24-.34-1.81a13.37,13.37,0,0,1-.16-2.19c-.45.85-.25,2-.39,3a19.54,19.54,0,0,0-.37,3c-.74-.7-.49-2.35-.49-3.25a6.91,6.91,0,0,0-.54,2.29c-.1.59,0,2-.72,2.21v-2a6.43,6.43,0,0,0-.75,2.25,2.31,2.31,0,0,1-.5-1,6.15,6.15,0,0,0-.5,2.75,3.47,3.47,0,0,1-.5-1.26,3.92,3.92,0,0,1-.5.75,7,7,0,0,1-.25-3.1c0-1,0-2,0-3,0-2.48,0-5,0-7.43,0-2.13.15-4.23.18-6.35s.34-4.11.34-6.19a10.75,10.75,0,0,1,.16-1.5c.09-.55,0-1.12.1-1.66.21-1.15.29-2.3.5-3.44A31.22,31.22,0,0,1,94,58.36a6.09,6.09,0,0,1,1.86-2.58,15.84,15.84,0,0,0,2.54-2.07,12.54,12.54,0,0,0,2-2.57c.26-.53.5-1.07.79-1.58a7,7,0,0,1,.74-1.44c.33-.18,1.37.29,1.67.4.71.27,1.41.56,2.14.79a37.23,37.23,0,0,1,4,1.45c.76.33,1.49.69,2.23,1.05a6.77,6.77,0,0,1,1.7,1.42c.84.83,2.24,2.16,2.26,3.42m-2-7.26c-1.18-.37-2.3.29-3.5.25.37-.89,3.66-1.64,3.5-.25m-40.5-.07c0,.51.67,1.58,1.18,1.07s-.9-1-1.18-1.07m-13.25,1c-.17,1-.73,1.89-.35,2.91a6.63,6.63,0,0,0,1.89,2.9,3.54,3.54,0,0,0,5.44-.92,2,2,0,0,0,.37-1.53c-.06-.52-.17-1.28.62-.85.42.23.45.88.76,1.21s.79.79,1.19,1.18c.84.8,1.66,1.6,2.53,2.36a11,11,0,0,1,2.08,2.67A22.12,22.12,0,0,1,77.27,66c.62,2.12,1.07,4.31,1.58,6.47.26,1.05.41,2.14.58,3.22s.49,2,.6,3c.22,2.14.84,4.24,1,6.38s.52,4.44.54,6.68c0,1.06.23,2.14.24,3.23s.23,2.16.24,3.25v2.58c0,.37,0,.34-.4.32A7.52,7.52,0,0,1,79,99.71a54.45,54.45,0,0,1-5.5-4,5.94,5.94,0,0,1-1.14-2.87c-.29-1-.56-2.11-.91-3.13-.74-2.13-1.49-4.27-2.22-6.41s-1.8-4-2.67-6.07-1.85-4.11-2.92-6.09a57.18,57.18,0,0,0-3.7-5.9,30.06,30.06,0,0,0-4-4.87,13.8,13.8,0,0,0-2.81-2.19,20.91,20.91,0,0,0-3.1-1.29c-2.15-.72-4.08-1.85-6.17-2.68-.65-.26-1.34-.53-2-.73.53-.53,1.69-.66,2.38-.91s1.54-.78,2.36-1.06a29.27,29.27,0,0,0,2.77-1,3.24,3.24,0,0,1,2.6-.33c.75.34,1.14,1.39,1.9,1.81a2.11,2.11,0,0,0,2.57-.32c.27-.19.44-.84.58-1.14.25-.5-.17-.89.59-.77a16.79,16.79,0,0,0,2.51.47M88.9,51.35a2.37,2.37,0,0,0,1.5-1c-.67-.38-2,.07-1.5,1m-12.75,0c0,.6.51.82,1,1a1,1,0,0,0-1-1m9,1c.57-.05,1.63,0,1.75-.74-.66,0-1.42,0-1.75.74m-6.25.49h1.5a.77.77,0,0,0-1.5,0m3.25-.49a1.36,1.36,0,0,0,1.75.25,1.38,1.38,0,0,0-1.75-.25m-18.25.09c.69-.14.86.09,1.12.69a1.39,1.39,0,0,1-.54,1.25c-.67.28-.81-.33-1.1-.82s.14-.92.52-1.12M33.1,75.75c.81.16,1.72-1.08,2.23-1.57.76-.73,1.53-1.44,2.26-2.2,1.36-1.43,2.9-2.84,4.12-4.37s2.81-3.2,4-5c.6-.9,1.21-1.8,1.8-2.71.48-.72,1.14-1.89,2.13-1.91-.35,2.07-2.09,4-3.25,5.71A64.79,64.79,0,0,1,42,69c-1.4,1.6-2.88,3.11-4.32,4.67a42.25,42.25,0,0,1-4.59,4.77c-.67.53-1.61,1.38-2.53,1.27,0-1.65,2.46-2.32,2.5-4-.78.78-1.54,1.6-2.37,2.33a2.73,2.73,0,0,1-2.94.53c-1-.26-2-.49-3-.84a16,16,0,0,1-3.14-1.08c-.52-.33-.19-.6.1-1A11.27,11.27,0,0,1,23,74.31c.76-.79,1.45-1.64,2.14-2.5,1.36-1.67,2.36-3.57,3.6-5.31A65.17,65.17,0,0,1,33,61.22a13.25,13.25,0,0,1,2.72-2,30.27,30.27,0,0,1,2.65-1.67c1-.52,2.06-1,3.09-1.48a3.57,3.57,0,0,1,3.12-.47,16,16,0,0,1,2.9,1.58c1,.74-.23,2.11-.79,2.78-1.17,1.4-2.12,3-3.23,4.39s-2.15,2.72-3.3,4-2.33,2.5-3.51,3.75c-.65.69-1.29,1.37-2,2a7.93,7.93,0,0,1-1.59,1.58M118.38,59.4a4.29,4.29,0,0,1-2-1.75,2.13,2.13,0,0,1,2,1.75M92.89,57.86a14.2,14.2,0,0,1-.86,3c-.3,1.06-.53,2.13-.75,3.21a38.35,38.35,0,0,0-.7,6.5c0,.44-.21.88-.22,1.33a12.53,12.53,0,0,1-.14,1.83,21.73,21.73,0,0,0-.13,3.52c0,1-.24,1.92-.24,2.89v3.78c0,2.15,0,4.33,0,6.49a38.6,38.6,0,0,0,.1,6.27,27.71,27.71,0,0,1,.16,3.65c0,.36,0,.27-.42.27-.16,0-.1-.54-.1-.68a15.18,15.18,0,0,0-.22-1.78c-.3-2.12.23-4.32-.08-6.45a17.26,17.26,0,0,1,.07-3.52c.06-1.1-.13-2.22-.17-3.32-.06-2.29,0-4.58,0-6.87s.23-4.45.26-6.68a52.68,52.68,0,0,1,.09-6.53,17.48,17.48,0,0,0,.18-2.17,6.48,6.48,0,0,1,.05-2.11c.3-.74.47-1.49,1.21-1.88a6.06,6.06,0,0,1,2-.75m22.5.29c.45.71,3.23,5.25,1.31,5.25-.39,0-1.37-2.39-1.56-2.73-.44-.77-1.33-2.32.25-2.52M54.13,60.29c-.75.21-1.39.76-2.13,1.05-.44.17-.59.3-.78-.21a2.51,2.51,0,0,1,0-1.09,3,3,0,0,1,.21-1.11c.3-.54.5-.34,1-.14.66.25,1.65.71,1.75,1.5m29.43,41.05c-.79-.5-.5-2.13-.49-2.92,0-1-.23-2-.25-3,0-1.15-.24-2.29-.24-3.43a19.49,19.49,0,0,0-.24-3.41c-.35-2-.5-4.09-.79-6.11s-1-4.31-1.2-6.47a48.12,48.12,0,0,0-2-8.67,34.37,34.37,0,0,0-1.29-4.11c-.31-.74-.67-1.45-1-2.18-.25-.52-.81-1.4-.69-2a4.46,4.46,0,0,1,2.78,1.26,9.38,9.38,0,0,1,1,3.12q.75,3.12,1.36,6.27c.45,2.23.75,4.48,1.18,6.71.19,1,.31,2.07.44,3.1a26.41,26.41,0,0,1,.4,2.91c0,1.64.27,3.23.27,4.87a39.12,39.12,0,0,0,.42,4.46,22.92,22.92,0,0,1,.07,2.62c0,.71.18,1.43.24,2.13.12,1.58,0,3.23,0,4.81m3.32-41.66a2.14,2.14,0,0,1,1.72,2.2c-.17,1-.29,2.29-1.28,2.92a7.3,7.3,0,0,1-3.15,1c-1.07.15-2.17-.64-3-1.15-1.77-1.07-1.63-5.13,1-4.58.67.14.75.5,1.1,1,.24.33.81,1.07,1.2.56l.61-.77c.15-.19.15-.51.31-.67a3.06,3.06,0,0,1,1.53-.53m26.75,0a8.14,8.14,0,0,1,.35,4.15c-.09.47-.17.94-.26,1.42a5.63,5.63,0,0,1-.1.93c-.37.32-1.71-.29-2.05-.42s-1.92-.67-1.8-1.19a4,4,0,0,1,.75-1.86c.78-1,1.86-2.64,3.11-3m-63.5.89c0,.83-.1,1.53.51,2.15.39.4,1.5-.47,1.94-.57.93-.22.3,1.48.12,1.87-.11.23-.54.42-.74.56l-1.53,1.09a4,4,0,0,1-1.91.9c-.54,0-.38-.14-.33-.56a8,8,0,0,0,.06-1.39c-.06-1.44.3-3.53,1.88-4m5.5.76a8.12,8.12,0,0,1-.87,3c-.44,1.08-.91,2.13-1.44,3.18-1,1.9-2.19,3.68-3.16,5.57A55,55,0,0,1,42.85,84a1.84,1.84,0,0,1-.93.68c-.91.13-.85,0-.85-.86,0-.71,1.31-1.81,1.69-2.33,1.3-1.81,2.65-3.59,3.86-5.46s2.44-3.8,3.6-5.74a68,68,0,0,0,3.49-6c.28-.6.57-1.19.86-1.79s.36-1.38,1.06-1.25m12.95,32c-.14,0-1,.34-1,.19-.15-.4-.35-.77-.5-1.16s-.07-.78-.64-.78c-.2,0-.12.81-.08,1-1.12-.65-1.39-2.86-1.75-4a4.6,4.6,0,0,0,0,3c-1.48-1.06-.93-3.38-2.25-4.51a31.68,31.68,0,0,0,.75,4c-.75-.59-1.08-2-1.37-2.88-.35-1-.61-2.51-1.62-3.12a9.23,9.23,0,0,1,.74,3.75,4.56,4.56,0,0,1-1.07-2c-.31-.83-.68-1.65-.92-2.5-.55,1,.23,2.21.24,3.25A4.44,4.44,0,0,1,58,85.36c-.27-.86-.58-1.71-.86-2.57-.37.76.06,2,.25,2.75-.59-.34-.81-1.16-1.05-1.75a10.1,10.1,0,0,1-.7-2,3,3,0,0,0,0,2,2.43,2.43,0,0,1-.82-1.12,9.61,9.61,0,0,0-.9-1.38c-.78-1.13-.07-2.19.46-3.26.44-.89,1.79-1.79,2.5-2.47a5.66,5.66,0,0,0,1.78-2.76A15.8,15.8,0,0,0,56,75.19c-.19.18-1.3.87-1.6.6s-.18-1.3-.22-1.57a14.62,14.62,0,0,1-.27-1.72c0-.14.1-.88,0-1s-.5-.07-.5.11c0,1.38,0,2.76,0,4.14a4.31,4.31,0,0,1-.74-2.25A7.82,7.82,0,0,0,52.1,77c-.7-.76-.4-2-1.24-2.76A28,28,0,0,1,51.1,79c-.48-.31-.54-1-.65-1.48a4.32,4.32,0,0,1-.1-.88c0-.12.08-.39-.07-.39a2.94,2.94,0,0,0-.43,0v4.24a4.54,4.54,0,0,1-.61-2.77,2.71,2.71,0,0,1,.32-1.66c.27-.52.53-1,.78-1.57.93-2,2.09-3.85,3.17-5.74s1.74-4,2.7-5.91c.27-.54.7-.11,1,.25a11.46,11.46,0,0,1,1.05,1.36c.62.86,1.34,1.69,1.9,2.59A94.58,94.58,0,0,1,71.08,91.85c.11.38,1.18,3.73.32,3.73a2.48,2.48,0,0,1-2-.85,2.9,2.9,0,0,1-.84-1.42m47-28.16a2,2,0,0,1-1.25,1.74c.21-.67.43-1.61,1.25-1.74m-27.25.2c-.55,3.32-7.12,3.75-7.75.24,1.29.17,2.38,1.06,3.75,1s2.63-1,4-1.24m-41.25.18a10.6,10.6,0,0,0,.25,2.75,4.66,4.66,0,0,1,2.54-.9c.67,0,.37.5.26.93a4.21,4.21,0,0,1-.55,1.47,9.19,9.19,0,0,1-5.26,2.74,21.13,21.13,0,0,1,.38-4.12c.26-1.28.88-2.84,2.38-2.87m9,2c-.25,1-.28,2-.44,3s-.49,1.92,0,2.75,1.8-1.48,1.93-1.71c.44-.74,1.07-1.86.75-2.74a5.88,5.88,0,0,0-1.51,1.74,7.09,7.09,0,0,1-.24-1.84c0-.59.27-1.26-.5-1.16m30.5.95c.25.09,1,.23,1.12.46a4,4,0,0,1,.52,1.4,9.64,9.64,0,0,1-.2,1.5,6.23,6.23,0,0,1-.2,1.5,2.6,2.6,0,0,1-2.55,1.28,4.52,4.52,0,0,1-2.74-1c-.52-.32-.87-1.94-.86-2.56,0-.81.28-2.1,1.27-2.15s.93,1.71,2,1.66c.89,0,.83-1.84,1.64-2.11M43.11,74c1-.14,1.89-.77,3-.74a3,3,0,0,1-.51,2,5.6,5.6,0,0,1-1.88,1.12A16.78,16.78,0,0,1,39.6,78a12.14,12.14,0,0,1,1.21-5.93A5.69,5.69,0,0,1,42,71a1.61,1.61,0,0,1,1.27.27c.58.88-.37,1.9-.19,2.79m45,.83a2.89,2.89,0,0,1-2.55,2.28c-1.22,0-2.75-.66-3-2a10.92,10.92,0,0,0,2.77.51c1,0,1.77-.6,2.73-.75m-50,4.41c1,.28,2.16-.55,3.11-.83a1.3,1.3,0,0,1,1.27.09c.52.49.2,1,0,1.56a3.79,3.79,0,0,1-2.41,1.75,4.26,4.26,0,0,1-3.28.23c-.81-.29-2-.71-2-1.68a5.71,5.71,0,0,1,.8-3.12,3.92,3.92,0,0,1,1.14-1.12c.6-.38.92-.14,1.52.13.84.39,0,2.39-.1,3m-10,.48A4.69,4.69,0,0,1,26.3,82a23.21,23.21,0,0,0-2.47,2.39c-1.53,1.71-3,3.53-4.37,5.36-2.69,3.54-4.3,7.74-6.17,11.74a27.62,27.62,0,0,0-1.33,4c-.39,1.41-.85,2.75-1.14,4.19s-.7,2.77-.85,4.2c-.11,1,0,13.2-.1,21.67,0,1.05,1.74,10.45,1.73,11.3,0,2.18-2-3.2-2-3.2s-.85-.49-.29-28.41c0-1.16-.12-2.31-.12-3.46,0-2.16.13-4.34.13-6.51,0-2.52,0-5,0-7.56,0-2.1-.11-4.24.06-6.33.35-4.36,3.07-8.51,5.44-12,.5-.74,1.06-2.15,2.05-2.34a6.94,6.94,0,0,1,3.22.28c2.21.59,4.32,1.49,6.51,2.14a9.76,9.76,0,0,0,1.5.4M87.32,77.9a3.64,3.64,0,0,1,.41,4.27,3.09,3.09,0,0,1-2.06.91c-.94.14-1.26-.53-1.68-1.2a3.65,3.65,0,0,1-.89-2.21c0-.47.45-1.75,1.1-1.6s.82,1.49,1.6,1.27c.3-.08.55-.77.67-1,.21-.38.44-.37.85-.46M48.6,77.78a5.17,5.17,0,0,1,.25,2.38v3.37c-.49-.54-.43-2-.58-2.78-.19-1-.57-2.22.34-3m55.25,1.6v2a1.86,1.86,0,0,1,0-2m-56.25.15v3.25c-.6-.64-.81-2.7,0-3.25m-17.25,1c0,.68-.41.79-.93,1.16s-.93.69-1.39,1a18.29,18.29,0,0,0-2.2,2.2,39.9,39.9,0,0,0-4.17,5.34,57.38,57.38,0,0,0-6.35,12,59,59,0,0,0-2,6.06A32.75,32.75,0,0,0,12,114.52c-.1,2.19-.51,4.32-.51,6.52a29.15,29.15,0,0,1-.11,3.24,25.2,25.2,0,0,0,.09,3.25v2.89c0,1.05.22,2.07.23,3.11,0,2.13.24,4.22.25,6.33a35.61,35.61,0,0,0,1,5.42c.33,2,.74,4,1.25,5.94-.88-.44-1.11-1.7-1.36-2.55-.31-1.07-.57-2.16-.82-3.25-.51-2.23-.79-4.47-1.12-6.73s-.21-4.4-.49-6.59a53.35,53.35,0,0,1-.16-7,95,95,0,0,1,.59-12.85A43.71,43.71,0,0,1,12.43,106a63.51,63.51,0,0,1,2.18-6.31,43.29,43.29,0,0,1,3.07-6.08,37,37,0,0,1,3.52-5.13c.64-.73,1.24-1.54,1.81-2.33a25.69,25.69,0,0,1,2.26-2.41c1.18-1.23,3.13-3.76,5.08-3.27m1.24,3.75a4.35,4.35,0,0,1,.16-1.49c.13-.41.46-1.17.9-1.32.75-.26,2.6.61,3.17,1.07.19.15.86,1,.48,1.15a3,3,0,0,1-1.46.36c-1.1,0-2.14.23-3.25.23m15-3c0,1.16,0,2.33,0,3.5a2.61,2.61,0,0,1-.3-1.41c-.08-.7-.14-1.39-.19-2.09a2.78,2.78,0,0,1,.5,0m6.24,1c1.18,1.85,2.5,3.58,3.75,5.38.65.93,1.46,1.73,2.09,2.67s.45,1.78.39,3a23.93,23.93,0,0,1-.54,3.46c-.18.9-1.36,1.89-2,2.56a42.3,42.3,0,0,0-3.95,5.29l-.84,1.22c-.47.67-.7.45-.9-.28a15.76,15.76,0,0,0-1.31-3c-.44-.86-1.4-1.44-1.81-2.33a22.41,22.41,0,0,0-1.83-3.09,4.84,4.84,0,0,1-.3-2.93,6.45,6.45,0,0,1,1.31-3c1.24-1.84,2.56-3.6,3.73-5.49.62-1,1.2-2.72,2.19-3.37m-7.25.23V86c-.38-.41-.22-1.14-.31-1.65a7.21,7.21,0,0,1-.19-1.13c0-.52-.14-.83.5-.72m-15.5,3a16.83,16.83,0,0,1,2.25-.25C32.13,86.32,30.86,87,30,87.43a14.09,14.09,0,0,1-3.38,1.31c0-1.45-.21-3.64,1-4.76.86-.81,1.24-1.09,2.38-.68.68.24.25,1.68.15,2.2m53.75-2.16a14.14,14.14,0,0,0,2,.53,11.09,11.09,0,0,0,2-.27c0,1.11-1.31,1.48-2.25,1.49-.73,0-2.29-.86-1.75-1.75M44.59,84a14.08,14.08,0,0,0,0,2.25c-.56-.53-.45-1.56-.5-2.25a4.17,4.17,0,0,1,.5,0m0,11.25A4,4,0,0,1,42.8,94c-.77-.78-1.48-1.55-2.18-2.39-1.15-1.39-2.94-2.49-3.79-4.1.78-.14,2.49-.53,3,.25a9.34,9.34,0,0,1,1.72,3A3.16,3.16,0,0,0,41.06,88c-.26-.26-.71-.93-1.08-1-.62-.09-1.26-.22-1.89-.26a13.49,13.49,0,0,0-3.3,0,8.62,8.62,0,0,0-1.64.5,4.6,4.6,0,0,0-1.36,1.21c-3.05,3.1-5.13,7.39-6.61,11.42A105,105,0,0,0,21.42,113c-.24,1-.71,1.91-1,2.89a18.13,18.13,0,0,0-.47,3.28c-.25,2.14-.86,4.25-.94,6.4a31.47,31.47,0,0,1-.34,3.21,20.37,20.37,0,0,0-.14,3.22v3.41a24.64,24.64,0,0,0,.43,3.07,73.27,73.27,0,0,0,3,13c.81,2.58,1.8,5.15,2.75,7.68.52,1.39,1.1,2.77,1.75,4.1s1.6,2.64,1.81,4a4,4,0,0,1-2-2.25c-.47-.87-1-1.72-1.43-2.6a52.32,52.32,0,0,1-2.89-6.55c-.71-2.05-1.33-4.15-1.88-6.25s-1.35-4-1.74-6.07a37.13,37.13,0,0,1-1-6.44c0-1.07-.24-2.11-.24-3.17s0-2.21,0-3.31c0-2.11.59-4.19.7-6.28a42.35,42.35,0,0,1,1.15-6.69c.92-4.2,2.23-8.36,3.37-12.51a60.26,60.26,0,0,1,2.34-6.65,34.73,34.73,0,0,1,2.78-5.76,35,35,0,0,1,4-5.59A8.94,8.94,0,0,1,37.16,85a7.2,7.2,0,0,1,3.51.51c.94.46,1.48,1.86,2,2.71a15,15,0,0,1,1.91,6.17l0,.85m40.77-7.68c1,0,2.21-2.74,2.83-.85a6.91,6.91,0,0,1,0,2.08c0,.81-.71,1.18-1.34,1.37A3.68,3.68,0,0,1,84.77,90c-.66-.16-.69-1.34-.81-1.85a1.35,1.35,0,0,1,.64-1.75c.65-.34.73.83.74,1.23m15.25-.47c0,.25,0,.5,0,.75a.54.54,0,0,1,0-.75m-61,9.14c.66.48,2,.66,1.94-.49A12.92,12.92,0,0,0,40.58,93c1,.28,3.2,2.44,2.6,3.5-.37.65-1.2,1.16-1.7,1.72s-1.3,1.33-1.92,2a44.63,44.63,0,0,0-3.25,4.25c-.55.78-.92,1.47-2,1.3a4.36,4.36,0,0,1-2.25-1.06c1.21-.58,2.73-.57,4-1-.58-1.34-1.81-2.35-2.25-3.76,1.41.06,3,.53,4.32.15.69-.19-1.17-3.38-1.31-3.89.91-.23,1.83.15,2.75,0C39,96,36.35,95.07,36,95.71s-.11,1.15.26,1.83a4.39,4.39,0,0,1,.76,2,18.14,18.14,0,0,1-3.12-.32c-1.58-.27-1.13,1.24-.63,2.06a11.91,11.91,0,0,1,.81,1.43c.28.63,0,.72-.59.9a8.86,8.86,0,0,1-3,.41,9.08,9.08,0,0,1-3.2-1c-1-.49-1.64-1.1-1.49-2.31a18.15,18.15,0,0,1,2.44-6.21,37.59,37.59,0,0,1,2.84-4.55c1.14-1.54,2.29-2.69,4.33-2.08a8.15,8.15,0,0,1,2.14,1.64A4,4,0,0,1,39,91.7a18,18,0,0,0,.88,2.56c.27.68.68,1.71-.31,2M59.33,87.8l-.25.25.25-.25M25.58,90.49c.53-.31,1.41-1,2-.38s-.27,1.68-.62,2.1A8.33,8.33,0,0,1,25,94.12a5.94,5.94,0,0,1-2.41,1.11c-.51,0-.3-.52-.3-1s0-1.14,0-1.71A9.45,9.45,0,0,1,22.64,90c.19-.72,1-1.66,1.79-1.59.62.07.63.11.8.71s.22.9.35,1.35m35.5-1.44c-.08.08-.16.17-.25.25.09-.08.17-.17.25-.25m27,2c-.33,2.16-3.71,1.74-4-.26a12.08,12.08,0,0,1,2.12.43,8.07,8.07,0,0,0,1.88-.17m-.25,2.25A3.45,3.45,0,0,1,88,96.77c-.22.37-.88,1.13-1.41.87s-1.45-.47-1.72-1a3.07,3.07,0,0,1-.46-1.94c0-.54.06-1.52.77-1,.47.35.86,1.25,1.49.74.47-.37.49-1.06,1.21-1.17M21.32,97.23c.53-.32,1.67-1.17,2.29-.8.78.47.32,2-.05,2.56a15.24,15.24,0,0,1-2.24,2.23,5.37,5.37,0,0,1-2.26,1.26c-.25-.91-.46-1.83-.65-2.75a8,8,0,0,1,.23-3,4.83,4.83,0,0,1,.53-1.24c.15-.31,1-.32,1.36-.39.86-.18.72,1.6.79,2.17m51.5-.91c3.28,2.28,6.59,5,10.24,6.62a6.3,6.3,0,0,0,2.92,1,7.23,7.23,0,0,0,2.62-1.3c.86-.51,1.67-1.09,2.49-1.66a5.47,5.47,0,0,1,2.72-1.37,5.8,5.8,0,0,1-2,1.83c-.91.61-1.8,1.25-2.74,1.8a17.93,17.93,0,0,1-3,1.3c-.75.28-2.34-.45-3-.78a64.49,64.49,0,0,1-5.95-3.37c-.72-.45-4.82-3.21-4.3-4.07M36.3,106.26c.42-1.5,6.74-10.52,8.24-8.8.08.09.54.5.48.61-.16.28-.32.56-.47.85s-.8.67-1.12,1c-.76.84-1.55,1.68-2.26,2.57-.86,1-2.59,5-4.42,4l-.45-.22m48.52-8.17a4.79,4.79,0,0,0,1.54.46c.65,0,1.3-.18,2-.2-.35,1-1.23,1-2.15,1.22-.61.14-1.76-.82-1.35-1.48M52,144c-2.46-.06-3.22-2.82-4.29-4.47-.57-.88-2-.84-3-1.17A6.91,6.91,0,0,1,42,136.66a5.19,5.19,0,0,1-1.52-3.12,7.64,7.64,0,0,1,.68-2.93,41,41,0,0,1,2.38-6.37c1-1.93,1.66-4,2.52-6s1.94-4,2.93-6,2.24-4,3.45-6c.57-.91,1.22-1.76,1.79-2.66a22.17,22.17,0,0,1,1.85-2.73c.33-.38,1.78-2.41,2.52-2A9.54,9.54,0,0,1,61.43,101c.71.74,1.33,1.56,2.06,2.29.38.39.74.78,1.09,1.2s.21,1,0,1.6a21,21,0,0,1-1.4,2.86c-.47,1-.86,2.09-1.31,3.12-.92,2.1-1.7,4.27-2.43,6.44-1.41,4.17-2.91,8.34-4.08,12.58-.58,2.08-1.17,4.16-1.75,6.25s-1,4.33-1.59,6.48c0,.08-.05.17-.07.27M39.05,107.26c-.15-.64.65-1.8,1-2.27.62-.77,1.3-1.49,1.91-2.25a26.75,26.75,0,0,1,1.86-2.25c.36-.35,1.8-2,2.41-1.4.9.93-2.25,3.82-2.8,4.51-.67.86-1.34,1.72-2,2.59a6.59,6.59,0,0,1-1.08,1c-.3.25-1,.06-1.34,0m48.59-6.77c.51.26.81.24.71.82a1.36,1.36,0,0,1-.69.85c-.64.34-2,1.18-2.73.43-.52-.55-.46-2,.51-1.7.32.11.75.64,1.09.61s.88-.78,1.11-1m-44.36,21a49.11,49.11,0,0,0-1-6.35c-.17-1-.27-2.1-.39-3.15S42,110,42,109c0-.55-.06-1.09-.11-1.64s.44-1.09.7-1.51a24.24,24.24,0,0,1,2.07-2.68c.57-.69,1.35-2.05,2.4-2.08s1.88,1.47,2.19,2.18a8.27,8.27,0,0,1,1,4.81c-.32,1.55-1.44,3-2.15,4.35-.85,1.69-1.71,3.37-2.42,5.13-.32.79-.7,1.56-1.08,2.32-.27.55-.61,1.54-1.28,1.69M18.06,104c.89,0,1.47-.89,2.25-1.16,1.05-.36,1.78.14,1.4,1.29A7.45,7.45,0,0,1,17.8,108c-1.45.5-2-3.44-1.86-4.37a3,3,0,0,1,.4-1.19c.35-.64.42-.58,1.16-.67s.55,1.84.56,2.24m8,0c0,1,.17,1.9.2,2.88a14.22,14.22,0,0,0,.29,3.12c.78-1.61.5-3.77.51-5.5,1.09.35.64,3.07.51,3.87-.16,1-.3,3.3.72,3.88,0-1.22,0-2.44.08-3.67.05-1.06-.09-2.6.43-3.57.71.73.25,1.67.25,2.53,0,1.26,0,2.52,0,3.78v6.9c0,2.13,0,4.26,0,6.39a21.78,21.78,0,0,1,0,3.33c-.19,1.17-1.46,1.09-2,2.06.35.09,1.43.24,1.63.56a2.76,2.76,0,0,1,.36,1.6c0,1.21-.05,2.39,0,3.6a4,4,0,0,0,.5-2.71c0-1.12.06-2.23.08-3.35s.19-2.17.18-3.26-.24-2.17-.24-3.28.25-1.91.25-2.89c0-1.22,0-2.44,0-3.66,0-2.27,0-4.54.08-6.81a1.4,1.4,0,0,1,.93-1.17c.33-.12.47-.19.63.13.24.48,0,.43-.22.79-.64.87-.66,2.61-.66,3.69,0,1.24,0,2.46,0,3.7a15.27,15.27,0,0,0,.25,3.82c.94-1.38.5-3.75.51-5.35s-.21-3.27.5-4.65c.37.43.25,1.18.25,1.7a22,22,0,0,0,0,2.3c.18,1.61-.17,3.17.22,4.75.67-1,.5-2.19.5-3.34,0-1.44,0-2.88,0-4.32,0-1.24-1.05-2.47.65-2.92.27-.07.64,0,.56-.36a4.31,4.31,0,0,1-.2-1c0-.46.1-.2.42-.3s.55-.18.83-.24c-.14.79.28,1.77.21,2.62s-.22,1.62-.22,2.46c0,2.51,0,5,0,7.51,0,.8,0,1.6,0,2.4,0,0-1.32,0-1.46,0a10.06,10.06,0,0,0-.19-1.29c-.4-.6-.57-.33-1.15,0-.37.2,0,.85.25,1.07.5.48.8-.07.8.73s-.32.43-.75,0c-.27.83-.53,1.68-.86,2.5a4.94,4.94,0,0,0-.65,2.5c.19-.11,1-.38,1-.15.14.47.32.93.46,1.4a5.1,5.1,0,0,0,.66-1.1c.21-.42,0-.36.49-.32a8,8,0,0,1,.85.18,5.7,5.7,0,0,0-.56-2,17.18,17.18,0,0,1-.68-2.25,2.37,2.37,0,0,0,1.21.07c.51-.12.46.45.52.87A24.1,24.1,0,0,1,35,127c.61-.3.69-1,.73-1.56,0-.3,0-.61,0-.92,0-.59,0-.52.56-.52.35,0,.19.43.19.73,0,.58,0,.52.55.52s.07-1.1,1-1c-.14.78-.74,1.45-.75,2.25,1.08.06,2.16.19,3.24.27.43,0,1.05,0,1,.53a12.32,12.32,0,0,1-.45,1.46c-.71,2.12-1.3,4.27-1.89,6.43s-.87,4.2-1.23,6.28-.87,4.13-1.21,6.21S36,152,35.51,154c-.28,1.14-.48,2.27-.65,3.43s-.62,1.88.21,2.76a12.59,12.59,0,0,0,2.56,2.17c1.29.8.82,1.58-.07,2.49a13.4,13.4,0,0,1-5.8,3.1,2.14,2.14,0,0,1-2.79-1.1c-.5-.82-1-1.66-1.39-2.53A67.33,67.33,0,0,1,24.86,158c-.76-2-1.59-4.07-2.18-6.16-.31-1.08-.59-2.16-.95-3.22a8.5,8.5,0,0,1-.75-3c.05-.5,0-.27.37-.47A5,5,0,0,1,22,145a9.43,9.43,0,0,0-1.39-2.52c-.17-.3-.53-.91-.15-1.06a3.56,3.56,0,0,1,1.3-.17c0-1.07-1.13-.71-1.39-1.34a10.64,10.64,0,0,1-.6-2.16c.92.46.75.1.75-.73v-3.44c0-1.66,0-3.33,0-5s.25-3.18.26-4.8A24.75,24.75,0,0,1,21,119a2.49,2.49,0,0,1,.49,1.94v2.74c0,1.82,0,3.57-.2,5.38s-.06,3.76-.07,5.63c0,1.15-.49,4.11.74,4.81,0-4.51.07-9,.27-13.5s-.31-9.07.06-13.56a3,3,0,0,1,.47-1.69,4.58,4.58,0,0,1,.5,1.76,7.34,7.34,0,0,0,.75-3.68c0-.61-.12-1.22-.11-1.82a9,9,0,0,1,.37-2c.41.45.19,1.26.26,1.8a11.61,11.61,0,0,1,0,2.5c0,.51-.3,1.82,0,2.2.08.1.58.17.74.36a1.57,1.57,0,0,1,.26.89,1.07,1.07,0,0,0,.92-1.67c-.21-.31-.71-.45-.86-.78a2.56,2.56,0,0,1-.18-1.48c.06-.86.13-1.7.13-2.57,0-.47,0-.95,0-1.42s-.18-.88.51-.83m4.24,1.51c.7.61,1,2.3-.25,2.5,0-.72-.22-1.9.25-2.5m36,.56c.49.92-.27,2.15-.63,3-.44,1-.88,2-1.27,3q-1.17,3-2.07,6.18c-.6,2.13-1.48,4.17-2.06,6.31s-1.39,4.44-2,6.7q-.82,3.15-1.73,6.27c-.58,2.06-.89,4.19-1.38,6.27-.2.82-.18.74-1,.6-.48-.08-1,.09-1-.45a13.63,13.63,0,0,1,.4-3.31c.62-2.17,1.13-4.37,1.7-6.56,1.12-4.29,2.55-8.43,4-12.63a117.76,117.76,0,0,1,4.76-12.5,18.79,18.79,0,0,1,1-1.67c.31-.51.55-1.34,1.24-1.21m-30,1.2c.68,1,.34,2.33.47,3.51,0,.29.49.41.55.11s.15-.75.19-1.12a19.07,19.07,0,0,0,0-2c.83.13.76,1.38.75,2a7.21,7.21,0,0,0,.74-1.22c.26-.52.33-.58.88-.33,1.08.47,1.16,1.77,1,2.82-.06.48-.52.68-.68,1.11s.26.93.61,1.4c.67.87,0,2.08.15,3-1.25-.76-.57-3.79-2.24-4a6.74,6.74,0,0,1-1,2.5,1.38,1.38,0,0,1,.5-2.25,1.82,1.82,0,0,0-1.2-.93c-.82-.18-1.14-.42-1.3-1.32a5.32,5.32,0,0,1,.51-3.25m-19.76,3c.75-.39,1.3-1.2,2.08-1.52.11,0,1.16-.4,1.18-.18a5.3,5.3,0,0,1,0,1.59c-.41,1.9-2,3-3.39,4.23-.4.36-.45.45-.83,0A4.24,4.24,0,0,1,15,113a10.57,10.57,0,0,1-.66-2.88,3.45,3.45,0,0,1,.11-1.4,1.81,1.81,0,0,1,1.09-.83c.8,0,.92,1.77,1,2.32m23.51-1.46A2.2,2.2,0,0,0,39.8,110a.72.72,0,0,0,.25-1.25m-6.25,1a25.51,25.51,0,0,0-.26,5.17c0,.92-.55,4.78.74,5.08,0-2,0-4.1,0-6.15,0-.66,0-1.34,0-2a10.6,10.6,0,0,0,.05-1.49c0-.44,0-.74-.55-.61M38.54,112a1,1,0,0,0,.92-1.55c-.3-.47-.71.06-1,.28s0,1,0,1.27M23,144c.58,0,.5,0,.5-.51V141.4c0-1.68,0-3.36,0-5a32.31,32.31,0,0,1,.26-6.38c.82.24,2,.11,2-1a4.5,4.5,0,0,0-2,0c0-3.75,0-7.5,0-11.25A1.29,1.29,0,0,1,25,119l-.5-.25c0,3.08,0,6.16,0,9.25,1.08-.15.75-3.12.76-3.93a20.07,20.07,0,0,0-.24-4.32c.59,0,.85-.61,1.09-1s.95-.65,1.16-1.08a2.78,2.78,0,0,0-.13-1.58,5.16,5.16,0,0,1-.36-1.81c1,.2,2,0,2-1.24a5.74,5.74,0,0,0-3,.74c-.1-.29-.51-1-.89-.84s-1.33.35-1.64.84c-.46.73-.22,2.08-.23,2.91,0,2.53,0,5.06,0,7.58,0,2.14.1,4.32-.07,6.45,0,.5-.19,1-.19,1.48a12.12,12.12,0,0,1,.09,1.48c-.13,1.15-.05,2.28-.1,3.43-.09,2.33.14,4.6.24,6.91m13.3-31.22c.56.46.33,1.25.28,1.87s0,1.4,0,2.1c0,1.3.36,3.33-.25,4.53-.94-.56-.5-3.54-.5-4.44s-.38-3.47.51-4.06M15,116.47c.74-.15,1.28-1.07,2-1.14.49,0,1-.34,1.07.22A2.87,2.87,0,0,1,18,117a8.16,8.16,0,0,1-3.27,3.9c-.61.37-1-1.09-1.15-1.52a8.59,8.59,0,0,1-.77-2.91c-.06-.6.17-1.9,1-2s1.1,1.38,1.24,2m10.26-2.23a12.25,12.25,0,0,1-1.51,3c-.41-.44-.07-1.4,0-1.92.11-.89.8-.92,1.51-1.08m2.5.5c-.44.82,0,2.11,0,3-.08,1.07-.22,2.07-.22,3.15s-.09,6.85.06,6.85c.56,0,.28,0,.42-.4a2.3,2.3,0,0,0,.15-.6,12,12,0,0,0,.1-1.8c0-1,0-2,0-3,0-.74.1-7.18-.06-7.18h-.42M83,115.84a6.32,6.32,0,0,1-.94,2,8.37,8.37,0,0,1-1.36,2c-.79.73-1.38,0-2.17-.46-.51-.31-.54-1.52-.54-2.06a3.33,3.33,0,0,1,.73-2.25c.16-.24.73.08,1,.15s.21.68.3.9c.2.46.75,1.84,1.35,1,.45-.66.75-1.28,1.64-1.25M38,117c.72,1-.11,1.73,0,2.75-1.13-.22-.76-2.31,0-2.75m2,0a2.91,2.91,0,0,1,.83,1.13l.42,1.63c-1.32,0-.63-1.8-1.75-2A1.54,1.54,0,0,1,40,117m-.5,1c0,.49,0,1.43-.75,1.25a2.12,2.12,0,0,1,.75-1.25m-13,.73c-.66.83-.5,2-.51,2.94v4.06c1.1-.2.75-2.27.75-3.06s.4-3.23-.24-3.94M41,121.27c-.85.43-2-.26-1.5-1.26.6.15,1.41.58,1.5,1.26m-3-.51c-.34.61-.63-.23-.75-.5a1.66,1.66,0,0,1,.75.5m41.5.57a1.25,1.25,0,0,1-1,1.21c-.64.09-.54-1.22-.54-1.71a10.15,10.15,0,0,1,1.5.5M14,122.72c.73-.13,1.27-.9,1.84-1.32.83-.61,1.2.52,1.07,1.2a14.26,14.26,0,0,1-2.2,4.28c-.57.91-1-.21-1.35-.74a6.27,6.27,0,0,1-1-2.33c-.1-.79-.35-1.77.33-2.33s1.23.55,1.31,1.24m28-1c.36.53.46,1.1-.07,1.49a2.35,2.35,0,0,1-2.11.67c-1.29-.13-2.5-.9-3.82-.92.2-1.27,1.48-1.3,2.53-1.07a5.7,5.7,0,0,0,1.92.21c.52-.05,1-.3,1.55-.38M30.52,126c.56.13.51-.2.58-.63a4,4,0,0,0,.09-1.34c-.11-.63-.18-.37.31-.78s.43-.62.1-1c-.58-.64-2-.06-1.5.87a5.9,5.9,0,0,1,.42,2.86m11.75-1.48a1.48,1.48,0,0,1-1.56,1.5,5.3,5.3,0,0,1-2.44-.26c.62-1.26,2.8-1.2,4-1.24M26,129a1.38,1.38,0,0,0,1-.75c.23-.58-.2-.66-.63-1-.89-.58-.66,1.27-.34,1.7m-12,0c.73-.15.94-.87,1.5-1.25,1-.69.91.48.8,1.2-.18,1.15-.87,3-2,3.43-.66.26-.76-.43-1-1a6,6,0,0,1-.8-2c0-.25-.1-2.13.45-1.89A1.84,1.84,0,0,1,14,129m16.5-.72c0,1.75,0,3.5,0,5.25.6-.44.71-1.87.73-2.54s.28-2.47-.72-2.71M32,129.5c0,.61-.3,1.36.5,1.25a1.53,1.53,0,0,0-.5-1.25m-6,.24c-.28,1-.61,1.94-1,2.9a7.44,7.44,0,0,0-.47,1.45c0,.29-.15.47.17.65a.63.63,0,0,0,.75-.25c.2.61.49,1.88,1.25,2a5.22,5.22,0,0,1,.5-2,2.68,2.68,0,0,0,1,.25,10.2,10.2,0,0,0-.86-2.87c-.17-.49-.35-1-.48-1.48-.18-.67-.16-.65-.9-.65m-10,3.48a3.87,3.87,0,0,1-.37,2.56c-.11.28-.69,2-1,1.91-1.73-.59-2-2.69-1.9-4.22.65,0,1.22.69,1.75,1a1.73,1.73,0,0,1,1.5-1.25m11.5,2.52a7.44,7.44,0,0,0,0,2,1.08,1.08,0,0,0,.56-1.11c0-.48.08-1-.56-.89m12.75,0a9.92,9.92,0,0,0,5.49,3.69c.54.12,1,.12,1.32.61s.36,1,.65,1.34a11.17,11.17,0,0,0,2.45,2.8,8.19,8.19,0,0,0,3,1.07A6.44,6.44,0,0,1,56,147.23a6.61,6.61,0,0,0,2.75,1.37c.54.14,1.06.27,1.6.39a3.26,3.26,0,0,0,.7.06c.21,0,.74.14.39.5-.16.16-1.48,0-1.69-.05a6,6,0,0,1-1.51-.27,8.68,8.68,0,0,1-2.75-1.54c-.83-.72-1.77-1.79-2.92-1.88a6.47,6.47,0,0,1-3.09-1.23,8.06,8.06,0,0,1-2.19-2.35A3.89,3.89,0,0,0,45,140.16a15,15,0,0,1-3.1-1.44c-.65-.41-1.88-1.74-1.77-2.6a.58.58,0,0,1,.13-.35M24.5,136c-.2,1-.95,5.45.49,5.75v-3.41c0-.73.17-1.85-.5-2.34m9.37.26c-.17.39-.6,1.93.45,1.55.25-.1.32-.84.39-1.09s-.59-.37-.84-.46m-7.87,1A21,21,0,0,0,26,140a2,2,0,0,0,0-2.75m-9.75,1c.67,1,.2,2.15-.1,3.22-.06.19-.38,1.29-.52,1.27a2.16,2.16,0,0,1-1.34-.85,3.72,3.72,0,0,1-1.21-2.93c.06-.7.54-.35.92-.1s.79.63,1.24.89c.14-.6.2-1.65,1-1.5m15.75,0a3.36,3.36,0,0,0,.2.9c.09.2.78-.07,1-.13.4-.11-.08-.58-.26-.65a2.57,2.57,0,0,0-.91-.12m3.5,0c-.58.33-.14,1.33.49,1s.13-1.12-.49-1m-1.75.24c-.28,1.61-1,3.15-1.26,4.75a3.07,3.07,0,0,0,1.25-.25,5.58,5.58,0,0,0,.5,1.75c.76-.54.55-2,1.75-2a11,11,0,0,0-1-2.33,10.57,10.57,0,0,1-.39-1.36c-.17-.66-.23-.56-.9-.57m12,3a1.85,1.85,0,0,1,.13,1.42c-.23.59-1.06.1-1.63.08.26-.59.81-1.39,1.5-1.5m-28.5,1.21c.55,1.65-.26,3.43-.76,5a3.06,3.06,0,0,1-1.82-1.53l-1-1.7a4.48,4.48,0,0,1-.13-1.52c1,0,1.75.94,2.5,1.5.21-.61.41-1.9,1.25-1.74m10.49,5.76c.26-.05.75-.27.75-.6s.18-1-.2-1.18c-.92-.42-.73,1.38-.55,1.78M53,146.79a3.83,3.83,0,0,1,.25,1.75,9.36,9.36,0,0,0-1.75-.26,2.2,2.2,0,0,1,1.5-1.49m-34.76,5.69c-1.3,0-2.89-1.59-3.34-2.76-.18-.49-.33-1.89.44-1.64A12.28,12.28,0,0,1,17,149.22a7.78,7.78,0,0,1,.71-1.68c.39-.62,1.1,1,1.15,1.15a3.42,3.42,0,0,1-.17,1.67c-.16.7-.31,1.41-.45,2.12M26,149c-.16.85.9.75,1.5.75A1,1,0,0,0,26,149m2.75.76c.38.2,1.87.29,1.41-.43s-1.27-.31-1.41.43m8.75-.74c3.7,2.59,7.06,5.56,11.11,7.65,1,.49,1.89,1,2.87,1.45s2.39.74,2.92,1.5c.9,1.29-1.47.66-2.05.41-1.49-.62-1.84.24-2.28,1.47a25.05,25.05,0,0,0-.74,2.7,3.93,3.93,0,0,0-.21,1.59c.13.51.64.71.85,1.14.67,1.36-1.27.87-1.83.59-1-.5-2-1-3-1.49-1.88-1-3.67-2-5.49-3.08-.91-.53-1.79-1.06-2.67-1.63a10.69,10.69,0,0,1-1.2-1c-.23-.21-.2-1.2-.25-1.52,1,.12,2.08,1.13,2.89,1.71s1.78,1.19,2.69,1.78a30.42,30.42,0,0,0,2.7,1.6,8.44,8.44,0,0,0,1.46.69c.78.2,1-.15,1.55-.66s.89-2.12,1.12-2.92a13.31,13.31,0,0,0,.38-1.66c.11-.61-.46-.94-.86-1.34a14.67,14.67,0,0,0-2.47-1.71c-1-.69-2.07-1.36-3.12-2s-6-3.47-4.32-5.22m-9.5.48c-.14.51-1.92,3.49-1.46,3.78a3.66,3.66,0,0,1,.89.71c.17.21.18.92.31,1,.58.44.69-1.15.75-1.5.42.07.83.19,1.25.26a6.83,6.83,0,0,0-.62-2.11c-.25-.71-.43-1.71-1.12-2.15m9,2a7.82,7.82,0,0,1,2.67,2.11c.45.55,2.09,2.7.77,3.16-1,.34-2.39-1.39-2.8-2.06-.51-.82-1.36-2.29-.64-3.21M19.72,152a5.3,5.3,0,0,1,.7,3.43,4.4,4.4,0,0,1-.16.88c-.09.35-.38.17-.65.09a8.75,8.75,0,0,1-1.72-.74c-.79-.46-1.26-.63-1.64-1.44-.2-.43-.3-1.46.46-1.3.24.06,1.57.63,1.74.45A7.54,7.54,0,0,1,19.72,152M36,157.26a6.64,6.64,0,0,1,2.35-.16c.34,0,1.93.54,1.44,1.17a2.16,2.16,0,0,1-2.12.55c-.8-.22-1.64-.61-1.67-1.56m-14.25.22a7.18,7.18,0,0,1,.75,3.25,5.1,5.1,0,0,1-3.14-2.47c-.29-.45-.54-1.31.34-.92a3.58,3.58,0,0,0,2.05.14m25.75,1.8a8.18,8.18,0,0,1-4.5-.51c.53.91,1.6,1.52,2.24,2.39a5.18,5.18,0,0,1,1,2.86c-1.05.13-2.21-1-2.78-1.77-.75-1.05-1.47-1.86-1-3.18a1.88,1.88,0,0,1,2.4-1.49c.93.14,2.68.46,2.68,1.7M33.08,158c-.25.42-.41.62-.28,1.1.16.66.28.56,1,.67.44.07.3-.92.27-1.09-.06-.38-.5-.9-.94-.68m8.63-.23c0,.29,0,1.25-.56.68-.37-.37.24-.55.56-.68m-10.5,2.73c-.2,1.07,1.41.6,2,.5a7.93,7.93,0,0,1-.12,1.54,6.74,6.74,0,0,0-.39,1.81c.07.57,0,.2.4.42.17.1.41.13.56.27.36.34.78.87,1.29,1a2.08,2.08,0,0,1,.81-1.86c.52-.39-.56-1.71-.82-2.11a3.85,3.85,0,0,0-1.58-1.71,2.2,2.2,0,0,0-2.15.17m22.5,1c-.29.92-.56,1.18-1.45.77a2.13,2.13,0,0,1-.8-1.78,6.34,6.34,0,0,1,2.25,1m-30,1a1.23,1.23,0,0,1,.5,1c-.3-.26-.76-.57-.5-1m15.23,14c-2.25-.9-1.14-3.79-.78-5.57.22-1,.48-2.08.68-3.12s.32-2.47,1-3.23c.14-.16.54,0,.73,0,.37,0,.34.09.49.45a2.74,2.74,0,0,1-.18,1.66c-.3,1.07-.5,2.19-.73,3.28-.42,2-.58,4.15-1.08,6.15l-.09.37m-.48-11a25.08,25.08,0,0,1-.9,4.5c-.3,1.5-.6,3-.87,4.5-1.28-.24-2.43-1.6-3.4-2.41a10.41,10.41,0,0,1-2.84-2.85c1.27-.63,2.8-.75,4-1.5s2.62-2,4-2.24m12.75,0c-.06.14-.35.91-.57.69-.39-.39.11-.79.57-.69m-2,3.5c-.39.84-1.29,2.78-2.25,3a14.14,14.14,0,0,1,.34-2.66c.12-.62,0-.88.66-.8a2.67,2.67,0,0,1,1.25.46"/><path class="cls-4" d="M42.58,54.57l-1.33-.63-.88-.1-1,.38-.76.44-.57.59-.38,1-.32.92L39.85,56l1.66-.85"/><path class="cls-4" d="M79.44,237.51l-1.87.12L76,237.3l-5-3.06-5.49-2.93-3.31-1.64,1.79-8.47,6.33,2,6.52,1.61,6.36.76,7.9-.4L98,223.37l4.11-1.86,3.23-2.32,1.48.79,2.94,5.1,2.84,2.27-3.2,2.4-7.86,6.53-7.06-.4"/><path class="cls-4" d="M65.69,195.91l-6.92-2.17L55,191.89l-3.25-3.15-1.33-2.38,8.24-7.71,2.61-15.05.85-1.87,9.57-15.2,3.21-2.15,1.83.31.64,44.65"/><path class="cls-4" d="M94.88,148.1l-5.49-4.24-4.92-2.56,0,2.59.43,4.63"/><path class="cls-4" d="M83.77,147.7l22.4,0,0,27.12-22.4,0Z"/><path class="cls-4" d="M125.64,190.44l-3.6,1-4.55,1.77L115,194l-1.3-2L112,191.7l-1.64,1.52-.17,1.1-4-1,.76-2.46-1-2.6L104.42,187l-2.61.18-1.28,1.47-.27,2.62-2-.27-.55-1.63L92.87,185,91,180.91l-2.74-8.46,16.31.34,19.81,16.3,1.39.73"/><path class="cls-4" d="M91.33,118.86l15.07,0,0,18.72-15.08,0Z"/><path class="cls-4" d="M92.65,113.41,100.14,102l.48-.45L105,94.76l3.66.47L111.9,98l-5.69,21.72-13.9-.14"/><path class="cls-4" d="M155.78,101.65h1.5v2.75h-1.5Z"/><path class="cls-4" d="M158.35,100.25l-2.76-5-.79.16,1.28,6.49,2.11,0"/><path class="cls-4" d="M156.69,125.3h1.51l.05-24h-1.52Z"/><path class="cls-4" d="M148,124.76l10.29,0,0,28.25L148,153Z"/><path class="cls-4" d="M137.94,152.66l12.71,0,0,14-12.7,0Z"/><path class="cls-4" d="M151.08,166.64l4.1-6.33,2.71-5.74-.12-2.52-8.45-.41.72,15.21"/><path class="cls-5" d="M55.19,183.12l-3.48,2.78-1.76.61-1.56-1.73,1.11-4.09L50,180l1.65-2.74,8.69-13.67.7,1.6-.75,8.36-1,4.18"/><path class="cls-6" d="M113.41,139.81l-2.29,3.42-3.55,2.84-7.86-8.59,7.12-20.09L112,98l2.71.79,9.78,4.57,2.84,5.7-1.08,4-3,8.17-4.54,9.85"/><path class="cls-6" d="M127.76,79.87l-10.23-5.23,1.13-1.79,2.06-3.42,4-6.34,3.51,2.8,4.55,4,5.1,4.43-4.37,1L129.6,78"/><path class="cls-6" d="M110.77,181.86l-3.67-4.66-6.35-11.59-4-10.06-2-7.66.78-1.11,9.67,4.54,9.09,10.94,8.31-5.92,2,1.83"/><path class="cls-6" d="M131,155.81l-6-6.32L131.54,139l6.44-.13,5.1,3-6.15,13.06-3.67,1.64"/><path class="cls-6" d="M125.72,189.41l-7.83-3.49,16-21.45,5-.36,7.8,2.48-4.55,5.47-4.5,6.61-3.61,4"/><path class="cls-6" d="M98.21,191.11,96,193l-5.24-3.9-7.78-.56-8.08,3.16-5.49,5.66-4.24-1,2.57-5,4-3.58,8.89-3.68,4.94-.46,5.7.94L95.42,187l2.4,2.57"/><path class="cls-5" d="M127.18,108.5l-1.57-1.84-2.7-1.92-3.07-.93L118.31,101,116.4,99l-4.07-.72-2.69-2.67-4.57-1.07,2.19-3.86L112.05,83l1.54-2,2.61-4,1.26-2.28,3.18,1.37,8.19,4.52,2.76,2.23.65,1-3.59,19.56"/><path class="cls-5" d="M86,160.17l-1.49-18.56-3.29-1.74-4.71,2.64.17,4.39v13.39l-1.17,18-2.25,8.11,3.43-1.09,6.78-1.68,7.27.92,1.76.08-3-7L87.78,170"/><path class="cls-5" d="M133.59,167.76l.53-.28,3.65-3.76,3.75-3.29,3.71-4.08-.61-1-7.71-2.72-2.54,2.9-2.76.53-2.45-2.21-6.74-6.74-.45.53.19,6.69,2.26,3.39-1.14,1.93-7.66,12.06-5.08,10.1,3.61,3,4,1.23,3.9-5.54,4.63-5.82"/><path class="cls-5" d="M154.42,139.47l-2,5.13-2.9,5.83-4.42,5.94L134.92,155l1.68-2.06,2.55-3.94,2.21-4.77,1.94-5.74h11.41"/><path class="cls-5" d="M156.63,107.59l-8.86.07-1.51,20.14-3.2,11.43,11.37,0,1.95-6.65.69-7.83,0-10.68"/><path class="cls-5" d="M153.35,91.72l-5-6.82-6.46-6.82-3.74-2.89.48,1.43.93,2,2.46,5,3.94,11.71,1.48,6.55.81,6.3,8.7-.41-1.52-10"/><path class="cls-5" d="M127,147.06l1.17.11,2.58.24-1.26-3.62,4.32-.06L132,139.81l4-.93-2.37-2-4.42-.71-3-.72L123.05,140l-2.92,3.18,2,3.55,2.73,2.76,2,1.51-.32-2.61"/><path class="cls-5" d="M92.26,114l-2.49,3.69-1.55,2.77-5.13,7.72,8.63,3.18"/><path d="M113.18,227.82c0-.65,0-.71-.49-1.07a14.39,14.39,0,0,1-1.43-1.15,12,12,0,0,1-2-2.17c-1.25-1.92-2.71-3.86-3-6.17a39.42,39.42,0,0,0-1.61-6.42,3.87,3.87,0,0,1-.08-1.48,2.3,2.3,0,0,1,.82-1.38,7.78,7.78,0,0,1,1.14-1.28,16,16,0,0,1,1.63-.71c1.78-.92,1.29-3.16.88-4.67a9.17,9.17,0,0,0,3.2-1.15c.86-.53.91-1.82,1.41-2.61a23.76,23.76,0,0,1,1.79-2.9c.66-.74,2.21-1,3.13-1.34a60.57,60.57,0,0,1,6-2.35,23.51,23.51,0,0,0,3.57-1.23,3.71,3.71,0,0,0,2.26-2.19,6,6,0,0,1,1.7-2.72c.94-.76,1.81-1.55,2.68-2.4a26.09,26.09,0,0,0,4.15-4.92,51.6,51.6,0,0,1,3.72-5.43c.74-.91,1.46-1.85,2.26-2.7a7,7,0,0,1,2.55-2.06,19,19,0,0,1,3.38-.3c1-.11,1.77-1.63,2.24-2.38,1.12-1.8,2-3.69,3-5.55s2.53-3.88,2.53-6.19l0-5.83q0-15,0-29.89l0-13.51c0-1.8.47-4.43-.79-5.9a51.33,51.33,0,0,1-3.61-5.63A93.7,93.7,0,0,0,136.2,72.42c-2-1.67-3.92-3.4-5.93-5a38.34,38.34,0,0,0-5.55-4.28,4.28,4.28,0,0,1-.23.77l1,.73A5.24,5.24,0,0,1,127,66.22,3.35,3.35,0,0,1,127,68c-.11.68-.23,1.36-.34,2a47.32,47.32,0,0,1-1.76,7.8,10.72,10.72,0,0,1-2.49-1.19c-.85-.45-1.88-1-1.74-2.11a52.29,52.29,0,0,0,.75-6c-1.11,1-1.86,2.63-2.63,3.87s-1.61,2.55-2.42,3.82c-.9,1.44-1.8,2.88-2.73,4.3-.75,1.15-2,2.61-2.25,4a8.15,8.15,0,0,1,3.31.93c1,.39,1.88.84,2.8,1.32a38.36,38.36,0,0,1,5.56,3.44c1.86,1.43,3.85,2.79,5.58,4.37.94.86.87,1.73.68,2.9s-.34,2-.56,3.07a11.41,11.41,0,0,0-.4,2.25c-1.22-.35-1.67.11-1.75,1.25-1.32-.28-2.36-1.51-3.75-1.76.14-.69.76-1.18,1.14-1.75.09-.14.43-.57.37-.75s-.66-.3-.8-.35a12.8,12.8,0,0,1-2.15-1.17c-.92-.55-1.27.21-1.3,1-1.47-.83-2.73-2-4.25-2.75.62-.64,1.26-1.14,1.26-2.07,0-.49-1.71-.45-2-.68-.56-.4-1.34-1.25-2.08-1.26s-.4.52-.4,1.09a5.11,5.11,0,0,1-.25,1.16,17.36,17.36,0,0,0-5-2.26c.55-.83,1.22-1.8.51-2.75a13.4,13.4,0,0,0-2.1,3.13c-.76,1.18-1.51,2.37-2.24,3.57a74.18,74.18,0,0,0-4.19,6.79,7.31,7.31,0,0,0,1.85-2.37c.64-1,1.28-2,2-3,.54-.79.94-1.91,1.78-2.46s2.28-.2,3.12.1,2.35.93,2.8,1.79,0,2.4-.12,3.25c-.43,2.07-.94,4.14-1.44,6.19-1,4.2-2.27,8.45-3.64,12.55-1.43,4.26-2.83,8.54-4.5,12.72a37.44,37.44,0,0,0-1.61,3.77,13.66,13.66,0,0,1-2.77-1.6c-.89-.55-1.74-1.16-2.6-1.75s-1.86-1.27-1.87-2.47,0-2.47,0-3.7a20.69,20.69,0,0,1,.12-3c.17-1.07.09-2.12.16-3.19,0-.51.18-1,.23-1.5s0-1.17,0-1.75c.1-1.09.18-2.23.34-3.31a2.52,2.52,0,0,0,.13-.94,5.09,5.09,0,0,0-1.16,1.56,4.22,4.22,0,0,0-.33,2.19,47.91,47.91,0,0,1-.23,4.8c-.17,1.43.07,2.89-.13,4.33a37.48,37.48,0,0,0-.18,4.86c-1.93-.25-1.24-5.25-1.24-6.52,0-2.27.26-4.47.27-6.73a11.54,11.54,0,0,0-1.74,2.35l-1.9,2.84c-1.26,1.88-2.47,3.81-3.72,5.69q-3.85,5.75-7.56,11.57c-4.68,7.33-9.16,14.78-13.83,22.11-.42.66-2,2.53-1.68,3.18.61,1.15.22,2.37.12,3.58a8.68,8.68,0,0,1-.21,1.69,4.49,4.49,0,0,1-.24.79c-.06.13,0,.4-.17.4s-.39.06-.44-.06c-.4-1-1.34-1.87-1.47-2.94-1.54,1.3.13,2.7.82,4a6.59,6.59,0,0,1,.41,5,10.38,10.38,0,0,1-1.65-2.8c-.46-1.06-1.31-2.28-1.34-3.46a5.54,5.54,0,0,0-1.5,2.25c.73.11,2.5,1.57,1.67,2.36-.62.58-.81.76-1.68.44a15.31,15.31,0,0,1-1.49-.8,8,8,0,0,1-1.31,2.14c-.51.74-.92,1.56-1.42,2.31s-1,1.57-1.47,2.38a5.61,5.61,0,0,0-.54,1.1,1.63,1.63,0,0,0,0,1.49c.63,1.74,2.43,3.19,3.66,4.48.57.59,1.05,1.28,1.63,1.87a9.19,9.19,0,0,1,1.7,2,7.68,7.68,0,0,1-2-.3,7.84,7.84,0,0,0-2.25-.46,12.28,12.28,0,0,0,.93,1.1,5.54,5.54,0,0,0,.76,1L54,195.35c.22.16,1.37-.25,1.66-.3A2.54,2.54,0,0,1,57,195c.53.24.58,1,.72,1.46A10.78,10.78,0,0,0,59,199.23a2.59,2.59,0,0,1-1.7-.49,4.53,4.53,0,0,0-2-1c.65,1,.93,2.27,1.93,3a14,14,0,0,1,3.06,2.74c-.85-.46-1.5-1.29-2.45-1.58a11.36,11.36,0,0,0-3.3-.18c.1.72,1.08,1,1.62,1.21a3.76,3.76,0,0,1,1.62,1.3,2.86,2.86,0,0,0-2.5.24,5.32,5.32,0,0,0,.94.63c.48.35.92.74,1.37,1.12a2.22,2.22,0,0,0,2.44.51c-.1.6-.88,1.5-1.55,1.35s-2-.56-2.2.39a6.1,6.1,0,0,1,1.87,1.1,3.35,3.35,0,0,0,2.3.44c.69-.06,1.46.58,2,.92a4.78,4.78,0,0,0,2,.56,6.56,6.56,0,0,0-1,3,6.36,6.36,0,0,0,1.12,3.08c.48.94-.53,2.2-.95,3.07a14.39,14.39,0,0,0-.75,3c-.25,1.11-.51,2.21-.82,3.29a9.37,9.37,0,0,0-.39,1.47c-.09.92-.14,1,.5,1.68a4.94,4.94,0,0,0,1.45.61c.53.21,1.05.5,1.56.75,1.07.53,2.11,1.09,3.15,1.69,1.86,1.07,3.7,2.18,5.55,3.26a7,7,0,0,0,2.74,1.31,15.64,15.64,0,0,0,3.35,0,24.93,24.93,0,0,1,3-.13,26.08,26.08,0,0,0,3.3-.4c2.08-.35,4.18-.44,6.26-.74a43.22,43.22,0,0,1,6.13-.08c1,0,1.89.25,2.86.25.77,0,1.77-1.22,2.31-1.69,2.92-2.54,5.85-5.32,9.36-7m-50-.33c2.12.32,4.15,1.62,6.07,2.5a48.25,48.25,0,0,1,5.67,3.16c.89.58,1.72,1.42,2.65,1.9,1.09.55,2,0,3.1-.31a54.2,54.2,0,0,1,6.44-1.24c1.1-.13,2.19-.27,3.29-.43s2.15,0,3.21-.11a19.06,19.06,0,0,1,3.54-.11c1,0,2.07.43,3,0a12.58,12.58,0,0,0,2.37-2.14,28.36,28.36,0,0,1,2.51-2c.94-.7,1.88-1.49,2.88-2.12a3.85,3.85,0,0,1,1.37-.54c.76-.16,1,.07,1.75.41.47.24,1,.5.74,1s-.77.74-1.12,1c-.88.57-1.68,1.18-2.52,1.8a40.8,40.8,0,0,0-5.22,4.33c-.78.79-1.35,1.5-2.56,1.3a19.06,19.06,0,0,0-3.12-.3H93.89c-1.17,0-2.26.19-3.41.24a52.66,52.66,0,0,0-6.12.85c-1.09.19-2.2.32-3.3.47a16.2,16.2,0,0,1-3.19.41,5.21,5.21,0,0,1-3-1.25c-1-.68-2-1.3-3-1.95-1.77-1.16-3.77-1.92-5.62-3-1-.54-2-1-2.92-1.54s-.54-1.63-.2-2.32m15.24,6.27A18.69,18.69,0,0,1,75.61,232a2.64,2.64,0,0,1-1-1.24,4.48,4.48,0,0,1,.26-1.63A12.36,12.36,0,0,1,76,225.86c.45-.83,2.2-.26,2.89-.14a40.9,40.9,0,0,0,12.83-.12,29.08,29.08,0,0,0,12-4.63,3.88,3.88,0,0,1,1.53-.77c.71-.13.93.19,1.38.73a8,8,0,0,1,1.59,2.69c.11.55.19.91-.32,1.29l-1.41,1c-.94.67-1.86,1.38-2.76,2.1-1.51,1.22-3.08,3.84-5.27,3.46a20.59,20.59,0,0,0-3.6-.18c-1.08,0-2.07.16-3.13.23a39.35,39.35,0,0,0-6.41.65c-2,.48-4.25,1.5-6.35,1.57l-.5,0m-5.24-3.51a19.66,19.66,0,0,1,1.26-5c.61.67,0,2-.19,2.69-.1.39-.16.79-.26,1.18-.17.61-.08,1.21-.81,1.12m-1.25-.75a17.56,17.56,0,0,1,1-4.5c.53.58.08,1.61-.08,2.25s-.2,1.79-.93,2.25m-1.25-1a10.06,10.06,0,0,1,1-4c.39.52,0,1.44-.19,2s-.28,1.59-.82,2m-1.5-.5a5.89,5.89,0,0,1,.25-1.25.87.87,0,0,1-.25,1.25m-1.25-.76c0-.25,0-.5,0-.75a.54.54,0,0,1,0,.75m-1.5-.5a7.55,7.55,0,0,1,1-3.75c.32.5,0,1.35-.17,1.88a3.45,3.45,0,0,1-.84,1.87m3.26-.49a5.14,5.14,0,0,1,.5-2.25c.5.52,0,1.86-.5,2.25m-4.5-.51a7.74,7.74,0,0,1,.75-3.25,3.79,3.79,0,0,1-.75,3.25m3.25-.24a10.23,10.23,0,0,1,.25-2c.45.46.16,1.58-.25,2m10.3-30.74a7.11,7.11,0,0,1-1.65,1.77c-.57.53-1.06,1.17-1.6,1.73a19.8,19.8,0,0,0,2.45-1.93,19.3,19.3,0,0,1,2.89-1.83A12.3,12.3,0,0,1,87.09,193c2,0,4.31.35,5.64,2.09s3.07,3.52,4.56,5.33a20.42,20.42,0,0,1,2.91,5.83,26.21,26.21,0,0,1,.9,3,13.65,13.65,0,0,0,.82,3.12c1,2,2.23,4,2.34,6.35,0,.27-.61,1-.81,1.25a7.9,7.9,0,0,1-1.5,1,26.8,26.8,0,0,1-3,1.54A31.88,31.88,0,0,1,86.16,225c-1.8,0-4.7.46-6.22-.72a7.73,7.73,0,0,1-2.72-6.1,22.08,22.08,0,0,0-.46-3.13c-.2-1.13-1-1.67-1.46-2.63a6.06,6.06,0,0,1-.75-3.25,4.66,4.66,0,0,0-.81-2.95c-.17-.32-.67-.93-.66-1.29,0-.64,0-1.26.11-1.89.12-1.08-.54-2.26-.36-3.32s1.36-2.06,2.08-2.83a9.35,9.35,0,0,1,2.58-1.71,4.36,4.36,0,0,1,1.25-.45m-5,19.49c0,.22,0,1.3-.42,1.25-.91-.12-.92-.09-1.27-.95a3.15,3.15,0,0,1,.31-1.46c.35-.55,1.09-.26,1.61-.21s.92,0,1.3.47a5.07,5.07,0,0,1,.87,1.62,10.43,10.43,0,0,1,.35,3.06,11.19,11.19,0,0,0,.61,3.23,12.72,12.72,0,0,0,.61,1.59c.1.22.65,1.17.51,1.41-.37.64-2.42-.21-2.79-.47A5.07,5.07,0,0,1,73.53,221a12.34,12.34,0,0,1,0-3.59c.09-1,1.51-2.41.19-3.16m-.77,9c-.88-.57-1.17-1.89-1.42-2.84a12,12,0,0,1-.32-3.16h1.09c.29,0,.16.33.16.58,0,.7,0,1.4,0,2.1,0,.9,1,2.57.47,3.32m-1.5-.5c-1.29-1.06-1.42-3.7-1.49-5.25-.5,1-.25,2.45-.25,3.5a2.43,2.43,0,0,1-.71-2.15,2.62,2.62,0,0,1,.44-1.3.57.57,0,0,1,1,0c.45.71.32,1.84.49,2.66s.83,1.78.54,2.5m19.26-3.22c-.89-.18-2.25.56-3.06.89a13.71,13.71,0,0,1-3.13.65,6.43,6.43,0,0,1-3.29-.16c-.93-.31-1.61-1.07-2.52-1.4a4.06,4.06,0,0,0,2.43,2.07,6.9,6.9,0,0,0,3.52.26c1.13-.17,2.24-.3,3.36-.56.74-.17,2.51-.89,2.69-1.75m-23.5,1.21a12.26,12.26,0,0,1-.25-2.5c-.51.79-.33,1.7-.75,2.5-.61-.43-.29-1.39-.1-2,.36-1.07,1.05-1.14,2.05-.77.53.19.46.52.52,1.05,0,.23.16,1.08,0,1.2-.45.39-.54-.36-.57-.58a8,8,0,0,1-.18-1.18c-.32.68-.1,1.78-.75,2.25m21-5.46a6.56,6.56,0,0,0-1.75-.41,9.09,9.09,0,0,0-2-.33,8.16,8.16,0,0,0-2.32.37,18.64,18.64,0,0,1-2,.86,15.35,15.35,0,0,1,.26-2.25c-.93.2-1.59,2.74-1.12,3.44.32.48,1.17.73,1.65,1a16.83,16.83,0,0,0,1.9.95,4.35,4.35,0,0,0,3.93,0,2.09,2.09,0,0,0,.91-1.71,14.64,14.64,0,0,1,.48-1.87m15.24,1.28c-1,.2-1.65,1.41-2.78,1.56a11.1,11.1,0,0,1-1.72.15c-.45,0-1.14-.06-1.25.53,1.58.24,5.68.06,5.75-2.24m-22,.71a13.47,13.47,0,0,0,2.7.66,10.47,10.47,0,0,0,2.8-.4c0,1.17-1.43,1.58-2.4,1.4-1.24-.23-2.42-.47-3.1-1.66M97.2,218a9.88,9.88,0,0,1-1-2.75c.58.85,1.64,1.76,2.74,1.41s2.53-.93,2.52-2.4c-.75.47-1.09,1.11-1.94,1.42-.65.23-1.92.71-2.07-.42a12.62,12.62,0,0,0,1.51-.08c.61-.1.79-.36,1.25-.8a3.9,3.9,0,0,0,1.08-1.29c.22-.54.12-1-.58-.83.48-.83-.5-1.61-1.25-1.75.32.51.65,1,1,1.5-.88,0-1.87.28-2.74.23a.9.9,0,0,1-1-.59c-.14-.24.08-.46-.31-.4-.13,0-.39.4-.5.5a27.92,27.92,0,0,1-.49-4.46c0-1.5-.69-2.88-2.31-3a2.75,2.75,0,0,0-2,.63c-.65.45-1.38.21-2,.62-.18.11-.71.3-.71.53v1.57a.89.89,0,0,0,1.34.84c-.23-.27-.59-.46-.75-.8a6.29,6.29,0,0,1-.25-1.45c.59.12,1.72.71,2.29.32s1.39-1.41,2.11-1.56c1.79-.37,1.74,2.93,1.85,4,.16,1.69,0,3.4.15,5.1.14,1.16.42,3.9,2.08,3.9m-12.75-.52c.06-.5.57-.67,1-.75.15.67-.54.7-1,.75m20.5-.21c-.35-.65-.5-1.38-.84-2a8.66,8.66,0,0,1-.94-2.56c-.2-1.21-1-3.68.55-4.4,0,.82,0,1.63.1,2.46a11.82,11.82,0,0,0,.65,2.07c.27,1.07,1.27,3.46.48,4.47M67.21,212a9,9,0,0,0,.09,2.54A6,6,0,0,1,68,217a2.64,2.64,0,0,1-2-2.5c-.07-.92-.06-2.49,1.21-2.5m-2,.75a8.53,8.53,0,0,0,.13,2A6.14,6.14,0,0,1,66,217c-1.06,0-1.63-.86-1.8-1.82-.14-.8.07-2.21,1.06-2.43m18,3.78a1.4,1.4,0,0,1,1.43-1.29c.77,0,1.56,0,1.57,1.05a4.17,4.17,0,0,0-1.4-.17c-.54.11-1,.32-1.6.41m-1.25,0c-.25-.48.08-.83.51-1a1.24,1.24,0,0,1-.51,1m-11.49-4.27v1.5a2.9,2.9,0,0,1,1-1,12.16,12.16,0,0,1-.16,1.8,3.82,3.82,0,0,0,.4,1.7c-1.82.95-3.26-3.62-1.24-4m-1.51,4c-.76-1-1.66-4.16.26-4.5-.1.82-.36,1.61-.46,2.45-.07.64.66,1.44.2,2.05m29.76-1.45c0-.52.29-.7.75-.75.1.55-.2.85-.75.75m-12.25-.52c-.11-.48-.21-.9-.75-1a2,2,0,0,0,.75,1m11.25-.48c.27-.82,2.26-1.73,2.5-.5a3.57,3.57,0,0,0-1.3,0c-.41.16-.8.35-1.2.54m-34.5-3.31c-.05-.35.28-.53.5-.75A.91.91,0,0,1,63,209h1c-.27-.27-.87-.75-.19-.75H69c2.24,0,4.71.84,4.7,3.5a5.4,5.4,0,0,1-2.36-.92,3.9,3.9,0,0,0-2.81-.73c-1.82.22-3.5.82-5.33.39m-5.49-1.76c.78,0,1.45.5,2.25.25-.31.92-1.9.39-2.25-.25m44,.32a19.7,19.7,0,0,1-.66-2.62,4.73,4.73,0,0,1,.8-2.37,6.47,6.47,0,0,1,4.12-2.75c-1.8-1-3.49,1.71-5,2.24,0-1.64,1.25-2.28,2.48-3a4.37,4.37,0,0,1,2-.2,3.37,3.37,0,0,1,2,.67c.52.6-.18,1.43-.7,1.75a6.38,6.38,0,0,1-2.1.42,4,4,0,0,0-2.91,2.65c.51-.3.88-.73,1.37-1.05a4.33,4.33,0,0,1,1.82-.41,12.21,12.21,0,0,0,1.81-.19c.6-.14,1.15-.48,1.76-.59a2.27,2.27,0,0,1-.8,1.89c-.27.2-.67.65-1,.71s-.86.16-1.27.27a4.64,4.64,0,0,0-2.33,1.13c-.47.48-.61,1.64-1.37,1.49M62,204.48a15.19,15.19,0,0,0,2,.76A26.3,26.3,0,0,1,60.88,202c-.87-.95-2.73-.82-3.4-2,1.62.35,3.21.42,4.38,1.75a12.65,12.65,0,0,0,1.94,1.93,4.26,4.26,0,0,0,2.12.68c1.69.27,3.35,0,5,.53a3.7,3.7,0,0,1,2.54,3.63,8.81,8.81,0,0,1-2.79-1.07,7.76,7.76,0,0,0-3.21-.69,17.82,17.82,0,0,1-3.17-.38c-.82-.16-2.22-1-2.33-1.88m.5,2c.74-.15,1.81.51,2.5.76-.72.68-2.09-.07-2.5-.76m-5-1.25a11.18,11.18,0,0,0,1.5.25,12.68,12.68,0,0,0,1.5-.25c-.62,1.17-2.64,1.63-3,0m1.5-.75a2.28,2.28,0,0,1-.74-1.25c.39.22,1.05.74.74,1.25m-1.23-10.75c1.11.39,1.59,1.39,2.18,2.33a4.88,4.88,0,0,0,2.68,2.21,11.12,11.12,0,0,0,3.63.47,12.82,12.82,0,0,1,3.5.76,5.65,5.65,0,0,1-1.24-1.25,4.23,4.23,0,0,1,3.72,3.91c-.07.69-.23,1.39-.24,2.09a2.21,2.21,0,0,1-1.85-.88,9.46,9.46,0,0,0-1.77-1.75A11.1,11.1,0,0,0,63.61,200c-.69-.14-1.42,0-2.13-.18-1.06-.26-1.42-.86-2.1-1.67a6,6,0,0,1-.81-2,20,20,0,0,1-.83-2.44m35.74,8.06a2.63,2.63,0,0,0,1,.25c-.12-.9-.63-1.11-1.43-.93l-2,.47a21.06,21.06,0,0,1-4.55.95,4.19,4.19,0,0,0,.3,1c.17.49.11.47.6.42a8.14,8.14,0,0,0,1-.3,4.74,4.74,0,0,1,1.18.09,5.93,5.93,0,0,0,2.15-.4c.85-.24,1.69-.46,1.73-1.52m-29.75.2c.43.1,3.85.69,3.25,1.5-.3.4-1.43,0-1.75-.09-.62-.22-1.41-.7-1.5-1.41m24.75,1a5,5,0,0,1,2.15-.65,19,19,0,0,1,2.6-.59c-.33,1-1.15,1-2,1.16a4.83,4.83,0,0,1-1.4.23,5.92,5.92,0,0,0-1.31-.15m11-.23c-.59-.88-1.16-1.76-1.73-2.65a18,18,0,0,1-1.1-2.55,4.75,4.75,0,0,1-.39-3A2.67,2.67,0,0,1,98,192.8c-.18.59-.51,1.14-.64,1.75a11.19,11.19,0,0,0-.12,2.24,13.18,13.18,0,0,1,.68-1.42c.32-.47.56-1.36,1-1.69,1.17-.94,2.44-.67,3.85-.63-.56.7-1.47.66-2.17,1.11s-1.78.92-2.08,1.89a22,22,0,0,1,3.69-1.79c1.23-.33,3.07-1,3.32-2.45-.67.33-1.3.77-2,1.06s-.4.06-.82-.19a2.83,2.83,0,0,0-1-.38,10.6,10.6,0,0,1,1.9-1c1-.6.83-1.1.58-2.11a1,1,0,0,0-.64-.78c-.44-.25-.54-.1-1,.12-.24.12-1,.31-1.08.57a3.14,3.14,0,0,0-.24,1.17c-.94-.69-.27-2.31.75-2.48s2.87-.66,3.48.52c.45.86,1.46,2.47.84,3.51a16.16,16.16,0,0,1-2.33,3c1.22-.19,2.45-.85,3.7-.69a3.73,3.73,0,0,1,2,.6c.55.41.81,1.1,1.6,1.1-.82,1.19-4.12-.15-5.29-.33-1.8-.27-4,.06-5,1.81,1.71-.81,3.32-1.63,5.28-1.12a15,15,0,0,0,2.87.6c1,.05,2.06,0,3.1,0-1.1,1.87-4,.55-5.63.47-1,0-2-.36-2.91.09A10.66,10.66,0,0,0,101,199.3c1-.2,1.88-1,3-1.11a10,10,0,0,1,3.12.32,15.49,15.49,0,0,0,3.18.29c.36,0,1.24-.33,1.5-.23.61.24-.21,1.06-.5,1.25-1.81,1.16-4.48.08-6.43-.16-1.24-.14-2.1.67-3.07,1.32-.73.49-1.35,1.69-2.25,1.82m-37-1.57a1.36,1.36,0,0,1,1-.24.78.78,0,0,1-1,.24M88,201a7.21,7.21,0,0,1,2.25-1,6.22,6.22,0,0,1,2.5.26c-.48-1-1.86-.87-2.75-.69-.45.1-2.74.59-2,1.43m11.25-1.23a3.19,3.19,0,0,0-.24-1.5c-.34.37-.25,1-.26,1.5a4.17,4.17,0,0,0,.5,0m-35-.06c.15-.62-.29-.53-.75-.62a5.12,5.12,0,0,1-1.37-.45c-.78-.39-1.36-1-2.12-1.44-.1,2.38,2.51,2.5,4.24,2.51m26.51-3.46c0,.23.05.66-.13.82l-1.23,1c-.68.56-1.13,0-1.89.15.69.89,2,.3,2.81.07s.69-.3,1-1a.74.74,0,0,0-.55-1.05m-20.25,1.47a5.8,5.8,0,0,1,1.56-2.57,16.88,16.88,0,0,1,2.61-2.53,15.32,15.32,0,0,1,5.78-2.58c1-.25,2-.48,3.08-.64a15.86,15.86,0,0,1,3.23.08,13.55,13.55,0,0,1,6.33,2.12,6.72,6.72,0,0,1,2.15,1.92,2.43,2.43,0,0,1,.51,1.2c0,.44-.59.43-1,.54a5.67,5.67,0,0,1,1.25,2c-.89-.12-1.82-1.4-2.41-2a7.44,7.44,0,0,0-2.24-1.9,13.81,13.81,0,0,0-6.4-1,17.51,17.51,0,0,0-11.85,5.42c-.9.92-1.62.61-2.6-.08m8.75.51c0-.3.08-.6-.25-.75a1.4,1.4,0,0,0,.25.75m-16.5-.78c.51-.43,2.22,0,2.85.05.9.06,1.75.45,2.65.46-.55.53-1.87,0-2.55,0a6.6,6.6,0,0,1-2.95-.51m17.5,0a2.89,2.89,0,0,0,.25-1,.61.61,0,0,0-.25,1m-7.5-1.27a1.6,1.6,0,0,0-1.5,1.25,1.4,1.4,0,0,0,1.5-1.25m8.5,1a4.81,4.81,0,0,0,.25-1.5,1.15,1.15,0,0,0-.25,1.5m-15-1.28c.68-4.19,4.66-8,8.51-9.36,1.11-.4,2.16-.85,3.24-1.31a22.85,22.85,0,0,1,3.12-.73,25.2,25.2,0,0,1,3.37-.56,14.39,14.39,0,0,1,2.92.24,13,13,0,0,1,6.44,2.17c1.31.9,4.74,3.09,3.4,5-.76,1.08-2.15-.31-2.84-.84-.91-.69-1.9-1.28-2.87-1.88a10.6,10.6,0,0,0-3.07-.73,16,16,0,0,0-3.09-.2,15.92,15.92,0,0,0-2.93.06c-.9.18-1.8.36-2.69.59a18.31,18.31,0,0,0-5,2.2,15.82,15.82,0,0,0-4.24,3.7,15.33,15.33,0,0,1-2,2.21c-.49.43-1.82-.26-2.35-.54m17.25.28a2.26,2.26,0,0,0,.25-1.25,1,1,0,0,0-.25,1.25m-1,0v-.75a1.34,1.34,0,0,0-.5.75,4.17,4.17,0,0,0,.5,0m-21.25-.79c.53-.39,1.45.08,2,.26-.49.47-1.53.08-2-.26m52.25.34a1.41,1.41,0,0,1-.32-1.08c.08-.45.1-.39-.33-.51a1.63,1.63,0,0,0-.66,0c-.74.09-.71,0-1-.57a1.22,1.22,0,0,1,.22-1.33c.63-.42.72-.37,1.47-.21a1,1,0,0,1,.9.81c.1.8.57,2.31-.29,2.88m-28.5,0a3,3,0,0,0,.25-1.25c-.52.25-.63.73-.75,1.25a2.78,2.78,0,0,0,.5,0M75,194a1.43,1.43,0,0,0-1.25,1.24A1.26,1.26,0,0,0,75,194m-23.74-7.3c1.82-.6,3.38-2.37,4.6-3.77.68-.77,1.33-1.59,2.06-2.33s1.78-1.15,1.61-2.13a4.2,4.2,0,0,1,1.25.75c.11-.73-.13-1.58-.06-2.35s.06-1.6.07-2.4c.7.44.27,1.43.74,2a23.25,23.25,0,0,0,0-3.34c0-1.11.23-2.19.23-3.3s0-2.34,0-3.51.25-2.39.26-3.6c.44.54.24,1.53.24,2.18s-.24,1.54-.25,2.32c0,1.67.24,3.33.24,5,.79-1,.51-2.63.51-3.81,0-1.41.25-2.77.25-4.18.56.6.24,2,.29,2.77a27.27,27.27,0,0,0,.45,3.23,4.37,4.37,0,0,0,.26-2.09c0-1,0-2.06,0-3.1a30.83,30.83,0,0,1,.73-5.31c.63.68,0,2.31,0,3.15a18.05,18.05,0,0,0,.22,3.6,4.54,4.54,0,0,0,.54-2.47c.07-.9.22-1.72.23-2.63,0-1.64.5-3.26.5-4.9.61.67.27,2.65.24,3.5,0,1.35,0,2.66,0,4,.84-1.06.43-2.7.53-3.94.12-1.44.49-2.87.49-4.31a2.8,2.8,0,0,1,.36,1.46,19.33,19.33,0,0,0,.38,2,7.68,7.68,0,0,0,.41-2.54,20.73,20.73,0,0,0,.1-2.95,3.77,3.77,0,0,1,.49,1.66c.07.33-.16.59.26.59s.27-.7.28-1.1c0-.6.22-1.19.23-1.8a11.58,11.58,0,0,1,.25-2.35c.38.46.27,1.24.34,1.81a14.66,14.66,0,0,1,.15,2.19c.46-.85.25-2,.4-2.95a19.53,19.53,0,0,0,.36-3.05c.74.7.5,2.35.5,3.25a7.44,7.44,0,0,0,.54-2.29c.09-.59,0-2,.71-2.21v2a6.25,6.25,0,0,0,.75-2.24,2,2,0,0,1,.5,1,6.32,6.32,0,0,0,.51-2.75,3.61,3.61,0,0,1,.5,1.25,3.5,3.5,0,0,1,.5-.75,7.17,7.17,0,0,1,.24,3.1v3.06c0,2.47,0,5,0,7.42,0,2.13-.15,4.24-.17,6.35s-.35,4.11-.35,6.19a10.75,10.75,0,0,1-.16,1.5c-.09.55,0,1.12-.1,1.66-.2,1.15-.28,2.3-.5,3.44A31.19,31.19,0,0,1,73.15,185a6.11,6.11,0,0,1-1.87,2.58,15.84,15.84,0,0,0-2.54,2.07,12.69,12.69,0,0,0-2,2.58c-.25.52-.5,1.06-.78,1.57a7.52,7.52,0,0,1-.75,1.44c-.32.18-1.36-.29-1.67-.4-.71-.26-1.41-.56-2.13-.79a37.4,37.4,0,0,1-4-1.45c-.75-.33-1.49-.69-2.23-1a6.55,6.55,0,0,1-1.69-1.42c-.85-.83-2.24-2.16-2.27-3.42m2,7.26c1.18.37,2.31-.29,3.5-.25-.37.89-3.66,1.64-3.5.25m40.5.07c0-.51-.67-1.58-1.18-1.07s.9,1,1.18,1.07m13.25-1c.17-1,.74-1.89.35-2.9a6.52,6.52,0,0,0-1.89-2.9,3.52,3.52,0,0,0-5.43.92,2,2,0,0,0-.38,1.52c.07.52.17,1.28-.62.85-.42-.23-.45-.88-.76-1.2s-.78-.8-1.19-1.19c-.84-.8-1.66-1.6-2.53-2.36a10.8,10.8,0,0,1-2.07-2.67,22.08,22.08,0,0,1-2.6-5.75c-.62-2.13-1.07-4.32-1.58-6.48-.25-1.05-.41-2.14-.58-3.21s-.49-2-.59-3c-.23-2.14-.85-4.24-1-6.38s-.51-4.44-.53-6.67c0-1.07-.24-2.15-.24-3.24s-.24-2.16-.24-3.25c0-.49,0-1,0-1.48v-1.1c0-.36,0-.34.4-.32a7.51,7.51,0,0,1,2.64,1.38,54.59,54.59,0,0,1,5.51,4,6.14,6.14,0,0,1,1.14,2.88c.28,1,.55,2.1.91,3.12L97.9,160c.71,2.09,1.79,4,2.66,6.07s1.85,4.11,2.93,6.09a56,56,0,0,0,3.69,5.9,29.19,29.19,0,0,0,4,4.87,14.15,14.15,0,0,0,2.8,2.2,20.54,20.54,0,0,0,3.11,1.28c2.14.72,4.07,1.85,6.16,2.68a21.19,21.19,0,0,0,2,.73c-.53.53-1.69.66-2.37.91s-1.55.78-2.37,1.06a29.08,29.08,0,0,0-2.76,1,3.26,3.26,0,0,1-2.61.33c-.75-.34-1.14-1.39-1.89-1.8a2.09,2.09,0,0,0-2.57.31c-.27.19-.44.84-.59,1.14-.24.5.17.89-.59.78a15.44,15.44,0,0,0-2.51-.48M78.25,192a2.37,2.37,0,0,0-1.51,1c.68.38,2-.07,1.51-1M91,192c0-.6-.52-.81-1-1a1,1,0,0,0,1,1m-9-1c-.58,0-1.63,0-1.75.75.66-.05,1.42-.06,1.75-.75m6.25-.49h-1.5a.77.77,0,0,0,1.5,0M85,191a1.37,1.37,0,0,0-1.75-.25A1.38,1.38,0,0,0,85,191m18.25-.09c-.69.14-.87-.09-1.12-.69a1.37,1.37,0,0,1,.53-1.25c.67-.28.82.33,1.11.82s-.14.92-.52,1.12M134,167.61c-.81-.16-1.71,1.08-2.23,1.58-.76.73-1.53,1.43-2.26,2.2-1.36,1.42-2.9,2.83-4.12,4.37s-2.81,3.19-4,5c-.61.9-1.21,1.81-1.81,2.71-.48.72-1.14,1.89-2.12,1.91.35-2.07,2.09-4,3.25-5.7a61.37,61.37,0,0,1,4.35-5.31c1.39-1.6,2.87-3.11,4.31-4.67a41.47,41.47,0,0,1,4.6-4.77c.66-.53,1.6-1.38,2.53-1.27,0,1.66-2.47,2.33-2.51,4,.78-.78,1.55-1.59,2.38-2.33a2.7,2.7,0,0,1,2.93-.52c1,.25,2,.48,3,.83a16.38,16.38,0,0,1,3.14,1.08c.53.33.19.6-.1,1a11.19,11.19,0,0,1-1.23,1.35c-.76.79-1.45,1.64-2.15,2.5-1.35,1.67-2.36,3.57-3.6,5.32a66.8,66.8,0,0,1-4.23,5.27,13.46,13.46,0,0,1-2.71,2,26.18,26.18,0,0,1-2.65,1.67c-1,.52-2.07,1-3.09,1.48a3.6,3.6,0,0,1-3.13.47,15.89,15.89,0,0,1-2.89-1.58c-1-.74.23-2.11.78-2.77,1.17-1.4,2.13-3,3.24-4.4s2.15-2.72,3.29-4.05,2.33-2.5,3.51-3.75c.65-.69,1.3-1.37,2-2a7.93,7.93,0,0,1,1.59-1.58M48.76,184a4.32,4.32,0,0,1,2,1.75,2.14,2.14,0,0,1-2-1.75m25.5,1.55a12.82,12.82,0,0,1,.86-3c.3-1.07.52-2.13.74-3.22a38.24,38.24,0,0,0,.7-6.5c0-.44.21-.88.22-1.32a12.57,12.57,0,0,1,.15-1.84,22.93,22.93,0,0,0,.13-3.52c0-1,.23-1.92.24-2.88v-3.79c0-2.15,0-4.33,0-6.49a38.62,38.62,0,0,0-.09-6.27,26.1,26.1,0,0,1-.17-3.65c0-.36.06-.27.42-.27.17,0,.1.54.1.68,0,.6.14,1.19.22,1.79.3,2.11-.23,4.32.08,6.44a17.25,17.25,0,0,1-.07,3.52c0,1.1.14,2.22.17,3.32.07,2.29,0,4.58,0,6.88s-.23,4.45-.25,6.67a54.67,54.67,0,0,1-.1,6.53,15.86,15.86,0,0,0-.17,2.17,7.09,7.09,0,0,1,0,2.11c-.31.74-.47,1.49-1.22,1.88a6,6,0,0,1-2,.76m-22.5-.29c-.45-.72-3.24-5.26-1.32-5.26.4,0,1.38,2.39,1.57,2.73.43.77,1.33,2.32-.25,2.53M113,183.07a22,22,0,0,0,2.13-1c.45-.18.59-.31.78.2a2.54,2.54,0,0,1,0,1.1,3,3,0,0,1-.21,1.1c-.3.54-.49.34-1,.15-.66-.26-1.64-.72-1.75-1.51M83.58,142c.79.5.5,2.14.5,2.92,0,1,.23,2,.25,3,0,1.15.24,2.29.24,3.43a20.5,20.5,0,0,0,.23,3.41c.35,2,.51,4.09.8,6.11s1,4.31,1.19,6.47a48.23,48.23,0,0,0,2,8.68,36.77,36.77,0,0,0,1.29,4.1c.31.74.68,1.46,1,2.18.25.52.82,1.4.69,2A4.58,4.58,0,0,1,89,183a9.54,9.54,0,0,1-1-3.12c-.5-2.08-.94-4.17-1.36-6.27s-.75-4.48-1.17-6.71c-.19-1-.31-2.07-.44-3.1a29.09,29.09,0,0,1-.41-2.91c0-1.64-.27-3.22-.27-4.87a39.32,39.32,0,0,0-.41-4.46,25.48,25.48,0,0,1-.08-2.62c0-.71-.18-1.43-.24-2.13-.12-1.58,0-3.23,0-4.81m-3.32,41.66a2.12,2.12,0,0,1-1.72-2.2c.17-1,.3-2.29,1.28-2.92a7.16,7.16,0,0,1,3.16-1c1.07-.16,2.16.63,3,1.14,1.78,1.08,1.63,5.14-1,4.58-.68-.14-.76-.49-1.1-1-.24-.33-.81-1.07-1.21-.56l-.61.78c-.14.18-.15.5-.31.66a3,3,0,0,1-1.53.53m-26.75,0a8.21,8.21,0,0,1-.34-4.14c.08-.48.17-1,.25-1.43a7.16,7.16,0,0,1,.1-.93c.37-.32,1.72.29,2.06.42s1.91.67,1.79,1.2a3.93,3.93,0,0,1-.75,1.85c-.77,1-1.85,2.64-3.11,3m63.5-.89c0-.83.1-1.53-.5-2.15-.4-.4-1.51.47-2,.58-.93.21-.3-1.49-.12-1.88.11-.23.54-.42.74-.56l1.53-1.09a4.16,4.16,0,0,1,1.91-.9c.55,0,.38.14.33.56a8,8,0,0,0,0,1.39c.06,1.44-.3,3.53-1.89,4.05m-5.5-.76a8.26,8.26,0,0,1,.87-3c.45-1.09.91-2.14,1.44-3.19,1-1.9,2.19-3.68,3.16-5.57a55.54,55.54,0,0,1,7.31-10.92,1.87,1.87,0,0,1,.94-.68c.9-.13.85,0,.85.86,0,.71-1.32,1.81-1.69,2.33-1.31,1.81-2.65,3.59-3.87,5.47s-2.43,3.79-3.6,5.73a68,68,0,0,0-3.48,5.95c-.28.6-.58,1.19-.86,1.79s-.37,1.38-1.07,1.25m-12.94-32c.13,0,1-.34,1-.19.15.4.35.77.5,1.16s.08.78.65.78c.2,0,.11-.81.08-1,1.11.66,1.39,2.86,1.74,4,.5-.93.17-2,0-3,1.47,1.06.93,3.38,2.24,4.51a31.65,31.65,0,0,0-.74-4c.74.59,1.08,2,1.36,2.88.35,1,.61,2.51,1.62,3.12a9.4,9.4,0,0,1-.74-3.75,4.46,4.46,0,0,1,1.07,2c.31.83.68,1.65.92,2.5.55-1-.22-2.21-.24-3.25a4.47,4.47,0,0,1,1.13,2.2c.28.86.58,1.7.86,2.56.38-.76,0-2-.24-2.75.59.34.81,1.16,1,1.75a9.5,9.5,0,0,1,.7,2,3,3,0,0,0,0-2,2.36,2.36,0,0,1,.82,1.12,9.61,9.61,0,0,0,.9,1.38c.79,1.13.08,2.2-.46,3.27-.44.88-1.79,1.78-2.5,2.46a5.66,5.66,0,0,0-1.78,2.76,15.06,15.06,0,0,0,2.66-2.39c.2-.18,1.3-.87,1.6-.6s.19,1.3.22,1.57a14.62,14.62,0,0,1,.27,1.72c0,.14-.09.88,0,1s.5.07.5-.11c0-1.38,0-2.76,0-4.14a4.34,4.34,0,0,1,.74,2.26,7.86,7.86,0,0,0,.51-3.5c.7.75.4,2,1.25,2.75a27.91,27.91,0,0,1-.25-4.75c.48.31.54,1,.65,1.48a3.77,3.77,0,0,1,.1.88c0,.12-.07.39.08.39a1.9,1.9,0,0,0,.42,0v-4.24a4.7,4.7,0,0,1,.61,2.77,2.79,2.79,0,0,1-.33,1.66c-.26.52-.53,1-.77,1.57-.94,2-2.1,3.85-3.18,5.74s-1.73,4-2.7,5.91c-.27.54-.7.11-1.05-.25a12.54,12.54,0,0,1-1-1.36c-.63-.86-1.34-1.69-1.9-2.59a94.61,94.61,0,0,1-10.88-24.77c-.1-.38-1.18-3.73-.32-3.73a2.5,2.5,0,0,1,2,.85,3.06,3.06,0,0,1,.84,1.42m-47,28.17a2,2,0,0,1,1.25-1.75c-.21.67-.42,1.61-1.25,1.75M78.77,178c.55-3.32,7.13-3.75,7.75-.23-1.28-.18-2.38-1.07-3.75-1s-2.63,1-4,1.24m41.25-.17a10.64,10.64,0,0,0-.25-2.76,4.69,4.69,0,0,1-2.53.91c-.67,0-.38-.51-.26-.94a4.09,4.09,0,0,1,.55-1.47,9.25,9.25,0,0,1,5.25-2.74,21.06,21.06,0,0,1-.38,4.12c-.26,1.28-.88,2.84-2.38,2.88m-9-2c.25-1,.28-2,.44-3s.49-1.92,0-2.75-1.79,1.48-1.93,1.71c-.44.74-1.07,1.86-.74,2.75a6.17,6.17,0,0,0,1.5-1.75,7.1,7.1,0,0,1,.25,1.84c0,.59-.28,1.26.49,1.16m-30.49-.94c-.26-.1-1-.24-1.12-.47a3.77,3.77,0,0,1-.52-1.4,7.72,7.72,0,0,1,.2-1.5,5.42,5.42,0,0,1,.2-1.5,2.59,2.59,0,0,1,2.55-1.27,4.49,4.49,0,0,1,2.74,1c.52.32.87,1.94.85,2.56,0,.81-.27,2.1-1.27,2.15s-.92-1.71-2-1.66c-.89.05-.82,1.84-1.63,2.12M124,169.34c-1.06.14-1.9.77-3,.75a3,3,0,0,1,.52-2,5.48,5.48,0,0,1,1.87-1.13,17.35,17.35,0,0,1,4.12-1.58,12.25,12.25,0,0,1-1.2,5.93,6,6,0,0,1-1.23,1.12c-.18.16-1.13-.07-1.27-.27-.58-.87.37-1.9.2-2.79m-45-.83a2.89,2.89,0,0,1,2.54-2.28c1.23,0,2.76.66,3,2a11,11,0,0,0-2.78-.5c-1,0-1.77.59-2.72.74m50-4.41c-1-.28-2.16.55-3.11.84a1.28,1.28,0,0,1-1.27-.1c-.52-.49-.2-1.05,0-1.56a3.84,3.84,0,0,1,2.41-1.74,4.22,4.22,0,0,1,3.28-.24c.81.29,2,.71,2,1.68a5.6,5.6,0,0,1-.8,3.12,3.89,3.89,0,0,1-1.13,1.12c-.61.38-.93.14-1.52-.13-.84-.39,0-2.38.09-3m10-.48c.16-.88,1.13-1.68,1.79-2.22a22.3,22.3,0,0,0,2.47-2.39c1.53-1.71,3-3.52,4.37-5.35,2.69-3.55,4.3-7.75,6.17-11.75a25,25,0,0,0,1.33-4c.4-1.41.86-2.75,1.15-4.19s.69-2.77.85-4.2c.1-1,0-13.2.1-21.67,0-1-1.75-10.45-1.74-11.3,0-2.18,2,3.2,2,3.2s.86.49.3,28.41c0,1.16.11,2.31.11,3.46,0,2.17-.13,4.34-.13,6.51v7.57c0,2.09.1,4.23-.06,6.32-.36,4.36-3.08,8.51-5.45,12-.49.74-1.06,2.15-2,2.34a6.94,6.94,0,0,1-3.22-.28c-2.21-.59-4.31-1.49-6.51-2.14a10.91,10.91,0,0,0-1.49-.4m-59.22,1.84a3.6,3.6,0,0,1-.41-4.26,3.05,3.05,0,0,1,2-.92c.94-.13,1.27.53,1.69,1.2a3.71,3.71,0,0,1,.89,2.21c0,.47-.46,1.75-1.11,1.6s-.81-1.49-1.6-1.27c-.29.08-.55.77-.67,1-.21.37-.44.37-.84.45m38.71.12a5.17,5.17,0,0,1-.24-2.38v-3.37c.5.55.44,2,.58,2.78.2,1,.57,2.22-.34,3M63.29,164c0-.67,0-1.34,0-2a1.86,1.86,0,0,1,0,2m56.25-.16v-3.25c.6.65.81,2.7,0,3.25m17.26-1c-.06-.67.41-.79.93-1.16s.92-.69,1.38-1a18.2,18.2,0,0,0,2.2-2.19,41.58,41.58,0,0,0,4.18-5.35,57.61,57.61,0,0,0,6.35-12,60.62,60.62,0,0,0,2-6.06,32.75,32.75,0,0,0,1.25-6.26c.1-2.18.5-4.32.51-6.52a25.06,25.06,0,0,1,.11-3.24,27.15,27.15,0,0,0-.1-3.25V113c0-1.06-.22-2.07-.23-3.12,0-2.12-.23-4.22-.25-6.33a34.42,34.42,0,0,0-1-5.42c-.33-2-.73-4-1.25-5.94.88.44,1.11,1.7,1.36,2.55.32,1.08.58,2.16.83,3.25.51,2.24.79,4.47,1.11,6.73s.22,4.41.5,6.6a53.16,53.16,0,0,1,.15,7,95,95,0,0,1-.58,12.85,45.63,45.63,0,0,1-1.57,6.19,61.77,61.77,0,0,1-2.19,6.3,43.23,43.23,0,0,1-3.06,6.08,36.44,36.44,0,0,1-3.53,5.13c-.64.73-1.24,1.54-1.81,2.33a24.43,24.43,0,0,1-2.26,2.41c-1.18,1.23-3.13,3.76-5.07,3.27m-1.25-3.75a4.61,4.61,0,0,1-.15,1.49c-.13.41-.47,1.17-.9,1.32-.76.26-2.6-.61-3.18-1.07-.19-.15-.85-1-.47-1.15a3.05,3.05,0,0,1,1.45-.36c1.1,0,2.14-.23,3.25-.23m-15,3v-3.5c.33.39.24.92.3,1.4.08.7.14,1.4.2,2.1a4.17,4.17,0,0,1-.5,0m-6.25-1c-1.18-1.85-2.5-3.58-3.75-5.38-.65-.93-1.45-1.73-2.09-2.67s-.44-1.78-.39-3a24,24,0,0,1,.55-3.46c.17-.9,1.35-1.89,2-2.56a43.57,43.57,0,0,0,4-5.29c.28-.41.55-.82.84-1.22.47-.67.69-.44.89.28a17.1,17.1,0,0,0,1.31,3.05c.45.87,1.41,1.44,1.81,2.33a23.64,23.64,0,0,0,1.84,3.1,4.82,4.82,0,0,1,.29,2.92,6.54,6.54,0,0,1-1.3,3.05c-1.24,1.84-2.57,3.61-3.74,5.49-.61,1-1.19,2.73-2.19,3.37m7.25-.23v-3.5c.38.42.21,1.14.3,1.65a6.2,6.2,0,0,1,.19,1.13c0,.52.14.83-.5.72m15.51-3a14.35,14.35,0,0,1-2.25.25c.2-1.07,1.47-1.78,2.38-2.18a13.86,13.86,0,0,1,3.37-1.31c0,1.45.21,3.65-1,4.77-.85.8-1.24,1.08-2.37.67-.69-.24-.25-1.68-.15-2.2M83.3,160a14.39,14.39,0,0,0-2-.53,11.19,11.19,0,0,0-2,.27c0-1.11,1.31-1.48,2.25-1.49.73,0,2.3.86,1.75,1.75m39.25-.68a14.09,14.09,0,0,0,0-2.25c.56.53.44,1.56.49,2.25a4.17,4.17,0,0,1-.5,0m0-11.25a4,4,0,0,1,1.77,1.27c.77.78,1.49,1.55,2.18,2.39,1.15,1.4,3,2.49,3.79,4.1-.77.14-2.49.53-3-.25a9.29,9.29,0,0,1-1.72-3,3.08,3.08,0,0,0,.52,2.76c.26.26.7.93,1.07,1,.63.09,1.27.22,1.9.26a12.94,12.94,0,0,0,3.29,0,8.41,8.41,0,0,0,1.64-.5,4.88,4.88,0,0,0,1.37-1.2c3-3.11,5.12-7.4,6.61-11.43a107.08,107.08,0,0,0,3.76-13.06c.23-1,.71-1.91,1-2.89a17.4,17.4,0,0,0,.47-3.29c.26-2.14.87-4.25.94-6.4a28.89,28.89,0,0,1,.35-3.21,23.07,23.07,0,0,0,.14-3.22V108a24.64,24.64,0,0,0-.43-3.07,74.14,74.14,0,0,0-3-13c-.82-2.58-1.81-5.15-2.76-7.68-.52-1.39-1.1-2.77-1.75-4.1s-1.6-2.64-1.8-4c1,.34,1.55,1.36,2,2.26s1,1.71,1.43,2.59a53.82,53.82,0,0,1,2.89,6.55c.71,2,1.32,4.15,1.88,6.25s1.34,4,1.74,6.07a38.25,38.25,0,0,1,1,6.44c0,1.07.24,2.11.24,3.17v3.31c0,2.11-.59,4.19-.7,6.28a42.35,42.35,0,0,1-1.15,6.69c-.92,4.21-2.23,8.36-3.37,12.51a60.26,60.26,0,0,1-2.34,6.65,33.91,33.91,0,0,1-2.77,5.76,35.86,35.86,0,0,1-4,5.59,9,9,0,0,1-5.83,2.09,7.22,7.22,0,0,1-3.51-.51c-.93-.46-1.48-1.86-2-2.71a14.86,14.86,0,0,1-1.9-6.17c0-.28,0-.57,0-.85m-40.76,7.68c-1,0-2.22,2.74-2.84.85a6.6,6.6,0,0,1,0-2.08c0-.81.7-1.18,1.33-1.37a3.72,3.72,0,0,1,2.07.23c.65.16.68,1.34.8,1.85a1.34,1.34,0,0,1-.64,1.75c-.65.34-.73-.83-.73-1.23m-15.25.47v-.75a.55.55,0,0,1,0,.75m61-9.14c-.65-.48-2-.66-1.93.5a12.22,12.22,0,0,0,.93,2.75c-1-.29-3.21-2.45-2.61-3.51.37-.64,1.21-1.16,1.7-1.72s1.3-1.33,1.92-2a43.13,43.13,0,0,0,3.26-4.25c.54-.78.92-1.47,2-1.3a4.4,4.4,0,0,1,2.25,1.06c-1.21.58-2.72.57-4,1,.58,1.34,1.81,2.35,2.24,3.76-1.4-.06-3-.53-4.31-.15-.69.2,1.16,3.39,1.3,3.89-.91.23-1.83-.15-2.75,0,.58.3,3.22,1.2,3.54.55s.1-1.14-.26-1.83a4.36,4.36,0,0,1-.77-2,18,18,0,0,1,3.12.32c1.59.27,1.13-1.23.63-2.06a15.29,15.29,0,0,1-.81-1.42c-.28-.63,0-.72.59-.91a7.48,7.48,0,0,1,6.23.57,2.09,2.09,0,0,1,1.49,2.32,18.4,18.4,0,0,1-2.45,6.2,36.38,36.38,0,0,1-2.84,4.55c-1.14,1.54-2.28,2.69-4.32,2.08a8.15,8.15,0,0,1-2.14-1.64,4,4,0,0,1-1.43-2.19,20.48,20.48,0,0,0-.88-2.57c-.28-.68-.68-1.71.3-2m-19.76,8.46c.08-.08.17-.16.25-.25-.08.09-.17.17-.25.25m33.75-2.69c-.53.31-1.41,1-2,.38s.27-1.68.62-2.1a8.33,8.33,0,0,1,1.93-1.91,6.11,6.11,0,0,1,2.42-1.11c.5,0,.29.52.29,1v1.7a9.08,9.08,0,0,1-.32,2.54c-.18.72-1,1.67-1.79,1.59-.62-.07-.63-.11-.8-.71-.13-.45-.22-.9-.35-1.35m-35.5,1.44.25-.25-.25.25m-27-2.05c.32-2.16,3.7-1.74,4,.26A12.63,12.63,0,0,1,81,152.1a7.47,7.47,0,0,0-1.88.16m.25-2.25a3.45,3.45,0,0,1-.13-3.42c.22-.36.89-1.13,1.41-.87s1.46.47,1.72.95a3.08,3.08,0,0,1,.46,1.94c0,.54,0,1.52-.77,1-.47-.36-.86-1.25-1.49-.75-.47.37-.49,1.06-1.2,1.17m66.51-3.88c-.54.32-1.67,1.18-2.29.8-.78-.47-.33-2,0-2.55a14.83,14.83,0,0,1,2.24-2.24,5.35,5.35,0,0,1,2.27-1.26c.25.91.46,1.83.64,2.75a8.07,8.07,0,0,1-.22,3.05,5.32,5.32,0,0,1-.53,1.23c-.15.31-1,.32-1.36.39-.87.18-.73-1.6-.79-2.17M94.32,147c-3.28-2.28-6.59-4.95-10.23-6.62a6.34,6.34,0,0,0-2.92-1,7.32,7.32,0,0,0-2.62,1.3c-.87.51-1.68,1.09-2.5,1.66a5.39,5.39,0,0,1-2.72,1.37,6,6,0,0,1,2-1.83c.91-.61,1.8-1.25,2.75-1.8a17.82,17.82,0,0,1,3-1.3c.75-.28,2.35.45,3,.78A64.58,64.58,0,0,1,90,143c.72.44,4.83,3.2,4.3,4.06m36.52-9.94c-.42,1.51-6.73,10.52-8.24,8.8-.08-.09-.53-.5-.47-.61l.47-.85c.22-.4.79-.67,1.11-1,.76-.85,1.55-1.69,2.27-2.57.85-1.06,2.58-5,4.41-4l.45.22m-48.51,8.17a5.14,5.14,0,0,0-1.54-.46c-.66,0-1.31.18-2,.2.34-1,1.23-1,2.14-1.22.61-.14,1.76.82,1.36,1.48m32.83-45.94c2.46,0,3.21,2.81,4.29,4.46.57.88,2,.84,3,1.17a7,7,0,0,1,2.74,1.74,5.2,5.2,0,0,1,1.53,3.13,7.79,7.79,0,0,1-.69,2.92,42,42,0,0,1-2.37,6.37c-1,1.94-1.67,4-2.53,6s-1.93,4-2.93,6.05-2.24,4-3.45,6c-.56.91-1.21,1.76-1.79,2.66a22.17,22.17,0,0,1-1.85,2.73c-.33.38-1.77,2.41-2.52,2a9.37,9.37,0,0,1-2.82-2.23c-.71-.73-1.34-1.56-2.06-2.29-.39-.39-.75-.78-1.1-1.2s-.21-1,0-1.6a22.22,22.22,0,0,1,1.4-2.86c.47-1,.86-2.08,1.31-3.12.92-2.1,1.71-4.27,2.44-6.44,1.4-4.17,2.9-8.34,4.08-12.58.58-2.08,1.17-4.16,1.75-6.25s1-4.33,1.58-6.47c0-.09,0-.18.08-.27m12.93,36.77c.16.65-.64,1.81-1,2.27-.62.77-1.3,1.49-1.91,2.25a25.24,25.24,0,0,1-1.86,2.25c-.36.36-1.8,2-2.41,1.4-.9-.93,2.26-3.82,2.8-4.51.67-.86,1.34-1.71,2-2.59a5.87,5.87,0,0,1,1.08-1c.29-.25,1-.06,1.33,0M79.5,142.87c-.5-.26-.81-.24-.71-.82a1.36,1.36,0,0,1,.69-.85c.64-.34,2-1.18,2.74-.43.51.55.46,2-.52,1.7-.31-.11-.75-.64-1.09-.61s-.88.78-1.11,1m44.37-21a47.42,47.42,0,0,0,1,6.35c.17,1,.27,2.1.4,3.15s-.18,2-.15,3.07c0,.55.06,1.09.12,1.64s-.45,1.09-.7,1.51a24.33,24.33,0,0,1-2.08,2.68c-.57.69-1.35,2-2.4,2.08s-1.88-1.47-2.19-2.18a8.26,8.26,0,0,1-1-4.81c.32-1.55,1.43-3,2.14-4.34.86-1.7,1.71-3.38,2.43-5.14.32-.79.69-1.55,1.07-2.32.27-.55.61-1.54,1.29-1.69m25.22,17.55c-.9,0-1.47.88-2.25,1.15-1.06.36-1.78-.14-1.4-1.29a7.38,7.38,0,0,1,3.91-3.86c1.44-.49,2,3.44,1.85,4.37a2.93,2.93,0,0,1-.39,1.19c-.35.64-.42.58-1.16.67s-.56-1.84-.56-2.23m-8,0c0-1-.18-1.9-.2-2.87a14.89,14.89,0,0,0-.29-3.13c-.79,1.61-.51,3.77-.51,5.5-1.1-.35-.65-3.07-.51-3.87.16-1,.29-3.3-.73-3.88,0,1.23,0,2.44-.07,3.67-.06,1.07.08,2.6-.44,3.58-.71-.74-.25-1.68-.24-2.54V118.77a21.74,21.74,0,0,1,0-3.33c.19-1.17,1.45-1.1,2-2.07-.35-.09-1.43-.24-1.62-.56a2.68,2.68,0,0,1-.37-1.6c0-1.21.05-2.39,0-3.59a4,4,0,0,0-.5,2.7c0,1.12-.06,2.23-.08,3.35s-.18,2.17-.18,3.26.24,2.17.24,3.28-.25,1.91-.25,2.89c0,1.22,0,2.44,0,3.67,0,2.27,0,4.54-.08,6.8a1.4,1.4,0,0,1-.93,1.17c-.32.12-.47.19-.63-.13-.24-.48,0-.43.22-.79.64-.87.66-2.61.66-3.69s0-2.46,0-3.7a15.75,15.75,0,0,0-.24-3.82c-1,1.38-.51,3.75-.51,5.35s.2,3.27-.51,4.65c-.36-.43-.25-1.18-.25-1.7a22,22,0,0,0,0-2.3c-.17-1.61.17-3.16-.22-4.75-.67,1-.5,2.2-.5,3.34,0,1.44,0,2.88,0,4.32,0,1.25,1.06,2.47-.64,2.92-.28.08-.65,0-.57.36a4.54,4.54,0,0,1,.21,1c0,.46-.1.2-.43.3s-.54.18-.83.25c.15-.8-.27-1.78-.21-2.63s.22-1.61.22-2.46v-7.5c0-.81,0-1.61,0-2.41,0,0,1.32,0,1.47,0a8.37,8.37,0,0,0,.18,1.29c.4.6.58.34,1.15,0,.37-.21,0-.86-.25-1.08-.49-.47-.8.07-.8-.73s.33-.42.75,0c.28-.83.54-1.68.86-2.5a4.91,4.91,0,0,0,.65-2.5c-.19.11-1,.39-1,.15-.15-.47-.33-.93-.47-1.4a6.82,6.82,0,0,0-.66,1.1c-.21.42,0,.36-.49.33-.28,0-.57-.14-.85-.18a5.92,5.92,0,0,0,.56,2,15.78,15.78,0,0,1,.68,2.25,2.33,2.33,0,0,0-1.2-.07c-.52.12-.47-.45-.52-.86a22.13,22.13,0,0,1,0-2.82c-.61.29-.7,1-.74,1.55,0,.31,0,.61,0,.92,0,.59,0,.52-.55.52-.35,0-.2-.42-.2-.73,0-.58,0-.52-.55-.52s-.07,1.1-.95,1c.14-.77.75-1.45.76-2.25-1.09-.06-2.17-.19-3.25-.27-.43,0-1,0-.94-.53a10.53,10.53,0,0,1,.44-1.45c.71-2.13,1.31-4.27,1.89-6.44s.88-4.2,1.23-6.27.87-4.14,1.22-6.22.66-4.28,1.16-6.35c.28-1.14.48-2.27.65-3.43s.63-1.88-.21-2.76A12.38,12.38,0,0,0,129.51,81c-1.29-.8-.81-1.58.07-2.48a13.37,13.37,0,0,1,5.8-3.11,2.14,2.14,0,0,1,2.79,1.1c.51.82,1,1.67,1.4,2.53a64.75,64.75,0,0,1,2.71,6.37c.76,2,1.59,4.07,2.19,6.16.3,1.08.59,2.17.95,3.22a8.71,8.71,0,0,1,.74,3c0,.5,0,.27-.37.47a3.48,3.48,0,0,1-.63.18,9.72,9.72,0,0,0,1.39,2.52c.18.3.54.91.15,1.06a3.53,3.53,0,0,1-1.3.17c0,1.07,1.13.71,1.39,1.34a10.66,10.66,0,0,1,.61,2.16c-.93-.46-.75-.1-.75.73v3.44c0,1.66,0,3.33,0,5s-.25,3.17-.26,4.79a24,24,0,0,1-.26,4.79c-.52-.45-.49-1.3-.49-1.94V119.7c0-1.82,0-3.57.2-5.38s.07-3.76.07-5.63c0-1.15.49-4.11-.74-4.81,0,4.51-.06,9-.27,13.5s.31,9.07,0,13.56a3,3,0,0,1-.48,1.69,4.72,4.72,0,0,1-.5-1.75,7.17,7.17,0,0,0-.74,3.67c0,.61.11,1.22.1,1.83a9.06,9.06,0,0,1-.37,2c-.4-.45-.18-1.26-.25-1.8a11.6,11.6,0,0,1,0-2.5c0-.5.3-1.82,0-2.2-.07-.1-.58-.17-.74-.36a1.65,1.65,0,0,1-.26-.89,1.07,1.07,0,0,0-.91,1.67c.2.31.71.45.85.78a2.41,2.41,0,0,1,.18,1.48c-.06.86-.12,1.7-.13,2.57v1.42c0,.61.19.89-.5.83m-4.25-1.51c-.7-.61-1-2.3.26-2.5,0,.72.22,1.9-.26,2.5m-36-.56c-.49-.91.27-2.15.64-3,.44-1,.88-2,1.27-3q1.16-3,2.06-6.18c.61-2.13,1.48-4.17,2.06-6.31s1.39-4.44,2-6.7c.54-2.1,1.13-4.19,1.72-6.27s.9-4.19,1.39-6.27c.19-.82.18-.74,1-.6.48.08,1-.09,1,.45a13.17,13.17,0,0,1-.41,3.31c-.62,2.17-1.12,4.38-1.7,6.56-1.11,4.29-2.55,8.43-4,12.63a116.59,116.59,0,0,1-4.76,12.51,16.51,16.51,0,0,1-1,1.66c-.31.51-.55,1.34-1.24,1.21m30-1.2c-.67-1-.33-2.33-.46-3.5,0-.3-.5-.42-.55-.12s-.16.75-.2,1.12a19.07,19.07,0,0,0,0,2c-.83-.13-.76-1.38-.75-2a7.26,7.26,0,0,0-.75,1.22c-.26.53-.33.58-.88.33-1.08-.47-1.15-1.77-1-2.82.06-.48.52-.68.67-1.11s-.25-.93-.61-1.4c-.66-.87,0-2.08-.15-3,1.25.76.58,3.78,2.24,4a6.59,6.59,0,0,1,1-2.5,1.38,1.38,0,0,1-.51,2.25,1.82,1.82,0,0,0,1.2.93c.82.18,1.14.43,1.3,1.32a5.31,5.31,0,0,1-.51,3.25m19.76-3c-.75.39-1.3,1.21-2.08,1.53-.1,0-1.16.39-1.18.17a5.58,5.58,0,0,1,0-1.58c.4-1.91,2-3,3.39-4.24.39-.36.45-.45.82,0a4.24,4.24,0,0,1,.64,1.36,10.66,10.66,0,0,1,.66,2.88,3.51,3.51,0,0,1-.1,1.41,1.94,1.94,0,0,1-1.1.83c-.8-.05-.92-1.77-1-2.33m-23.5,1.46a2.36,2.36,0,0,0,.25-1.25.72.72,0,0,0-.25,1.25m6.25-1a26.94,26.94,0,0,0,.26-5.16c0-.93.55-4.78-.74-5.09l0,6.15c0,.67,0,1.34,0,2a10.56,10.56,0,0,0,0,1.49c0,.43,0,.73.55.6m-4.75-2.26a1,1,0,0,0-.92,1.55c.3.47.72-.06,1-.28s0-1-.05-1.27m15.56-32c-.58,0-.5,0-.5.51,0,.69,0,1.38,0,2.07,0,1.68,0,3.36,0,5a32.37,32.37,0,0,1-.26,6.38c-.82-.25-2-.12-2,1a4.65,4.65,0,0,0,2,0c0,3.74,0,7.5,0,11.25a1.31,1.31,0,0,1-1.25-1.26l.5.25c0-3.08,0-6.16,0-9.25-1.08.16-.75,3.12-.76,3.94a20,20,0,0,0,.24,4.31c-.58,0-.84.61-1.09,1s-1,.64-1.16,1.07a3,3,0,0,0,.13,1.58,5.41,5.41,0,0,1,.37,1.81c-1-.2-2,0-2,1.25a5.84,5.84,0,0,0,3-.75c.1.29.51,1,.89.84.53-.21,1.33-.35,1.64-.84.46-.72.23-2.08.23-2.91v-7.58c0-2.14-.1-4.32.07-6.45a14.82,14.82,0,0,0,.2-1.47,14.91,14.91,0,0,1-.1-1.49c.14-1.15.05-2.27.1-3.42.1-2.34-.14-4.61-.23-6.92M130.85,130.6c-.56-.46-.33-1.25-.27-1.87s0-1.4,0-2.1c0-1.3-.35-3.33.26-4.53.93.56.49,3.54.49,4.44s.38,3.47-.51,4.06m21.26-3.71c-.74.15-1.27,1.07-2,1.14-.49.05-1,.34-1.08-.22a2.88,2.88,0,0,1,.07-1.43,8.12,8.12,0,0,1,3.28-3.9c.6-.37,1,1.09,1.14,1.52a8.73,8.73,0,0,1,.78,2.91c.06.6-.18,1.9-1,2s-1.1-1.38-1.25-2m-10.25,2.23a12,12,0,0,1,1.5-3c.41.43.07,1.39,0,1.91-.11.89-.8.92-1.51,1.08m-2.5-.5c.43-.81,0-2.11,0-3,.08-1.06.22-2.07.22-3.15s.08-6.85-.07-6.85c-.56,0-.27,0-.42.4a2.77,2.77,0,0,0-.15.6,13.48,13.48,0,0,0-.1,1.8c0,1,0,2,0,3,0,.75-.09,7.18.07,7.18h.42m-55.25-1.1a6.08,6.08,0,0,1,.93-2,9,9,0,0,1,1.36-2c.79-.73,1.38,0,2.18.46.51.31.53,1.53.53,2.06a3.33,3.33,0,0,1-.73,2.25c-.15.24-.73-.08-1-.15s-.21-.68-.31-.9c-.2-.46-.75-1.83-1.35-1-.45.66-.74,1.28-1.63,1.25m45-1.17c-.72-1,.12-1.72,0-2.75,1.13.22.76,2.31,0,2.75m-2,0a2.86,2.86,0,0,1-.83-1.13l-.42-1.62c1.33,0,.64,1.79,1.75,2a1.43,1.43,0,0,1-.5.75m.5-1c0-.49,0-1.42.75-1.25a2.09,2.09,0,0,1-.75,1.25m13-.73c.66-.83.51-2,.51-2.94,0-1.35,0-2.71,0-4.06-1.1.2-.76,2.27-.76,3.07s-.39,3.22.24,3.93m-14.49-2.52c.84-.43,2,.25,1.5,1.25-.6-.15-1.42-.58-1.5-1.25m3,.5c.33-.61.62.23.75.5a1.49,1.49,0,0,1-.75-.5M87.62,122a1.23,1.23,0,0,1,1-1.21c.63-.09.54,1.22.54,1.71a8.8,8.8,0,0,1-1.5-.5m65.5-1.39c-.73.13-1.26.9-1.83,1.32-.84.61-1.21-.51-1.07-1.2a13.81,13.81,0,0,1,2.2-4.28c.57-.91,1,.21,1.35.74a6.44,6.44,0,0,1,1,2.33c.09.79.34,1.77-.33,2.33s-1.24-.55-1.32-1.24m-28,1c-.35-.53-.46-1.09.08-1.48a2.28,2.28,0,0,1,2.1-.67c1.3.12,2.5.89,3.82.91-.2,1.27-1.48,1.3-2.52,1.07a6,6,0,0,0-1.92-.21c-.52.05-1,.3-1.56.38m11.51-4.23c-.57-.13-.52.2-.59.63a4.33,4.33,0,0,0-.09,1.34c.11.63.18.38-.3.78s-.44.62-.11,1c.58.64,2,.05,1.5-.88a5.89,5.89,0,0,1-.41-2.86m-11.76,1.48a1.47,1.47,0,0,1,1.56-1.49,5.47,5.47,0,0,1,2.45.25c-.63,1.27-2.81,1.21-4,1.24m16.26-4.47a1.41,1.41,0,0,0-1,.75c-.24.58.2.67.62.95.89.58.66-1.27.34-1.7m12,0c-.72.15-.94.87-1.5,1.25-1,.69-.91-.48-.8-1.19.19-1.16.87-3,2.06-3.44.65-.26.75.43,1.05,1a6.12,6.12,0,0,1,.8,2c0,.25.09,2.13-.46,1.89a1.86,1.86,0,0,1-1.15-1.46m-16.5.72c0-1.75,0-3.5,0-5.25-.6.44-.7,1.87-.72,2.55s-.28,2.46.71,2.7m-1.5-1.25c0-.61.3-1.36-.5-1.25a1.56,1.56,0,0,0,.5,1.25m6-.24c.29-1,.62-1.94,1-2.9a6.3,6.3,0,0,0,.47-1.45c0-.28.16-.47-.17-.65a.65.65,0,0,0-.75.25c-.2-.61-.49-1.88-1.25-2a4.88,4.88,0,0,1-.5,2,2.63,2.63,0,0,0-1-.25,10.54,10.54,0,0,0,.86,2.87c.17.49.35,1,.49,1.48.18.67.15.65.89.65m10-3.48a3.87,3.87,0,0,1,.37-2.56c.11-.28.69-2,1-1.9,1.72.59,2,2.68,1.89,4.22-.65,0-1.21-.7-1.75-1a1.73,1.73,0,0,1-1.5,1.25m-11.5-2.52a7.88,7.88,0,0,0,0-2,1.07,1.07,0,0,0-.57,1.11c0,.48-.08,1,.56.89m-12.75,0a9.75,9.75,0,0,0-5.49-3.69c-.53-.12-1-.13-1.32-.62s-.36-1-.64-1.34a11.39,11.39,0,0,0-2.46-2.8,8.37,8.37,0,0,0-3-1.07,6.46,6.46,0,0,1-2.84-2,6.83,6.83,0,0,0-2.76-1.37c-.53-.14-1.06-.27-1.6-.39a3.16,3.16,0,0,0-.69-.06c-.21,0-.75-.14-.39-.5.15-.16,1.47,0,1.68,0a6,6,0,0,1,1.51.27,8.57,8.57,0,0,1,2.75,1.54c.84.72,1.77,1.79,2.93,1.88a6.48,6.48,0,0,1,3.08,1.23,7.84,7.84,0,0,1,2.19,2.36,3.94,3.94,0,0,0,2.34,2.06,14.8,14.8,0,0,1,3.1,1.44c.65.41,1.88,1.74,1.78,2.6a.65.65,0,0,1-.14.36m15.75-.23c.21-1,1-5.45-.49-5.75V105c0,.73-.18,1.84.49,2.33m-9.36-.26c.16-.38.6-1.93-.46-1.55-.25.1-.31.84-.38,1.09s.58.37.84.46m7.87-1a21,21,0,0,0,0-2.75,2,2,0,0,0,0,2.75m9.75-1c-.68-1-.21-2.15.1-3.22.05-.19.38-1.28.51-1.27a2.2,2.2,0,0,1,1.34.85,3.76,3.76,0,0,1,1.22,2.93c-.06.7-.55.35-.92.1s-.8-.63-1.25-.89c-.14.6-.2,1.65-1,1.5m-15.75,0a3.47,3.47,0,0,0-.21-.9c-.09-.2-.77.08-1,.13-.41.11.07.58.25.66a2.83,2.83,0,0,0,.92.11m-3.5,0c.57-.33.14-1.33-.5-1s-.13,1.12.5,1m1.75-.24c.27-1.61,1-3.15,1.26-4.75a3,3,0,0,0-1.25.25,6.17,6.17,0,0,0-.5-1.75c-.76.54-.55,2-1.75,2a11.48,11.48,0,0,0,.94,2.33,13.2,13.2,0,0,1,.4,1.36c.16.66.23.57.9.57m-12-3a1.9,1.9,0,0,1-.13-1.42c.24-.59,1.06-.09,1.64-.08-.26.59-.82,1.4-1.51,1.5m28.51-1.2c-.56-1.66.25-3.43.75-5a3.12,3.12,0,0,1,1.83,1.53l1,1.71c.21.32.1,1.12.14,1.51-1,0-1.75-.94-2.5-1.5-.22.61-.41,1.91-1.25,1.75m-10.49-5.77c-.27,0-.75.27-.75.6s-.18,1,.19,1.19c.92.41.74-1.39.56-1.79m-25.26,1.7a3.82,3.82,0,0,1-.24-1.75,8.6,8.6,0,0,0,1.75.26,2.22,2.22,0,0,1-1.51,1.49m34.76-5.68c1.3,0,2.89,1.58,3.34,2.75.19.49.34,1.89-.43,1.64a11.68,11.68,0,0,1-1.66-1.14,8.34,8.34,0,0,1-.72,1.68c-.38.62-1.1-1-1.14-1.14a3.35,3.35,0,0,1,.17-1.68c.15-.7.3-1.41.44-2.11m-7.75,3.48c.16-.85-.91-.75-1.5-.75a1,1,0,0,0,1.5.75m-2.75-.75c-.39-.21-1.87-.3-1.41.42s1.27.31,1.41-.42m-8.75.73c-3.71-2.58-7.07-5.56-11.11-7.65-1-.49-1.89-1-2.88-1.44-.83-.39-2.38-.75-2.91-1.51-.91-1.29,1.46-.65,2-.41,1.49.62,1.84-.24,2.28-1.47a22.42,22.42,0,0,0,.74-2.7,3.61,3.61,0,0,0,.21-1.59c-.13-.51-.63-.71-.84-1.14-.68-1.36,1.26-.87,1.83-.59,1,.5,2,1,3,1.49,1.88,1,3.67,2,5.49,3.08.91.53,1.8,1.06,2.68,1.63a12.82,12.82,0,0,1,1.2,1c.23.21.2,1.2.24,1.52-1-.12-2.07-1.13-2.88-1.71s-1.79-1.19-2.69-1.78-1.77-1.12-2.71-1.6a7.8,7.8,0,0,0-1.46-.69c-.78-.2-1,.16-1.54.66s-.89,2.13-1.13,2.92a13.73,13.73,0,0,0-.38,1.66c-.11.61.46.94.86,1.34a15.09,15.09,0,0,0,2.47,1.71c1,.69,2.07,1.36,3.12,2s6,3.47,4.33,5.22m9.5-.48c.14-.51,1.91-3.49,1.45-3.78a3.61,3.61,0,0,1-.88-.71c-.17-.2-.19-.92-.31-1-.59-.44-.7,1.15-.75,1.5-.42-.07-.83-.18-1.25-.25a7,7,0,0,0,.61,2.11c.26.71.44,1.7,1.13,2.14m-9-2a7.82,7.82,0,0,1-2.67-2.11c-.45-.55-2.09-2.69-.77-3.16,1-.34,2.39,1.39,2.81,2.06s1.36,2.29.63,3.21m17.25-.47a5.37,5.37,0,0,1-.7-3.43,5.13,5.13,0,0,1,.16-.87c.09-.36.39-.18.65-.09a7.78,7.78,0,0,1,1.73.74c.78.46,1.26.62,1.64,1.43.19.43.3,1.46-.47,1.3-.24,0-1.57-.63-1.74-.45-.41.43-.75,1.07-1.27,1.37M131.18,86.1a6.36,6.36,0,0,1-2.34.16c-.35,0-1.94-.54-1.44-1.17a2.14,2.14,0,0,1,2.11-.55c.81.22,1.64.61,1.67,1.56m14.25-.22a7.17,7.17,0,0,1-.74-3.25,5.14,5.14,0,0,1,3.14,2.48c.28.44.54,1.3-.35.91a3.58,3.58,0,0,0-2-.14m-25.74-1.8a8.24,8.24,0,0,1,4.49.51c-.53-.9-1.59-1.52-2.23-2.39a5.11,5.11,0,0,1-1-2.86c1.06-.12,2.21,1,2.78,1.78.76,1,1.48,1.85,1,3.17a1.87,1.87,0,0,1-2.4,1.49c-.92-.14-2.68-.46-2.67-1.7m14.37,1.28c.26-.42.41-.62.29-1.1-.17-.66-.29-.56-1-.67-.43-.07-.3.92-.27,1.09.07.39.5.9.94.68m-8.63.23c0-.29,0-1.25.57-.68.36.37-.24.55-.57.68m10.51-2.73c.2-1.07-1.42-.6-2-.5a7.27,7.27,0,0,1,.12-1.54,6.36,6.36,0,0,0,.38-1.81c-.07-.57,0-.2-.39-.42a2.72,2.72,0,0,1-.57-.27c-.36-.34-.78-.87-1.28-1a2.11,2.11,0,0,1-.82,1.85c-.51.39.57,1.71.82,2.11A3.91,3.91,0,0,0,133.78,83a2.22,2.22,0,0,0,2.16-.17m-22.5-1c.28-.92.55-1.18,1.44-.76a2.14,2.14,0,0,1,.81,1.77,6,6,0,0,1-2.25-1m30-.94a1.32,1.32,0,0,1-.5-1c.31.25.77.56.5,1m-15.23-14c2.26.9,1.14,3.79.78,5.57-.21,1-.47,2.08-.68,3.12s-.32,2.47-1,3.23c-.14.16-.53,0-.73,0-.37,0-.33-.09-.49-.45a2.68,2.68,0,0,1,.19-1.66c.29-1.07.5-2.19.72-3.28.42-2,.58-4.15,1.08-6.15l.09-.37m.48,11a25.11,25.11,0,0,1,.91-4.5c.29-1.49.6-3,.86-4.5,1.28.25,2.44,1.6,3.41,2.42a10.48,10.48,0,0,1,2.83,2.84c-1.27.63-2.79.76-4,1.5s-2.62,2-4,2.24m-12.75,0c.06-.13.35-.91.57-.69.39.39-.1.79-.57.69m2-3.5c.4-.84,1.29-2.78,2.26-3a15,15,0,0,1-.35,2.66c-.12.62,0,.88-.66.81a2.8,2.8,0,0,1-1.25-.47"/><path class="cls-4" d="M124.56,188.79l1.34.63.88.1,1-.38.76-.43.56-.6.38-1.05.33-.92-2.5,1.25-1.66.84"/><path d="M154,41h-.47v-.75h-5.7V41h-.48V38.7h.48v.75h5.63V36.76h-1.11v-.49H154Z"/><path d="M154,36.13h-.47v-.52l-6.18-2.09v-.66l6.18-2.1v-.57H154v2.13h-.47v-.65l-1.46.49v2.47l1.46.49v-.64H154Zm-2.42-1.66V32.31l-3.16,1.08Z"/><path d="M154,29.82h-.47v-.75h-5.7v.75h-.48V27.53h.48v.75h2.28V25.23h-2.28V26h-.48v-2.3h.48v.75h5.7v-.75H154V26h-.47v-.75h-2.87v3.05h2.87v-.75H154Z"/><path d="M153.52,21.25V20.5H154v2.3h-.47v-.75h-5.7v.75h-.48V20.5h.48v.75Z"/><path d="M150.69,16.2a1,1,0,0,1,.29-.47,1.7,1.7,0,0,1,.57-.36l2-.85V13.8H154v1.39l-2.11.91a2.25,2.25,0,0,0-.8.49.9.9,0,0,0-.18.6v.88h2.62v-.83H154v2.37h-.47v-.75h-5.7v.75h-.48v-3a1.81,1.81,0,0,1,.46-1.33,1.77,1.77,0,0,1,1.31-.46,1.57,1.57,0,0,1,1.08.34A1.55,1.55,0,0,1,150.69,16.2Zm-.27,1.87V16.91a1.09,1.09,0,0,0-.32-.87,1.43,1.43,0,0,0-1-.29,1.42,1.42,0,0,0-1,.29,1.09,1.09,0,0,0-.32.87v1.16Z"/><path d="M154,13.55h-.47V12.8h-5.7v.75h-.48V8.81h1.48V9.3h-.94V12h2.22V10.06h-.83V9.58h2.21v.48h-.83V12h2.8V9.23h-.94V8.75H154Z"/><path d="M12.73,201.09h.47v.75h5.7v-.75h.49v2.3H18.9v-.75H13.28v2.68h1.11v.49H12.73Z"/><path d="M12.73,206h.47v.51l6.19,2.09v.66l-6.19,2.1v.57h-.47v-2.13h.47v.65l1.47-.49v-2.47L13.2,207v.64h-.47Zm2.42,1.65v2.16l3.16-1.08Z"/><path d="M12.73,212.26h.47V213h5.7v-.75h.49v2.3H18.9v-.75H16.62v3H18.9v-.75h.49v2.3H18.9v-.75H13.2v.75h-.47v-2.3h.47v.75h2.87v-3H13.2v.75h-.47Z"/><path d="M13.2,220.83v.75h-.47v-2.29h.47V220h5.7v-.75h.49v2.29H18.9v-.75Z"/><path d="M16,225.88a1.2,1.2,0,0,1-.29.47,1.93,1.93,0,0,1-.57.36l-2,.85v.72h-.47v-1.39l2.12-.91a2.35,2.35,0,0,0,.79-.48.94.94,0,0,0,.18-.61V224H13.2v.82h-.47v-2.37h.47v.75h5.7v-.75h.49v3a1.8,1.8,0,0,1-.47,1.33,1.76,1.76,0,0,1-1.31.46,1.57,1.57,0,0,1-1.08-.34A1.5,1.5,0,0,1,16,225.88Zm.27-1.86v1.15a1.12,1.12,0,0,0,.31.88,1.52,1.52,0,0,0,1,.28,1.49,1.49,0,0,0,1-.28,1.12,1.12,0,0,0,.31-.88V224Z"/><path d="M12.73,228.54h.47v.75h5.7v-.75h.49v4.73H17.9v-.48h.94v-2.71H16.62V232h.83v.49h-2.2V232h.82v-1.94H13.28v2.77h.93v.48H12.73Z"/><path class="cls-6" d="M14.29,20.33c0,12,15,20.69,19.42,30.18C38.15,41.05,53.2,32.4,53.28,20.43a10,10,0,0,0-9.72-10.26,10,10,0,0,0-9.78,10.21,10,10,0,0,0-9.72-10.26A10,10,0,0,0,14.29,20.33Z"/><path class="cls-6" d="M152.37,221.62c0-12-15-20.69-19.41-30.17-4.44,9.46-19.5,18.1-19.57,30.08a9.76,9.76,0,1,0,19.49.05,9.76,9.76,0,1,0,19.49,0Z"/><path class="cls-3" d="M9.25,51.59H22.73V7.84H9.25Z"/><path class="cls-3" d="M157.42,190H143.94v43.75h13.48Z"/><path class="cls-6" d="M11.1,26.87V24.34h.72a4.53,4.53,0,0,0,.23,1.49.64.64,0,0,0,.6.48c.36,0,.6-.27.74-.81a14.28,14.28,0,0,0,.21-3V8.06H12.41V6.75h4.31V8.06h-1V22.55A8.29,8.29,0,0,1,15,26.4a2.37,2.37,0,0,1-3,1A3.66,3.66,0,0,1,11.1,26.87Z"/><path class="cls-6" d="M11.69,31.32c0,2.87,3.6,5,4.66,7.24C17.41,36.29,21,34.22,21,31.34a2.34,2.34,0,1,0-4.67,0,2.34,2.34,0,1,0-4.68,0Z"/><path class="cls-6" d="M155.07,210.62c0-2.88-3.61-5-4.66-7.25-1.07,2.27-4.68,4.35-4.7,7.22a2.34,2.34,0,1,0,4.68,0,2.34,2.34,0,1,0,4.68,0Z"/><path class="cls-6" d="M155.72,215.84v2.53H155a4.55,4.55,0,0,0-.24-1.5.65.65,0,0,0-.6-.47c-.36,0-.6.27-.74.81a14.28,14.28,0,0,0-.21,3v14.41h1.19V236H150.1v-1.31h1v-14.5a8.29,8.29,0,0,1,.67-3.85,2.22,2.22,0,0,1,2.1-1.21,2.41,2.41,0,0,1,.9.18A4,4,0,0,1,155.72,215.84Z"/></g></svg>