<svg id="Слой_1" data-name="Слой 1" xmlns="http://www.w3.org/2000/svg" viewBox="0 0 167.09 242.67"><defs><style>.cls-1{fill:#fff;stroke:#000;stroke-width:0.5px;}.cls-2{fill:#e61408;}</style></defs><title>3</title><g id="Layer_1"><path class="cls-1" d="M166.84,235.54a6.9,6.9,0,0,1-6.87,6.88H7.11a6.89,6.89,0,0,1-6.86-6.88V7.12A6.89,6.89,0,0,1,7.11.25H160a6.89,6.89,0,0,1,6.87,6.87Z"/><path class="cls-2" d="M48.27,29.26H32.67s2.44.51,9.26-6,6.34-10.08,6.34-10.08M32.67,29.26s3.41-.5,9.75,6.55,5.85,9.58,5.85,9.58V29.26m0,16.13s-.49-3.53,6.34-10.08,9.26-6.05,9.26-6.05H48.27m15.6,0s-3.41.51-9.75-6.55-5.85-9.57-5.85-9.57V29.26"/><path class="cls-2" d="M117.5,12.91S117,16.44,123.84,23,133.1,29,133.1,29H117.5m0,0V45.16s-.49-2.51,5.85-9.57S133.1,29,133.1,29m-15.6,0H101.9s2.44-.5,9.26,6.05,6.34,10.07,6.34,10.07m0-16.12V12.91s.49,2.52-5.85,9.58S101.9,29,101.9,29"/><path class="cls-2" d="M48,228s.48-3.53-6.34-10.08-9.26-6-9.26-6H48m0,0V195.71s.48,2.52-5.85,9.58-9.75,6.55-9.75,6.55m15.6,0h15.6s-2.44.5-9.27-6.05S48,195.71,48,195.71m0,16.13V228s-.49-2.52,5.85-9.57,9.75-6.55,9.75-6.55"/><path class="cls-2" d="M117.21,212.06h15.6s-2.43-.5-9.26,6.05-6.34,10.08-6.34,10.08m15.6-16.13s-3.41.5-9.75-6.55-5.85-9.57-5.85-9.57v16.12m0-16.12s.49,3.52-6.33,10.07-9.27,6.05-9.27,6.05h15.6m-15.6,0s3.42-.5,9.75,6.55,5.85,9.58,5.85,9.58V212.06"/><path class="cls-2" d="M48.2,121.75H32.6s2.44.51,9.27-6,6.33-10.08,6.33-10.08M32.6,121.75s3.42-.5,9.75,6.55,5.85,9.58,5.85,9.58V121.75m0,16.13s-.48-3.53,6.34-10.08,9.26-6,9.26-6H48.2m15.6,0s-3.41.51-9.75-6.55-5.85-9.57-5.85-9.57v16.12"/><path class="cls-2" d="M117.43,105.41s-.49,3.52,6.34,10.07,9.26,6,9.26,6h-15.6m0,0v16.13s-.49-2.52,5.85-9.58,9.75-6.55,9.75-6.55m-15.6,0h-15.6s2.44-.5,9.26,6,6.34,10.08,6.34,10.08m0-16.13V105.41s.49,2.51-5.85,9.57-9.75,6.55-9.75,6.55"/><path class="cls-2" d="M13.75,15.29a3,3,0,0,1,.79-.95,1.6,1.6,0,0,1,.94-.31c.82,0,1.47.54,1.94,1.62a11.44,11.44,0,0,1,.7,4.45,10.65,10.65,0,0,1-.8,4.62,2.47,2.47,0,0,1-2.26,1.62c-1.09,0-1.92-.74-2.49-2.23a19.22,19.22,0,0,1-.85-6.55,22.24,22.24,0,0,1,.94-7.43c.62-1.67,1.56-2.51,2.79-2.51a3.35,3.35,0,0,1,1,.18,6.42,6.42,0,0,1,1.19.54v3.19H17a4.73,4.73,0,0,0-.51-1.86,1.1,1.1,0,0,0-1-.64c-.64,0-1.09.49-1.38,1.47A19.27,19.27,0,0,0,13.75,15.29Zm1.18,9.65c.38,0,.64-.36.8-1.06A19.12,19.12,0,0,0,16,20.2a19,19,0,0,0-.24-3.67c-.16-.71-.42-1.06-.8-1.06s-.63.35-.79,1.06a19,19,0,0,0-.24,3.67,19.12,19.12,0,0,0,.24,3.68C14.3,24.58,14.56,24.94,14.93,24.94Z"/><path class="cls-2" d="M152.65,227.29a3.24,3.24,0,0,1-.79,1,1.57,1.57,0,0,1-1,.31c-.82,0-1.46-.54-1.93-1.62a11.39,11.39,0,0,1-.71-4.45,10.8,10.8,0,0,1,.8-4.62,2.47,2.47,0,0,1,2.26-1.62c1.09,0,1.93.74,2.49,2.23a19.18,19.18,0,0,1,.86,6.55,22.51,22.51,0,0,1-.94,7.43c-.63,1.67-1.56,2.51-2.8,2.51a3.4,3.4,0,0,1-1-.18,6.42,6.42,0,0,1-1.19-.54v-3.19h.65a4.84,4.84,0,0,0,.51,1.87,1.13,1.13,0,0,0,1,.63c.63,0,1.08-.49,1.37-1.47A19.65,19.65,0,0,0,152.65,227.29Zm-1.19-9.65c-.37,0-.64.36-.8,1.06a29.48,29.48,0,0,0,0,7.35c.16.71.43,1.06.8,1.06s.63-.35.79-1.06a28.26,28.26,0,0,0,0-7.35C152.09,218,151.83,217.64,151.46,217.64Z"/><path class="cls-2" d="M16.22,34.06h-5s.79.16,3-2,2-3.26,2-3.26m-5,5.22s1.11-.17,3.16,2.11,1.89,3.1,1.89,3.1V34.06m0,5.21s-.16-1.14,2-3.26,3-1.95,3-1.95h-5m5,0s-1.11.16-3.15-2.12-1.89-3.1-1.89-3.1v5.22"/><path class="cls-2" d="M150.64,208.14h5.05s-.79-.16-3,2-2.05,3.26-2.05,3.26m5.05-5.21s-1.11.16-3.15-2.12-1.9-3.09-1.9-3.09v5.21m0-5.21s.16,1.14-2,3.26-3,1.95-3,1.95h5m-5,0s1.11-.16,3.15,2.12,1.89,3.09,1.89,3.09v-5.21"/></g></svg>