<svg id="Слой_1" data-name="Слой 1" xmlns="http://www.w3.org/2000/svg" viewBox="0 0 167.09 242.67"><defs><style>.cls-1{fill:#fff;stroke:#000;stroke-width:0.5px;}.cls-2{fill:#e61408;}</style></defs><title>33</title><g id="Layer_1"><path class="cls-1" d="M166.84,235.55a6.89,6.89,0,0,1-6.87,6.87H7.11a6.89,6.89,0,0,1-6.86-6.87V7.12A6.89,6.89,0,0,1,7.11.25H160a6.89,6.89,0,0,1,6.87,6.87Z"/><path class="cls-2" d="M69.82,113.51c0,9.58,12,16.55,15.54,24.14C88.9,130.08,101,123.17,101,113.59a7.81,7.81,0,1,0-15.6,0,7.8,7.8,0,1,0-15.59,0Z"/><path class="cls-2" d="M12.62,26V24.57h1.5V10l-1.68,2.22v-1.8l2-2.73h1.7V24.57h1.53V26Z"/><path class="cls-2" d="M153.9,216.62v1.47h-1.5v14.6l1.68-2.23v1.8l-2,2.73h-1.69v-16.9h-1.54v-1.47Z"/><path class="cls-2" d="M11.52,31.61c0,2.87,3.61,5,4.66,7.24,1.06-2.27,4.68-4.34,4.7-7.22a2.34,2.34,0,1,0-4.68,0,2.34,2.34,0,1,0-4.68,0Z"/><path class="cls-2" d="M154.9,210.91c0-2.88-3.61-5-4.66-7.24-1.07,2.27-4.68,4.34-4.7,7.21a2.34,2.34,0,1,0,4.68,0,2.34,2.34,0,1,0,4.68,0Z"/></g></svg>