<svg id="Слой_1" data-name="Слой 1" xmlns="http://www.w3.org/2000/svg" viewBox="0 0 167.09 242.67"><defs><style>.cls-1{fill:#fff;stroke:#000;stroke-width:0.5px;}</style></defs><title>34</title><g id="Layer_1"><path class="cls-1" d="M166.84,235.55a6.89,6.89,0,0,1-6.87,6.87H7.11a6.89,6.89,0,0,1-6.86-6.87V7.12A6.89,6.89,0,0,1,7.11.25H160a6.89,6.89,0,0,1,6.87,6.87Z"/><path d="M91.84,111.42a7,7,0,1,1-7-6.83A6.94,6.94,0,0,1,91.84,111.42Z"/><path d="M100.92,124.35a7.05,7.05,0,1,1-7-6.83A6.95,6.95,0,0,1,100.92,124.35Z"/><path d="M82.88,124.41a6.72,6.72,0,0,1-1.15,3.74,7.1,7.1,0,0,1-5.9,3.09,6.84,6.84,0,1,1,7-6.83Z"/><path d="M93.06,137.67c-3.48,0-5.31-2.83-6.27-5.66a22.1,22.1,0,0,1-1.05-5.66H84s-.34,11.32-7.29,11.33Z"/><path d="M80,116.44c4,4,4,9.9,4,9.9h1.77s0-6.07,3.85-9.91"/><path d="M80.8,129.15c4-4,9.9-4,9.9-4l0-1.78s-6.07,0-9.92-3.85"/><path d="M88.74,129.18c-4-4-9.9-4-9.9-4v-1.78s6.06,0,9.91-3.85"/><path d="M12.61,25.83V24.36h1.5V9.76L12.43,12v-1.8l2-2.73h1.69V24.36h1.54v1.47Z"/><path d="M153.89,216.41v1.47h-1.5v14.6l1.68-2.23v1.8l-2,2.73h-1.7v-16.9h-1.53v-1.47Z"/><path d="M18.14,31.16A2.12,2.12,0,1,1,16,29.11,2.09,2.09,0,0,1,18.14,31.16Z"/><path d="M20.87,35a2.12,2.12,0,1,1-2.12-2A2.09,2.09,0,0,1,20.87,35Z"/><path d="M15.45,35.06a2,2,0,0,1-.35,1.12,2.13,2.13,0,0,1-1.77.93,2.05,2.05,0,1,1,2.12-2Z"/><path d="M18.51,39c-1.05,0-1.6-.85-1.89-1.7a6.41,6.41,0,0,1-.31-1.7h-.54s-.1,3.4-2.19,3.4Z"/><path d="M14.58,32.67a4.62,4.62,0,0,1,1.19,3h.54a4.67,4.67,0,0,1,1.15-3"/><path d="M14.82,36.49a4.66,4.66,0,0,1,3-1.19v-.54a4.71,4.71,0,0,1-3-1.15"/><path d="M17.21,36.49a4.68,4.68,0,0,0-3-1.18v-.54a4.71,4.71,0,0,0,3-1.15"/><path d="M148.28,210.77a2.12,2.12,0,1,1,2.12,2A2.09,2.09,0,0,1,148.28,210.77Z"/><path d="M145.55,206.89a2.12,2.12,0,1,1,2.12,2.05A2.09,2.09,0,0,1,145.55,206.89Z"/><path d="M151,206.87a2,2,0,0,1,.35-1.12,2.13,2.13,0,0,1,1.77-.93,2.06,2.06,0,1,1-2.12,2.05Z"/><path d="M147.91,202.89c1.05,0,1.6.85,1.89,1.7a6.93,6.93,0,0,1,.31,1.7h.54s.1-3.4,2.19-3.4Z"/><path d="M151.83,209.27a4.68,4.68,0,0,1-1.18-3h-.54a4.71,4.71,0,0,1-1.15,3"/><path d="M151.6,205.44a4.66,4.66,0,0,1-3,1.19v.54a4.71,4.71,0,0,1,3,1.15"/><path d="M149.21,205.44a4.66,4.66,0,0,0,3,1.19v.53a4.71,4.71,0,0,0-3,1.15"/></g></svg>