<svg id="Слой_1" data-name="Слой 1" xmlns="http://www.w3.org/2000/svg" viewBox="0 0 167.09 242.67"><defs><style>.cls-1{fill:#fff;stroke:#000;stroke-width:0.5px;}.cls-2{fill:#e61408;}</style></defs><title>35</title><g id="Layer_1"><path class="cls-1" d="M166.84,235.54a6.9,6.9,0,0,1-6.87,6.88H7.11a6.89,6.89,0,0,1-6.86-6.88V7.12A6.89,6.89,0,0,1,7.11.25H160a6.89,6.89,0,0,1,6.87,6.87Z"/><path class="cls-2" d="M85.41,121.4H69.81s2.44.5,9.26-6.05,6.34-10.08,6.34-10.08M69.81,121.4s3.41-.51,9.75,6.55,5.85,9.57,5.85,9.57V121.4m0,16.12s-.49-3.52,6.34-10.07,9.26-6,9.26-6H85.41m15.6,0s-3.41.5-9.75-6.55-5.85-9.58-5.85-9.58V121.4"/><path class="cls-2" d="M12.59,26V24.53h1.5V9.93L12.4,12.16v-1.8l2-2.74h1.69V24.53h1.53V26Z"/><path class="cls-2" d="M153.86,216.58v1.47h-1.5v14.6l1.69-2.23v1.8L152,235h-1.69V218.05H148.8v-1.47Z"/><path class="cls-2" d="M16.24,34.06h-5s.79.16,3-2,2-3.26,2-3.26m-5,5.22s1.1-.17,3.15,2.11,1.89,3.1,1.89,3.1V34.06m0,5.21s-.15-1.14,2.05-3.26,3-1.95,3-1.95H16.24m5.05,0s-1.11.16-3.16-2.12-1.89-3.1-1.89-3.1v5.22"/><path class="cls-2" d="M150.67,208.14h5s-.78-.16-3,2-2.05,3.26-2.05,3.26m5-5.21s-1.1.16-3.15-2.12-1.89-3.09-1.89-3.09v5.21m0-5.21s.16,1.14-2,3.26-3,1.95-3,1.95h5m-5,0s1.1-.16,3.15,2.12,1.89,3.09,1.89,3.09v-5.21"/></g></svg>