<svg id="Слой_1" data-name="Слой 1" xmlns="http://www.w3.org/2000/svg" viewBox="0 0 167.09 242.67"><defs><style>.cls-1{fill:#fff;stroke:#000;stroke-width:0.5px;}</style></defs><title>36</title><g id="Layer_1"><path class="cls-1" d="M166.84,235.55a6.89,6.89,0,0,1-6.87,6.87H7.11a6.89,6.89,0,0,1-6.86-6.87V7.12A6.89,6.89,0,0,1,7.11.25H160a6.89,6.89,0,0,1,6.87,6.87Z"/><path d="M93.5,137.47c-3.48,0-5.31-3.71-6.27-7.42a37.26,37.26,0,0,1-1-7.42l-1.78,0s-.33,14.85-7.29,14.86Z"/><path d="M99.39,122.63c0-7.25-10.87-12.5-14.06-18.23-3.18,5.73-14,11-14.06,18.23,0,3.42,3.15,6.19,7,6.19s7-2.77,7-6.19c0,3.42,3.15,6.19,7,6.19S99.39,126.05,99.39,122.63Z"/><path d="M12.64,25.79V24.32h1.5V9.72L12.45,12v-1.8l2-2.73h1.69v16.9H17.7v1.47Z"/><path d="M153.91,216.37v1.47h-1.5v14.6l1.69-2.23V232l-2,2.73h-1.69V217.84h-1.53v-1.47Z"/><path d="M18.93,39.28c-1.09,0-1.67-1.16-2-2.33a11.94,11.94,0,0,1-.33-2.34h-.56s-.1,4.67-2.3,4.67Z"/><path d="M20.79,34.61c0-2.28-3.43-3.93-4.43-5.74-1,1.81-4.41,3.46-4.42,5.74a2.08,2.08,0,0,0,2.21,2,2.09,2.09,0,0,0,2.21-2,2.09,2.09,0,0,0,2.22,2A2.09,2.09,0,0,0,20.79,34.61Z"/><path d="M147.92,203c1.1,0,1.67,1.17,2,2.34a11.39,11.39,0,0,1,.34,2.33h.55s.11-4.68,2.3-4.68Z"/><path d="M146.07,207.62c0,2.28,3.42,3.94,4.42,5.74,1-1.8,4.42-3.46,4.43-5.74a2.23,2.23,0,0,0-4.43,0,2.23,2.23,0,0,0-4.42,0Z"/></g></svg>