<svg id="Слой_1" data-name="Слой 1" xmlns="http://www.w3.org/2000/svg" viewBox="0 0 167.09 242.67"><defs><style>.cls-1{fill:#fff;stroke:#000;stroke-width:0.5px;}</style></defs><title>4</title><g id="Layer_1"><path class="cls-1" d="M166.84,235.55a6.89,6.89,0,0,1-6.87,6.87H7.11a6.89,6.89,0,0,1-6.86-6.87V7.12A6.89,6.89,0,0,1,7.11.25H160a6.89,6.89,0,0,1,6.87,6.87Z"/><path d="M57.22,46.11c-3.48,0-5.31-3.71-6.27-7.41a37.4,37.4,0,0,1-1.05-7.43l-1.78,0s-.33,14.85-7.29,14.86Z"/><path d="M63.1,31.27C63.07,24,52.23,18.77,49.05,13,45.86,18.77,35,24,35,31.27c0,3.42,3.15,6.19,7,6.19s7-2.77,7-6.19c0,3.42,3.14,6.19,7,6.19S63.1,34.69,63.1,31.27Z"/><path d="M126.45,46.11c-3.48,0-5.31-3.71-6.27-7.41a37.4,37.4,0,0,1-1.05-7.43l-1.77,0s-.34,14.85-7.3,14.86Z"/><path d="M132.34,31.27c0-7.24-10.87-12.5-14.06-18.23-3.18,5.73-14,11-14,18.23,0,3.42,3.14,6.19,7,6.19s7-2.77,7-6.19c0,3.42,3.15,6.19,7,6.19S132.34,34.69,132.34,31.27Z"/><path d="M57,137.57c-3.48,0-5.31-3.71-6.27-7.42a37.26,37.26,0,0,1-1.05-7.42l-1.77,0s-.34,14.85-7.29,14.86Z"/><path d="M62.87,122.73c0-7.25-10.87-12.5-14.06-18.23-3.18,5.73-14,11-14.05,18.23,0,3.42,3.14,6.19,7,6.19s7-2.77,7-6.19c0,3.42,3.15,6.19,7,6.19S62.87,126.15,62.87,122.73Z"/><path d="M126.45,137.57c-3.48,0-5.31-3.71-6.27-7.42a37.26,37.26,0,0,1-1.05-7.42l-1.77,0s-.34,14.85-7.3,14.86Z"/><path d="M132.34,122.73c0-7.25-10.87-12.5-14.06-18.23-3.18,5.73-14,11-14,18.23,0,3.42,3.14,6.19,7,6.19s7-2.77,7-6.19c0,3.42,3.15,6.19,7,6.19S132.34,126.15,132.34,122.73Z"/><path d="M40.59,196.79c7,0,7.29,14.86,7.29,14.86l1.78,0a37.4,37.4,0,0,1,1.05-7.43c1-3.7,2.79-7.42,6.27-7.41Z"/><path d="M62.87,211.63c0,7.24-10.87,12.5-14.06,18.23-3.18-5.73-14-11-14.05-18.23,0-3.42,3.14-6.19,7-6.19s7,2.77,7,6.19c0-3.42,3.15-6.19,7-6.19S62.87,208.21,62.87,211.63Z"/><path d="M110.3,196.79c7,0,7.29,14.86,7.29,14.86l1.77,0a37.86,37.86,0,0,1,1.06-7.43c1-3.7,2.79-7.42,6.27-7.41Z"/><path d="M132.57,211.63c0,7.24-10.87,12.5-14,18.23-3.19-5.73-14-11-14.06-18.23,0-3.42,3.15-6.19,7-6.19s7,2.77,7,6.19c0-3.42,3.14-6.19,7-6.19S132.57,208.21,132.57,211.63Z"/><path d="M14,15.08a3,3,0,0,1,.79-.95,1.55,1.55,0,0,1,1-.31c.82,0,1.46.54,1.93,1.62a11.39,11.39,0,0,1,.71,4.45,10.8,10.8,0,0,1-.8,4.62,2.48,2.48,0,0,1-2.26,1.62c-1.1,0-1.93-.74-2.5-2.23A19.22,19.22,0,0,1,12,17.35a22.24,22.24,0,0,1,.94-7.43c.63-1.67,1.56-2.51,2.8-2.51a3.34,3.34,0,0,1,1,.18,6.8,6.8,0,0,1,1.2.54v3.19h-.66a4.84,4.84,0,0,0-.51-1.87,1.1,1.1,0,0,0-1-.63c-.63,0-1.09.49-1.37,1.47A19.15,19.15,0,0,0,14,15.08Zm1.19,9.65c.37,0,.63-.36.79-1.06A19.12,19.12,0,0,0,16.22,20,19,19,0,0,0,16,16.32c-.16-.71-.42-1.06-.79-1.06s-.64.35-.8,1.06A20.11,20.11,0,0,0,14.16,20a20.24,20.24,0,0,0,.23,3.68C14.55,24.37,14.82,24.73,15.19,24.73Z"/><path d="M152.9,227.08a2.81,2.81,0,0,1-.79.94,1.58,1.58,0,0,1-1,.32c-.82,0-1.46-.54-1.93-1.62a11.42,11.42,0,0,1-.71-4.45,10.77,10.77,0,0,1,.8-4.62,2.48,2.48,0,0,1,2.26-1.62c1.1,0,1.93.74,2.5,2.22a19.32,19.32,0,0,1,.85,6.56,22.24,22.24,0,0,1-.94,7.43c-.63,1.67-1.56,2.51-2.8,2.51a3.73,3.73,0,0,1-1-.18A9.14,9.14,0,0,1,149,234v-3.19h.66a4.73,4.73,0,0,0,.51,1.86,1.1,1.1,0,0,0,1,.64c.63,0,1.09-.49,1.37-1.48A19.5,19.5,0,0,0,152.9,227.08Zm-1.19-9.65c-.37,0-.64.36-.79,1.06a28.26,28.26,0,0,0,0,7.35c.15.71.42,1.06.79,1.06s.64-.35.8-1.06a29.48,29.48,0,0,0,0-7.35C152.35,217.79,152.08,217.43,151.71,217.43Z"/><path d="M19.11,39.28c-1.09,0-1.67-1.16-2-2.33a11.11,11.11,0,0,1-.33-2.34h-.56s-.11,4.68-2.3,4.68Z"/><path d="M21,34.61c0-2.28-3.42-3.94-4.42-5.74-1,1.8-4.42,3.46-4.43,5.74a2.09,2.09,0,0,0,2.22,2,2.09,2.09,0,0,0,2.21-2,2.09,2.09,0,0,0,2.21,2A2.09,2.09,0,0,0,21,34.61Z"/><path d="M148.1,203c1.09,0,1.67,1.17,2,2.33a11.94,11.94,0,0,1,.33,2.34H151s.1-4.68,2.3-4.68Z"/><path d="M146.24,207.62c0,2.28,3.43,3.94,4.43,5.74,1-1.8,4.41-3.46,4.42-5.74a2.23,2.23,0,0,0-4.42,0,2.23,2.23,0,0,0-4.43,0Z"/></g></svg>