<svg id="Слой_1" data-name="Слой 1" xmlns="http://www.w3.org/2000/svg" viewBox="0 0 167.09 242.67"><defs><style>.cls-1{fill:#fff;stroke:#000;stroke-width:0.5px;}.cls-2{fill:#e61408;}</style></defs><title>5</title><g id="Layer_1"><path class="cls-1" d="M166.84,235.55a6.89,6.89,0,0,1-6.87,6.87H7.11a6.89,6.89,0,0,1-6.86-6.87V7.12A6.89,6.89,0,0,1,7.11.25H160a6.89,6.89,0,0,1,6.87,6.87Z"/><path class="cls-2" d="M33.18,21.91c0,9.58,12,16.55,15.54,24.14C52.26,38.48,64.31,31.57,64.37,22a7.81,7.81,0,1,0-15.6,0,7.8,7.8,0,1,0-15.59,0Z"/><path class="cls-2" d="M33.18,220.76c0-9.58,12-16.55,15.54-24.14,3.54,7.57,15.59,14.49,15.65,24.06a7.81,7.81,0,1,1-15.6,0,7.8,7.8,0,1,1-15.59,0Z"/><path class="cls-2" d="M133.91,21.91c0,9.58-12,16.55-15.54,24.14-3.54-7.57-15.59-14.48-15.65-24.06a7.8,7.8,0,1,1,15.59,0,7.81,7.81,0,1,1,15.6,0Z"/><path class="cls-2" d="M133.91,220.76c0-9.58-12-16.55-15.54-24.14-3.54,7.57-15.59,14.49-15.65,24.06a7.8,7.8,0,1,0,15.59,0,7.81,7.81,0,1,0,15.6,0Z"/><path class="cls-2" d="M64.37,113.51c0,9.58-12,16.55-15.54,24.14-3.54-7.57-15.59-14.48-15.65-24.06a7.8,7.8,0,1,1,15.59,0,7.81,7.81,0,1,1,15.6,0Z"/><path class="cls-2" d="M102.72,113.51c0,9.58,12,16.55,15.54,24.14,3.55-7.57,15.59-14.48,15.65-24.06a7.8,7.8,0,1,0-15.59,0,7.81,7.81,0,1,0-15.6,0Z"/><path class="cls-2" d="M101,64.27c0,9.58-12,16.56-15.54,24.15-3.54-7.57-15.59-14.49-15.65-24.07a7.8,7.8,0,1,1,15.59,0,7.81,7.81,0,1,1,15.6,0Z"/><path class="cls-2" d="M17.78,11.07,14.46,26h-1.1L16.6,11.41h-4v2.44h-.75V8h5.91Z"/><path class="cls-2" d="M148.55,231.58l3.32-15H153l-3.23,14.62h4v-2.43h.75v5.84h-5.91Z"/><path class="cls-2" d="M11.43,31.61c0,2.87,3.6,5,4.66,7.24,1.06-2.27,4.67-4.34,4.69-7.22a2.34,2.34,0,1,0-4.68,0,2.34,2.34,0,1,0-4.67,0Z"/><path class="cls-2" d="M154.8,210.91c0-2.88-3.6-5-4.66-7.24-1.06,2.27-4.68,4.34-4.69,7.21a2.34,2.34,0,1,0,4.67,0,2.34,2.34,0,1,0,4.68,0Z"/></g></svg>