<svg id="Слой_1" data-name="Слой 1" xmlns="http://www.w3.org/2000/svg" viewBox="0 0 167.09 242.67"><defs><style>.cls-1{fill:#fff;stroke:#000;stroke-width:0.5px;}</style></defs><title>6</title><g id="Layer_1"><path class="cls-1" d="M166.84,235.55a6.89,6.89,0,0,1-6.87,6.87H7.11a6.89,6.89,0,0,1-6.86-6.87V7.12A6.89,6.89,0,0,1,7.11.25H160a6.89,6.89,0,0,1,6.87,6.87Z"/><path d="M125.75,19.92a7.05,7.05,0,0,1-14.1,0,7.05,7.05,0,0,1,14.1,0Z"/><path d="M134.82,32.85a7,7,0,1,1-7-6.83A6.95,6.95,0,0,1,134.82,32.85Z"/><path d="M116.77,32.9a6.62,6.62,0,0,1-1.15,3.74,7.09,7.09,0,0,1-5.89,3.09,6.83,6.83,0,1,1,7-6.83Z"/><path d="M127,46.16c-3.48,0-5.31-2.83-6.27-5.65a22.14,22.14,0,0,1-1-5.67h-1.77s-.34,11.32-7.29,11.33Z"/><path d="M113.91,24.93c4,4,4,9.9,4,9.9h1.77s0-6.06,3.85-9.91"/><path d="M114.7,37.65c4-4,9.9-4,9.9-4V31.91s-6.06,0-9.91-3.84"/><path d="M122.64,37.68c-4-4-9.9-4-9.9-4l0-1.78s6.07,0,9.92-3.84"/><path d="M55.24,19.92a7,7,0,0,1-14.09,0,7,7,0,0,1,14.09,0Z"/><path d="M64.32,32.85a7,7,0,1,1-7-6.83A6.95,6.95,0,0,1,64.32,32.85Z"/><path d="M46.27,32.9a6.62,6.62,0,0,1-1.15,3.74,7.09,7.09,0,0,1-5.89,3.09,6.83,6.83,0,1,1,7-6.83Z"/><path d="M56.46,46.16c-3.48,0-5.31-2.83-6.27-5.65a22.14,22.14,0,0,1-1-5.67H47.37S47,46.15,40.08,46.16Z"/><path d="M43.41,24.93c4,4,4,9.9,4,9.9h1.77s0-6.06,3.85-9.91"/><path d="M44.2,37.65c4-4,9.9-4,9.9-4V31.91s-6.06,0-9.91-3.84"/><path d="M52.14,37.68c-4-4-9.9-4-9.9-4l0-1.78s6.07,0,9.92-3.84"/><path d="M92.25,63.67a7.05,7.05,0,1,1-7-6.83A6.95,6.95,0,0,1,92.25,63.67Z"/><path d="M101.32,76.6a7,7,0,1,1-7-6.83A6.95,6.95,0,0,1,101.32,76.6Z"/><path d="M83.27,76.65a6.62,6.62,0,0,1-1.15,3.74,7.09,7.09,0,0,1-5.89,3.09,6.83,6.83,0,1,1,7-6.83Z"/><path d="M93.46,89.91c-3.48,0-5.31-2.83-6.27-5.65a22.14,22.14,0,0,1-1-5.67H84.37S84,89.9,77.08,89.91Z"/><path d="M80.41,68.68c4,4,4,9.9,4,9.9h1.77s0-6.06,3.85-9.91"/><path d="M81.2,81.4c4-4,9.9-4,9.9-4V75.66s-6.06,0-9.91-3.84"/><path d="M89.14,81.43c-4-4-9.9-4-9.9-4l0-1.78s6.07,0,9.92-3.84"/><path d="M55.49,111.67a7,7,0,1,1-7-6.83A6.94,6.94,0,0,1,55.49,111.67Z"/><path d="M64.57,124.6a7,7,0,1,1-7-6.83A6.95,6.95,0,0,1,64.57,124.6Z"/><path d="M46.52,124.65a6.62,6.62,0,0,1-1.15,3.74,7.09,7.09,0,0,1-5.89,3.09,6.83,6.83,0,1,1,7-6.83Z"/><path d="M56.71,137.91c-3.48,0-5.31-2.82-6.27-5.65a22.14,22.14,0,0,1-1-5.67H47.62s-.34,11.32-7.29,11.33Z"/><path d="M43.66,116.68c4,4,4,9.9,4,9.9h1.77s0-6.06,3.85-9.91"/><path d="M44.45,129.4c4-4,9.9-4,9.9-4v-1.78s-6.06,0-9.91-3.84"/><path d="M52.39,129.43c-4-4-9.9-4-9.9-4l0-1.78s6.07,0,9.92-3.84"/><path d="M124.25,111.67a7.05,7.05,0,1,1-7-6.83A6.95,6.95,0,0,1,124.25,111.67Z"/><path d="M133.32,124.6a7,7,0,1,1-7-6.83A6.95,6.95,0,0,1,133.32,124.6Z"/><path d="M115.27,124.65a6.62,6.62,0,0,1-1.15,3.74,7.09,7.09,0,0,1-5.89,3.09,6.83,6.83,0,1,1,7-6.83Z"/><path d="M125.46,137.91c-3.48,0-5.31-2.82-6.27-5.65a22.14,22.14,0,0,1-1-5.67h-1.77s-.34,11.32-7.29,11.33Z"/><path d="M112.41,116.68c4,4,4,9.9,4,9.9h1.77s0-6.06,3.85-9.91"/><path d="M113.2,129.4c4-4,9.9-4,9.9-4v-1.78s-6.06,0-9.91-3.84"/><path d="M121.14,129.43c-4-4-9.9-4-9.9-4l0-1.78s6.07,0,9.92-3.84"/><path d="M55.26,223.16a7,7,0,1,0-7,6.83A6.95,6.95,0,0,0,55.26,223.16Z"/><path d="M64.33,210.23a7,7,0,1,0-7,6.83A6.94,6.94,0,0,0,64.33,210.23Z"/><path d="M46.29,210.18a6.65,6.65,0,0,0-1.15-3.75,7.1,7.1,0,0,0-5.9-3.09,6.84,6.84,0,1,0,7,6.84Z"/><path d="M40.09,196.91c7,0,7.29,11.33,7.29,11.33h1.78a22.1,22.1,0,0,1,1.05-5.66c1-2.83,2.79-5.66,6.27-5.66Z"/><path d="M43.42,218.14c4-3.95,4-9.9,4-9.9h1.78s0,6.07,3.84,9.91"/><path d="M44.21,205.43c4,3.95,9.9,3.95,9.9,3.95l0,1.78s-6.07,0-9.92,3.85"/><path d="M52.15,205.4c-4,3.95-9.9,3.95-9.9,3.95v1.78s6.07,0,9.91,3.85"/><path d="M125.71,223.16a7,7,0,1,0-7,6.83A6.94,6.94,0,0,0,125.71,223.16Z"/><path d="M134.78,210.23a7,7,0,1,0-7,6.83A6.94,6.94,0,0,0,134.78,210.23Z"/><path d="M116.74,210.18a6.65,6.65,0,0,0-1.15-3.75,7.1,7.1,0,0,0-5.9-3.09,6.84,6.84,0,1,0,7,6.84Z"/><path d="M110.54,196.91c7,0,7.29,11.33,7.29,11.33h1.78a22.1,22.1,0,0,1,1-5.66c1-2.83,2.79-5.66,6.27-5.66Z"/><path d="M113.88,218.14c4-3.95,4-9.9,4-9.9h1.78s0,6.07,3.84,9.91"/><path d="M114.67,205.43c4,3.95,9.9,3.95,9.9,3.95v1.78s-6.07,0-9.91,3.85"/><path d="M122.6,205.4c-3.95,3.95-9.9,3.95-9.9,3.95v1.78s6.07,0,9.91,3.85"/><path d="M17.86,10.87l-3.32,15h-1.1l3.24-14.62h-4v2.44H12V7.8h5.91Z"/><path d="M148.63,231.38l3.32-15h1.1L149.82,231h4V228.6h.75v5.84h-5.91Z"/><path d="M18.14,31.16A2.12,2.12,0,1,1,16,29.11,2.09,2.09,0,0,1,18.14,31.16Z"/><path d="M20.86,35.05a2.12,2.12,0,1,1-2.12-2A2.09,2.09,0,0,1,20.86,35.05Z"/><path d="M15.44,35.06a2.06,2.06,0,0,1-.34,1.13,2.15,2.15,0,0,1-1.78.93,2.06,2.06,0,1,1,2.12-2.06Z"/><path d="M18.5,39.05c-1,0-1.59-.85-1.88-1.7a6.68,6.68,0,0,1-.32-1.7h-.53s-.1,3.4-2.19,3.4Z"/><path d="M14.58,32.67a4.66,4.66,0,0,1,1.19,3h.53a4.68,4.68,0,0,1,1.16-3"/><path d="M14.82,36.49a4.64,4.64,0,0,1,3-1.19v-.53a4.66,4.66,0,0,1-3-1.16"/><path d="M17.2,36.5a4.64,4.64,0,0,0-3-1.19v-.53a4.66,4.66,0,0,0,3-1.16"/><path d="M148.27,210.78a2.12,2.12,0,1,1,2.12,2.05A2.09,2.09,0,0,1,148.27,210.78Z"/><path d="M145.55,206.89a2.12,2.12,0,1,1,2.12,2.06A2.09,2.09,0,0,1,145.55,206.89Z"/><path d="M151,206.88a2,2,0,0,1,.35-1.13,2.11,2.11,0,0,1,1.77-.93,2.06,2.06,0,1,1-2.12,2.06Z"/><path d="M147.91,202.89c1,0,1.59.85,1.88,1.7a6.68,6.68,0,0,1,.32,1.7h.53s.1-3.4,2.19-3.41Z"/><path d="M151.83,209.27a4.64,4.64,0,0,1-1.19-3h-.53a4.66,4.66,0,0,1-1.16,3"/><path d="M151.59,205.45a4.64,4.64,0,0,1-3,1.19v.53a4.66,4.66,0,0,1,3,1.16"/><path d="M149.21,205.44a4.64,4.64,0,0,0,3,1.19v.53a4.66,4.66,0,0,0-3,1.16"/></g></svg>