<svg id="Слой_1" data-name="Слой 1" xmlns="http://www.w3.org/2000/svg" viewBox="0 0 167.09 242.67"><defs><style>.cls-1{fill:#fff;stroke:#000;stroke-width:0.5px;}.cls-2{fill:#e61408;}</style></defs><title>7</title><g id="Layer_1"><path class="cls-1" d="M166.84,235.54a6.9,6.9,0,0,1-6.87,6.88H7.11a6.89,6.89,0,0,1-6.86-6.88V7.12A6.89,6.89,0,0,1,7.11.25H160a6.89,6.89,0,0,1,6.87,6.87Z"/><path class="cls-2" d="M48.4,29.49H32.8s2.44.5,9.26-6S48.4,13.36,48.4,13.36M32.8,29.49S36.21,29,42.55,36s5.85,9.57,5.85,9.57V29.49m0,16.12s-.48-3.53,6.34-10.08,9.26-6,9.26-6H48.4m15.6,0s-3.41.5-9.75-6.55-5.85-9.58-5.85-9.58V29.49"/><path class="cls-2" d="M117.63,13.14s-.49,3.53,6.34,10.08,9.26,6,9.26,6h-15.6m0,0V45.39s-.49-2.52,5.85-9.58,9.75-6.55,9.75-6.55m-15.6,0H102s2.44-.5,9.26,6.05,6.34,10.08,6.34,10.08m0-16.13V13.14s.49,2.52-5.85,9.57S102,29.26,102,29.26"/><path class="cls-2" d="M48.12,228.19s.48-3.53-6.34-10.08-9.26-6.05-9.26-6.05h15.6m0,0V195.94s.48,2.52-5.85,9.57-9.75,6.55-9.75,6.55m15.6,0h15.6s-2.44.5-9.26-6.05-6.34-10.07-6.34-10.07m0,16.12v16.13s-.49-2.52,5.85-9.58,9.75-6.55,9.75-6.55"/><path class="cls-2" d="M117.34,212.28h15.6s-2.43-.5-9.26,6.05-6.34,10.08-6.34,10.08m15.6-16.13s-3.41.51-9.74-6.55-5.86-9.57-5.86-9.57v16.12m0-16.12s.49,3.53-6.33,10.08-9.27,6-9.27,6h15.6m-15.6,0s3.42-.5,9.75,6.55,5.85,9.58,5.85,9.58V212.28"/><path class="cls-2" d="M48.21,121.8H32.61s2.44.5,9.26-6,6.34-10.07,6.34-10.07M32.61,121.8s3.41-.5,9.75,6.55,5.85,9.58,5.85,9.58V121.8m0,16.13s-.49-3.53,6.34-10.08,9.26-6,9.26-6H48.21m15.6,0s-3.41.51-9.75-6.55-5.85-9.57-5.85-9.57V121.8"/><path class="cls-2" d="M117.44,105.45s-.49,3.53,6.34,10.08,9.26,6,9.26,6h-15.6m0,0V137.7s-.49-2.52,5.85-9.57,9.75-6.55,9.75-6.55m-15.6,0h-15.6s2.44-.51,9.26,6,6.34,10.07,6.34,10.07m0-16.12V105.45s.49,2.52-5.85,9.58-9.75,6.55-9.75,6.55"/><path class="cls-2" d="M85.38,71.25H69.78s2.44.5,9.26-6,6.34-10.08,6.34-10.08M69.78,71.25s3.41-.51,9.75,6.55,5.85,9.57,5.85,9.57V71.25m0,16.12s-.48-3.52,6.34-10.07,9.26-6,9.26-6H85.38m15.6,0s-3.41.5-9.75-6.55-5.85-9.58-5.85-9.58V71.25"/><path class="cls-2" d="M17.85,11,14.53,26h-1.1l3.24-14.63h-4v2.44h-.75V8h5.91Z"/><path class="cls-2" d="M148.62,231.54l3.32-15H153l-3.23,14.63h4v-2.44h.75v5.84h-5.91Z"/><path class="cls-2" d="M16.26,34.06H11.21s.79.16,3-2,2.05-3.26,2.05-3.26m-5.05,5.22s1.11-.17,3.16,2.11,1.89,3.1,1.89,3.1V34.06m0,5.21s-.16-1.14,2-3.26,3-1.95,3-1.95h-5m5,0s-1.1.16-3.15-2.12-1.89-3.1-1.89-3.1v5.22"/><path class="cls-2" d="M150.69,208.14h5s-.79-.16-3,2-2,3.26-2,3.26m5-5.21s-1.11.16-3.15-2.12-1.89-3.09-1.89-3.09v5.21m0-5.21s.15,1.14-2.05,3.26-3,1.95-3,1.95h5.05m-5.05,0s1.11-.16,3.15,2.12,1.9,3.09,1.9,3.09v-5.21"/></g></svg>