<svg id="Слой_1" data-name="Слой 1" xmlns="http://www.w3.org/2000/svg" viewBox="0 0 167.09 242.67"><defs><style>.cls-1{fill:#fff;stroke:#000;stroke-width:0.5px;}</style></defs><title>8</title><g id="Layer_1"><path class="cls-1" d="M166.84,235.55a6.89,6.89,0,0,1-6.87,6.87H7.11a6.89,6.89,0,0,1-6.86-6.87V7.12A6.89,6.89,0,0,1,7.11.25H160a6.89,6.89,0,0,1,6.87,6.87Z"/><path d="M57.11,46.11c-3.48,0-5.31-3.71-6.27-7.41a37.4,37.4,0,0,1-1.05-7.43l-1.78,0s-.33,14.85-7.29,14.86Z"/><path d="M63,31.27C63,24,52.12,18.77,48.94,13c-3.19,5.73-14,11-14.06,18.23,0,3.42,3.15,6.19,7,6.19s7-2.77,7-6.19c0,3.42,3.14,6.19,7,6.19S63,34.69,63,31.27Z"/><path d="M126.81,46.11c-3.48,0-5.31-3.71-6.27-7.41a37.4,37.4,0,0,1-1.05-7.43l-1.78,0s-.33,14.85-7.29,14.86Z"/><path d="M132.7,31.27c0-7.24-10.87-12.5-14.06-18.23-3.18,5.73-14,11-14.06,18.23,0,3.42,3.15,6.19,7,6.19s7-2.77,7-6.19c0,3.42,3.15,6.19,7,6.19S132.7,34.69,132.7,31.27Z"/><path d="M93.83,89.85c-3.48,0-5.31-3.7-6.27-7.41a37.31,37.31,0,0,1-1-7.43H84.73s-.33,14.84-7.29,14.85Z"/><path d="M99.72,75c0-7.24-10.88-12.5-14.06-18.23-3.18,5.73-14,11-14.06,18.23,0,3.42,3.15,6.19,7,6.19s7-2.77,7-6.19c0,3.42,3.15,6.19,7,6.19S99.72,78.43,99.72,75Z"/><path d="M57.11,137.57c-3.48,0-5.31-3.71-6.27-7.42a37.26,37.26,0,0,1-1.05-7.42l-1.78,0s-.33,14.85-7.29,14.86Z"/><path d="M63,122.73c0-7.25-10.87-12.5-14.05-18.23-3.19,5.73-14,11-14.06,18.23,0,3.42,3.15,6.19,7,6.19s7-2.77,7-6.19c0,3.42,3.14,6.19,7,6.19S63,126.15,63,122.73Z"/><path d="M126.58,137.57c-3.48,0-5.31-3.71-6.27-7.42a37.26,37.26,0,0,1-1-7.42l-1.78,0s-.33,14.85-7.29,14.86Z"/><path d="M132.46,122.73c0-7.25-10.87-12.5-14.05-18.23-3.18,5.73-14,11-14.06,18.23,0,3.42,3.15,6.19,7,6.19s7-2.77,7-6.19c0,3.42,3.15,6.19,7,6.19S132.46,126.15,132.46,122.73Z"/><path d="M40.72,196.79c7,0,7.29,14.86,7.29,14.86l1.77,0a37.86,37.86,0,0,1,1.06-7.43c1-3.7,2.79-7.42,6.26-7.41Z"/><path d="M63,211.63c0,7.24-10.87,12.5-14.05,18.23-3.19-5.73-14-11-14.06-18.23,0-3.42,3.15-6.19,7-6.19s7,2.77,7,6.19c0-3.42,3.14-6.19,7-6.19S63,208.21,63,211.63Z"/><path d="M110.42,196.79c7,0,7.29,14.86,7.29,14.86l1.78,0a37.4,37.4,0,0,1,1.05-7.43c1-3.7,2.79-7.42,6.27-7.41Z"/><path d="M132.7,211.63c0,7.24-10.88,12.5-14.06,18.23-3.18-5.73-14-11-14.06-18.23,0-3.42,3.15-6.19,7-6.19s7,2.77,7,6.19c0-3.42,3.15-6.19,7-6.19S132.7,208.21,132.7,211.63Z"/><path d="M17.91,10.83l-3.32,15h-1.1l3.24-14.63h-4V13.6H12V7.76h5.91Z"/><path d="M148.68,231.33l3.32-15h1.1L149.87,231h4v-2.44h.75v5.84h-5.91Z"/><path d="M19,39.28c-1.1,0-1.67-1.16-2-2.33a11.94,11.94,0,0,1-.33-2.34h-.56s-.1,4.68-2.29,4.68Z"/><path d="M20.81,34.61c0-2.28-3.42-3.94-4.42-5.74-1,1.8-4.42,3.46-4.43,5.74a2.09,2.09,0,0,0,2.21,2,2.09,2.09,0,0,0,2.22-2,2.09,2.09,0,0,0,2.21,2A2.09,2.09,0,0,0,20.81,34.61Z"/><path d="M147.94,203c1.1,0,1.68,1.17,2,2.33a11.94,11.94,0,0,1,.33,2.34h.56s.1-4.68,2.29-4.68Z"/><path d="M146.09,207.62c0,2.28,3.42,3.94,4.43,5.74,1-1.8,4.41-3.46,4.42-5.74a2.23,2.23,0,0,0-4.42,0,2.23,2.23,0,0,0-4.43,0Z"/></g></svg>