<svg id="Слой_1" data-name="Слой 1" xmlns="http://www.w3.org/2000/svg" viewBox="0 0 167.09 242.67"><defs><style>.cls-1{fill:#fff;stroke:#000;stroke-width:0.5px;}.cls-2{fill:#e61408;}</style></defs><title>9</title><g id="Layer_1"><path class="cls-1" d="M166.84,235.55a6.89,6.89,0,0,1-6.87,6.87H7.11a6.89,6.89,0,0,1-6.86-6.87V7.12A6.89,6.89,0,0,1,7.11.25H160a6.89,6.89,0,0,1,6.87,6.87Z"/><path class="cls-2" d="M33.18,21.91c0,9.58,12,16.55,15.54,24.14C52.26,38.48,64.31,31.57,64.37,22a7.81,7.81,0,1,0-15.6,0,7.8,7.8,0,1,0-15.59,0Z"/><path class="cls-2" d="M33.18,81.7c0,9.58,12,16.55,15.54,24.14,3.54-7.57,15.59-14.48,15.65-24.06a7.81,7.81,0,1,0-15.6,0,7.8,7.8,0,1,0-15.59,0Z"/><path class="cls-2" d="M33.18,220.76c0-9.58,12-16.55,15.54-24.14,3.54,7.57,15.59,14.49,15.65,24.06a7.81,7.81,0,1,1-15.6,0,7.8,7.8,0,1,1-15.59,0Z"/><path class="cls-2" d="M33.18,161c0-9.58,12-16.56,15.54-24.14,3.54,7.56,15.59,14.48,15.65,24.06a7.81,7.81,0,1,1-15.6,0,7.8,7.8,0,1,1-15.59,0Z"/><path class="cls-2" d="M133.91,21.91c0,9.58-12,16.55-15.54,24.14-3.54-7.57-15.59-14.48-15.65-24.06a7.81,7.81,0,1,1,15.6,0,7.8,7.8,0,1,1,15.59,0Z"/><path class="cls-2" d="M133.91,81.7c0,9.58-12,16.55-15.54,24.14-3.54-7.57-15.59-14.48-15.65-24.06a7.81,7.81,0,1,1,15.6,0,7.8,7.8,0,1,1,15.59,0Z"/><path class="cls-2" d="M133.91,220.76c0-9.58-12-16.55-15.54-24.14-3.54,7.57-15.59,14.49-15.65,24.06a7.81,7.81,0,1,0,15.6,0,7.8,7.8,0,1,0,15.59,0Z"/><path class="cls-2" d="M133.91,161c0-9.58-12-16.56-15.54-24.14-3.54,7.56-15.59,14.48-15.65,24.06a7.81,7.81,0,1,0,15.6,0,7.8,7.8,0,1,0,15.59,0Z"/><path class="cls-2" d="M16.32,16.41A2.54,2.54,0,0,1,17.79,18a8.57,8.57,0,0,1,.51,3.23,7.19,7.19,0,0,1-.84,3.82A2.7,2.7,0,0,1,15,26.38a2.69,2.69,0,0,1-2.42-1.33,7.19,7.19,0,0,1-.84-3.82,8.59,8.59,0,0,1,.5-3.23,2.55,2.55,0,0,1,1.44-1.59A2.74,2.74,0,0,1,12.46,15a7.1,7.1,0,0,1-.41-2.59,6.57,6.57,0,0,1,.76-3.5A2.46,2.46,0,0,1,15,7.66a2.48,2.48,0,0,1,2.22,1.21,6.56,6.56,0,0,1,.77,3.5A6.88,6.88,0,0,1,17.6,15,2.71,2.71,0,0,1,16.32,16.41ZM16.14,21A12.13,12.13,0,0,0,15.89,18q-.24-.84-.87-.84t-.87.84A12,12,0,0,0,13.89,21a12.47,12.47,0,0,0,.26,3.1c.17.57.46.85.87.85s.7-.28.87-.85A12.61,12.61,0,0,0,16.14,21Zm-.22-8.61a11,11,0,0,0-.2-2.62q-.2-.72-.69-.72t-.69.72a11.57,11.57,0,0,0-.2,2.62,11.4,11.4,0,0,0,.2,2.61c.13.47.36.7.69.7s.56-.23.69-.7A10.84,10.84,0,0,0,15.92,12.41Z"/><path class="cls-2" d="M150.42,226.25a2.62,2.62,0,0,1-1.47-1.59,8.59,8.59,0,0,1-.5-3.23,7.17,7.17,0,0,1,.84-3.82,2.86,2.86,0,0,1,4.85,0,7.17,7.17,0,0,1,.84,3.82,8.79,8.79,0,0,1-.5,3.23,2.62,2.62,0,0,1-1.45,1.59,2.74,2.74,0,0,1,1.25,1.45,6.84,6.84,0,0,1,.42,2.59,6.58,6.58,0,0,1-.77,3.5,2.64,2.64,0,0,1-4.43,0,6.49,6.49,0,0,1-.77-3.5,6.84,6.84,0,0,1,.42-2.59A2.69,2.69,0,0,1,150.42,226.25Zm.18-4.62a12.8,12.8,0,0,0,.25,3.06c.17.56.46.83.87.83s.71-.27.88-.83a12.28,12.28,0,0,0,.25-3.06,12.52,12.52,0,0,0-.25-3.09c-.17-.57-.46-.86-.88-.86s-.69.29-.86.86A12.38,12.38,0,0,0,150.6,221.63Zm.22,8.61a11.68,11.68,0,0,0,.2,2.63q.21.72.69.72c.33,0,.57-.24.7-.72a11.85,11.85,0,0,0,.19-2.63,11.53,11.53,0,0,0-.19-2.6c-.13-.47-.37-.71-.7-.71s-.55.24-.69.71A11.36,11.36,0,0,0,150.82,230.24Z"/><path class="cls-2" d="M11.63,31.61c0,2.87,3.61,5,4.66,7.24,1.07-2.27,4.68-4.34,4.7-7.22a2.34,2.34,0,1,0-4.68,0,2.34,2.34,0,1,0-4.68,0Z"/><path class="cls-2" d="M155,210.91c0-2.88-3.61-5-4.66-7.24-1.07,2.27-4.68,4.34-4.7,7.21a2.34,2.34,0,1,0,4.68,0,2.34,2.34,0,1,0,4.68,0Z"/></g></svg>